%FSLAX25Y25*%
%MOIN*%
G70*
G01*
G75*
G04 Layer_Color=32896*
%ADD10R,0.07087X0.14173*%
%ADD11R,0.03937X0.04724*%
%ADD12R,0.06299X0.13780*%
%ADD13O,0.07874X0.02400*%
%ADD14O,0.07874X0.02402*%
%ADD15R,0.03465X0.05000*%
%ADD16R,0.05512X0.04724*%
%ADD17R,0.04724X0.03937*%
%ADD18R,0.05118X0.07480*%
%ADD19R,0.04724X0.03150*%
%ADD20R,0.08268X0.07874*%
%ADD21R,0.03150X0.03150*%
%ADD22R,0.06299X0.03937*%
%ADD23R,0.20079X0.18898*%
%ADD24R,0.11811X0.03937*%
%ADD25R,0.01575X0.07874*%
%ADD26R,0.03937X0.01575*%
%ADD27O,0.10000X0.02400*%
%ADD28O,0.10000X0.02402*%
%ADD29R,0.12205X0.06102*%
%ADD30C,0.02000*%
%ADD31C,0.02500*%
%ADD32C,0.03000*%
%ADD33C,0.02362*%
%ADD34C,0.05000*%
%ADD35C,0.03500*%
%ADD36C,0.02200*%
%ADD37C,0.01000*%
%ADD38C,0.04000*%
%ADD39C,0.07000*%
%ADD40C,0.02400*%
%ADD41C,0.06000*%
%ADD42C,0.04500*%
%ADD43C,0.05906*%
%ADD44R,0.05906X0.05906*%
%ADD45C,0.19685*%
%ADD46C,0.07874*%
%ADD47R,0.07874X0.07874*%
%ADD48C,0.00787*%
%ADD49C,0.07480*%
%ADD50R,0.07480X0.07480*%
%ADD51C,0.03543*%
%ADD52R,0.09055X0.05512*%
%ADD53R,0.07874X0.03937*%
%ADD54R,0.11811X0.15748*%
%ADD55R,0.03937X0.02362*%
%ADD56C,0.00787*%
%ADD57C,0.01969*%
%ADD58C,0.01575*%
%ADD59C,0.01181*%
%ADD60C,0.00394*%
D37*
X179921Y37008D02*
X179621Y37933D01*
X178833Y38506D01*
X177860D01*
X177072Y37933D01*
X176772Y37008D01*
X95472Y30294D02*
X111221D01*
Y4134D02*
Y30294D01*
X95472Y4134D02*
X111221D01*
X95472D02*
Y30294D01*
X174803Y37008D02*
X182283D01*
X174803D02*
Y48819D01*
Y49213D01*
X182283Y37008D02*
Y49213D01*
X174803D02*
X182283D01*
D56*
X28740Y129134D02*
X28704Y130128D01*
X28597Y131117D01*
X28418Y132096D01*
X28169Y133059D01*
X27852Y134002D01*
X27467Y134920D01*
X27016Y135807D01*
X26504Y136660D01*
X25930Y137473D01*
X25300Y138243D01*
X24616Y138965D01*
X23881Y139636D01*
X23100Y140252D01*
X22277Y140811D01*
X21415Y141308D01*
X20520Y141742D01*
X19595Y142111D01*
X18647Y142411D01*
X17679Y142642D01*
X16698Y142804D01*
X15707Y142893D01*
X14712Y142911D01*
X13718Y142857D01*
X12731Y142732D01*
X11756Y142536D01*
X10797Y142269D01*
X9860Y141935D01*
X8950Y141533D01*
X8071Y141067D01*
X7228Y140539D01*
X6425Y139951D01*
X5667Y139307D01*
X4957Y138610D01*
X4299Y137864D01*
X3697Y137071D01*
X3153Y136238D01*
X2672Y135368D01*
X2254Y134465D01*
X1902Y133534D01*
X1619Y132580D01*
X1405Y131608D01*
X1262Y130624D01*
X1190Y129631D01*
Y128636D01*
X1262Y127644D01*
X1405Y126660D01*
X1619Y125688D01*
X1902Y124734D01*
X2254Y123803D01*
X2672Y122900D01*
X3153Y122030D01*
X3697Y121196D01*
X4299Y120404D01*
X4957Y119658D01*
X5667Y118960D01*
X6425Y118316D01*
X7228Y117729D01*
X8071Y117201D01*
X8950Y116734D01*
X9860Y116333D01*
X10797Y115998D01*
X11756Y115732D01*
X12731Y115536D01*
X13718Y115410D01*
X14712Y115357D01*
X15707Y115375D01*
X16698Y115464D01*
X17679Y115625D01*
X18647Y115857D01*
X19595Y116157D01*
X20520Y116525D01*
X21415Y116960D01*
X22277Y117457D01*
X23100Y118015D01*
X23881Y118632D01*
X24616Y119303D01*
X25300Y120025D01*
X25930Y120795D01*
X26504Y121608D01*
X27016Y122461D01*
X27467Y123348D01*
X27852Y124266D01*
X28169Y125208D01*
X28418Y126172D01*
X28597Y127150D01*
X28704Y128140D01*
X28740Y129134D01*
X502362Y14961D02*
X502326Y15955D01*
X502219Y16944D01*
X502040Y17923D01*
X501791Y18886D01*
X501474Y19829D01*
X501089Y20746D01*
X500639Y21634D01*
X500126Y22486D01*
X499552Y23300D01*
X498922Y24069D01*
X498238Y24792D01*
X497503Y25463D01*
X496722Y26079D01*
X495899Y26638D01*
X495037Y27135D01*
X494142Y27569D01*
X493218Y27937D01*
X492269Y28238D01*
X491301Y28469D01*
X490320Y28630D01*
X489329Y28720D01*
X488334Y28738D01*
X487340Y28684D01*
X486353Y28559D01*
X485378Y28362D01*
X484419Y28096D01*
X483482Y27762D01*
X482572Y27360D01*
X481693Y26894D01*
X480850Y26366D01*
X480047Y25778D01*
X479289Y25134D01*
X478579Y24437D01*
X477921Y23690D01*
X477319Y22898D01*
X476776Y22065D01*
X476294Y21194D01*
X475876Y20291D01*
X475525Y19361D01*
X475241Y18407D01*
X475027Y17435D01*
X474884Y16451D01*
X474812Y15458D01*
Y14463D01*
X474884Y13471D01*
X475027Y12486D01*
X475241Y11514D01*
X475525Y10561D01*
X475876Y9630D01*
X476294Y8727D01*
X476776Y7857D01*
X477319Y7023D01*
X477921Y6231D01*
X478579Y5485D01*
X479289Y4787D01*
X480047Y4143D01*
X480850Y3556D01*
X481693Y3027D01*
X482572Y2561D01*
X483482Y2160D01*
X484419Y1825D01*
X485378Y1559D01*
X486353Y1363D01*
X487340Y1237D01*
X488334Y1183D01*
X489329Y1201D01*
X490319Y1291D01*
X491301Y1452D01*
X492269Y1683D01*
X493218Y1984D01*
X494142Y2352D01*
X495037Y2786D01*
X495899Y3284D01*
X496722Y3842D01*
X497503Y4458D01*
X498238Y5130D01*
X498922Y5852D01*
X499552Y6622D01*
X500126Y7435D01*
X500638Y8287D01*
X501089Y9175D01*
X501474Y10092D01*
X501791Y11035D01*
X502040Y11998D01*
X502219Y12977D01*
X502326Y13966D01*
X502362Y14961D01*
X502756Y128346D02*
X502720Y129341D01*
X502612Y130330D01*
X502434Y131309D01*
X502185Y132272D01*
X501867Y133215D01*
X501482Y134132D01*
X501032Y135020D01*
X500519Y135872D01*
X499946Y136686D01*
X499316Y137455D01*
X498632Y138178D01*
X497897Y138849D01*
X497116Y139465D01*
X496292Y140023D01*
X495431Y140521D01*
X494535Y140955D01*
X493611Y141323D01*
X492663Y141624D01*
X491695Y141855D01*
X490713Y142016D01*
X489722Y142106D01*
X488728Y142124D01*
X487734Y142070D01*
X486747Y141945D01*
X485772Y141748D01*
X484813Y141482D01*
X483876Y141147D01*
X482966Y140746D01*
X482087Y140280D01*
X481244Y139752D01*
X480441Y139164D01*
X479682Y138520D01*
X478972Y137823D01*
X478315Y137076D01*
X477713Y136284D01*
X477169Y135450D01*
X476687Y134580D01*
X476270Y133677D01*
X475918Y132746D01*
X475635Y131793D01*
X475421Y130821D01*
X475278Y129836D01*
X475206Y128844D01*
Y127849D01*
X475278Y126857D01*
X475421Y125872D01*
X475635Y124900D01*
X475918Y123947D01*
X476270Y123016D01*
X476687Y122113D01*
X477169Y121242D01*
X477713Y120409D01*
X478315Y119617D01*
X478972Y118870D01*
X479682Y118173D01*
X480441Y117529D01*
X481244Y116941D01*
X482087Y116413D01*
X482966Y115947D01*
X483876Y115546D01*
X484813Y115211D01*
X485772Y114945D01*
X486747Y114748D01*
X487734Y114623D01*
X488728Y114569D01*
X489722Y114587D01*
X490713Y114677D01*
X491695Y114838D01*
X492663Y115069D01*
X493611Y115370D01*
X494535Y115738D01*
X495431Y116172D01*
X496292Y116669D01*
X497116Y117228D01*
X497897Y117844D01*
X498632Y118515D01*
X499316Y119238D01*
X499946Y120007D01*
X500519Y120821D01*
X501032Y121673D01*
X501482Y122561D01*
X501867Y123478D01*
X502185Y124421D01*
X502434Y125384D01*
X502612Y126363D01*
X502720Y127352D01*
X502756Y128346D01*
X28346Y14961D02*
X28310Y15955D01*
X28203Y16944D01*
X28024Y17923D01*
X27775Y18886D01*
X27458Y19829D01*
X27073Y20746D01*
X26623Y21634D01*
X26110Y22486D01*
X25537Y23300D01*
X24906Y24069D01*
X24222Y24792D01*
X23488Y25463D01*
X22706Y26079D01*
X21883Y26638D01*
X21021Y27135D01*
X20126Y27569D01*
X19202Y27937D01*
X18253Y28238D01*
X17286Y28469D01*
X16304Y28630D01*
X15313Y28720D01*
X14318Y28738D01*
X13325Y28684D01*
X12338Y28559D01*
X11362Y28362D01*
X10404Y28096D01*
X9467Y27762D01*
X8556Y27360D01*
X7677Y26894D01*
X6834Y26366D01*
X6031Y25778D01*
X5273Y25134D01*
X4563Y24437D01*
X3905Y23690D01*
X3303Y22898D01*
X2760Y22065D01*
X2278Y21194D01*
X1860Y20291D01*
X1509Y19361D01*
X1225Y18407D01*
X1011Y17435D01*
X868Y16451D01*
X796Y15458D01*
Y14463D01*
X868Y13471D01*
X1011Y12486D01*
X1225Y11514D01*
X1509Y10561D01*
X1860Y9630D01*
X2278Y8727D01*
X2760Y7857D01*
X3303Y7023D01*
X3905Y6231D01*
X4563Y5485D01*
X5273Y4787D01*
X6031Y4143D01*
X6834Y3556D01*
X7677Y3027D01*
X8556Y2561D01*
X9467Y2160D01*
X10403Y1825D01*
X11362Y1559D01*
X12338Y1363D01*
X13325Y1237D01*
X14318Y1183D01*
X15313Y1201D01*
X16304Y1291D01*
X17286Y1452D01*
X18253Y1683D01*
X19202Y1984D01*
X20126Y2352D01*
X21021Y2786D01*
X21883Y3284D01*
X22706Y3842D01*
X23488Y4458D01*
X24222Y5130D01*
X24906Y5852D01*
X25537Y6622D01*
X26110Y7435D01*
X26623Y8287D01*
X27073Y9175D01*
X27458Y10092D01*
X27775Y11035D01*
X28024Y11998D01*
X28203Y12977D01*
X28310Y13966D01*
X28346Y14961D01*
X157874Y37894D02*
X163386D01*
Y37894D02*
Y48720D01*
X157874Y48720D02*
X163386D01*
X157874Y37894D02*
Y48720D01*
X164567Y48720D02*
X170079D01*
X164567Y37894D02*
Y48720D01*
Y37894D02*
X170079D01*
Y37894D02*
Y48720D01*
X186221Y49114D02*
X191732D01*
X186221Y38287D02*
Y49114D01*
Y38287D02*
X191732D01*
Y38287D02*
Y49114D01*
X33704Y21875D02*
X55315D01*
X33704D02*
Y30015D01*
X34004Y21875D02*
X53504D01*
X33704Y30015D02*
X36504D01*
Y117057D01*
X33661Y125418D02*
X55315D01*
Y21875D02*
Y125418D01*
X53504Y24157D02*
Y39850D01*
X38504Y27594D02*
Y113940D01*
X53504Y39850D02*
Y120457D01*
X36104Y119523D02*
X38504D01*
Y113940D02*
Y119523D01*
X33661Y117102D02*
X36504D01*
X33661D02*
Y125418D01*
X36004Y27594D02*
X38504D01*
X36004Y24157D02*
Y27594D01*
X36104Y119523D02*
Y122909D01*
X53504D01*
Y116826D02*
Y122909D01*
X33661Y125418D02*
X51643D01*
X36004Y24157D02*
X53304D01*
X33704Y105807D02*
X36504D01*
X33704Y102812D02*
Y105807D01*
Y102812D02*
X36417D01*
X33563Y43799D02*
X36516D01*
X33563Y40846D02*
Y43799D01*
Y40846D02*
X36417D01*
X200591Y35531D02*
X207677D01*
X200591D02*
Y40551D01*
X207677Y35531D02*
Y40551D01*
Y44094D02*
Y49114D01*
X200591Y44094D02*
Y49114D01*
X207677D01*
X160264Y31299D02*
X171232D01*
Y12008D02*
Y18012D01*
X160264Y12008D02*
Y18051D01*
Y12008D02*
X171232D01*
X160264Y25256D02*
Y31299D01*
X171232Y25256D02*
Y31299D01*
X147468D02*
X158437D01*
Y12008D02*
Y18012D01*
X147468Y12008D02*
Y18051D01*
Y12008D02*
X158437D01*
X147468Y25256D02*
Y31299D01*
X158437Y25256D02*
Y31299D01*
X140354Y19193D02*
Y23425D01*
X145866Y19193D02*
Y23425D01*
X140354Y19193D02*
X145866D01*
X140354Y30020D02*
X145866D01*
Y25787D02*
Y30020D01*
X140354Y25787D02*
Y30020D01*
X112598Y30807D02*
X119685D01*
X112598D02*
Y35827D01*
X119685Y30807D02*
Y35827D01*
Y39370D02*
Y44390D01*
X112598Y39370D02*
Y44390D01*
X119685D01*
X120472Y30807D02*
X127559D01*
X120472D02*
Y35827D01*
X127559Y30807D02*
Y35827D01*
Y39370D02*
Y44390D01*
X120472Y39370D02*
Y44390D01*
X127559D01*
X173622Y24508D02*
Y28740D01*
X179134Y24508D02*
Y28740D01*
X173622Y24508D02*
X179134D01*
X173622Y35335D02*
X179134D01*
Y31102D02*
Y35335D01*
X173622Y31102D02*
Y35335D01*
X125098Y3150D02*
Y10236D01*
X130118D01*
X125098Y3150D02*
X130118D01*
X133661D02*
X138681D01*
X133661Y10236D02*
X138681D01*
Y3150D02*
Y10236D01*
X149606Y48720D02*
X156693D01*
Y43701D02*
Y48720D01*
X149606Y43701D02*
Y48720D01*
Y35138D02*
Y40157D01*
X156693Y35138D02*
Y40157D01*
X149606Y35138D02*
X156693D01*
X192717Y35531D02*
X199803D01*
X192717D02*
Y40551D01*
X199803Y35531D02*
Y40551D01*
Y44094D02*
Y49114D01*
X192717Y44094D02*
Y49114D01*
X199803D01*
X208071Y31496D02*
X215945D01*
X208071D02*
Y36219D01*
X215945Y31496D02*
Y36219D01*
Y44490D02*
Y49213D01*
X208071Y44490D02*
Y49213D01*
X215945D01*
D57*
X172441Y35433D02*
X171897Y36182D01*
X171017Y35896D01*
Y34970D01*
X171897Y34684D01*
X172441Y35433D01*
D60*
X180709Y54330D02*
Y51518D01*
X180521Y50956D01*
X180146Y50581D01*
X179584Y50394D01*
X179209D01*
X178647Y50581D01*
X178272Y50956D01*
X178085Y51518D01*
Y54330D01*
X174373D02*
X176248Y50394D01*
X176997Y54330D02*
X174373D01*
X80938Y19674D02*
Y16862D01*
X80750Y16300D01*
X80375Y15925D01*
X79813Y15738D01*
X79438D01*
X78876Y15925D01*
X78501Y16300D01*
X78314Y16862D01*
Y19674D01*
X76852D02*
X74790D01*
X75915Y18174D01*
X75352D01*
X74977Y17987D01*
X74790Y17800D01*
X74602Y17237D01*
Y16862D01*
X74790Y16300D01*
X75165Y15925D01*
X75727Y15738D01*
X76289D01*
X76852Y15925D01*
X77039Y16113D01*
X77227Y16488D01*
X171025Y54032D02*
Y50096D01*
Y54032D02*
X169337D01*
X168775Y53844D01*
X168588Y53657D01*
X168400Y53282D01*
Y52907D01*
X168588Y52532D01*
X168775Y52345D01*
X169337Y52157D01*
X171025D01*
X169712D02*
X168400Y50096D01*
X165270Y53470D02*
X165458Y53844D01*
X166020Y54032D01*
X166395D01*
X166957Y53844D01*
X167332Y53282D01*
X167519Y52345D01*
Y51408D01*
X167332Y50658D01*
X166957Y50283D01*
X166395Y50096D01*
X166207D01*
X165645Y50283D01*
X165270Y50658D01*
X165083Y51220D01*
Y51408D01*
X165270Y51970D01*
X165645Y52345D01*
X166207Y52532D01*
X166395D01*
X166957Y52345D01*
X167332Y51970D01*
X167519Y51408D01*
X163386Y53936D02*
Y50000D01*
Y53936D02*
X161699D01*
X161137Y53749D01*
X160949Y53561D01*
X160762Y53186D01*
Y52811D01*
X160949Y52437D01*
X161137Y52249D01*
X161699Y52062D01*
X163386D01*
X162074D02*
X160762Y50000D01*
X157632Y53936D02*
X159506D01*
X159693Y52249D01*
X159506Y52437D01*
X158944Y52624D01*
X158381D01*
X157819Y52437D01*
X157444Y52062D01*
X157257Y51499D01*
Y51125D01*
X157444Y50562D01*
X157819Y50187D01*
X158381Y50000D01*
X158944D01*
X159506Y50187D01*
X159693Y50375D01*
X159881Y50750D01*
X191929Y54322D02*
Y50386D01*
Y54322D02*
X190242D01*
X189680Y54135D01*
X189492Y53947D01*
X189305Y53572D01*
Y53197D01*
X189492Y52823D01*
X189680Y52635D01*
X190242Y52448D01*
X191929D01*
X190617D02*
X189305Y50386D01*
X186550Y54322D02*
X188424Y51698D01*
X185612D01*
X186550Y54322D02*
Y50386D01*
X48875Y129377D02*
X48687Y129752D01*
X48312Y130127D01*
X47937Y130314D01*
X47188D01*
X46813Y130127D01*
X46438Y129752D01*
X46250Y129377D01*
X46063Y128815D01*
Y127877D01*
X46250Y127315D01*
X46438Y126940D01*
X46813Y126565D01*
X47188Y126378D01*
X47937D01*
X48312Y126565D01*
X48687Y126940D01*
X48875Y127315D01*
X49980Y130314D02*
Y126378D01*
Y130314D02*
X52605Y126378D01*
Y130314D02*
Y126378D01*
X54066Y130314D02*
X56128D01*
X55004Y128815D01*
X55566D01*
X55941Y128627D01*
X56128Y128440D01*
X56316Y127877D01*
Y127503D01*
X56128Y126940D01*
X55753Y126565D01*
X55191Y126378D01*
X54629D01*
X54066Y126565D01*
X53879Y126753D01*
X53692Y127128D01*
X153488Y53786D02*
X153675Y54161D01*
X154050Y54536D01*
X154425Y54724D01*
X155175D01*
X155550Y54536D01*
X155924Y54161D01*
X156112Y53786D01*
X156299Y53224D01*
Y52287D01*
X156112Y51725D01*
X155924Y51350D01*
X155550Y50975D01*
X155175Y50787D01*
X154425D01*
X154050Y50975D01*
X153675Y51350D01*
X153488Y51725D01*
X152194Y53786D02*
Y53974D01*
X152007Y54349D01*
X151820Y54536D01*
X151445Y54724D01*
X150695D01*
X150320Y54536D01*
X150133Y54349D01*
X149945Y53974D01*
Y53599D01*
X150133Y53224D01*
X150507Y52662D01*
X152382Y50787D01*
X149758D01*
X146440Y53412D02*
X146627Y52849D01*
X147002Y52474D01*
X147565Y52287D01*
X147752D01*
X148314Y52474D01*
X148689Y52849D01*
X148877Y53412D01*
Y53599D01*
X148689Y54161D01*
X148314Y54536D01*
X147752Y54724D01*
X147565D01*
X147002Y54536D01*
X146627Y54161D01*
X146440Y53412D01*
Y52474D01*
X146627Y51537D01*
X147002Y50975D01*
X147565Y50787D01*
X147940D01*
X148502Y50975D01*
X148689Y51350D01*
X136165Y30558D02*
X136352Y30933D01*
X136727Y31308D01*
X137102Y31495D01*
X137852D01*
X138227Y31308D01*
X138602Y30933D01*
X138789Y30558D01*
X138976Y29996D01*
Y29059D01*
X138789Y28496D01*
X138602Y28121D01*
X138227Y27746D01*
X137852Y27559D01*
X137102D01*
X136727Y27746D01*
X136352Y28121D01*
X136165Y28496D01*
X134871Y30558D02*
Y30746D01*
X134684Y31120D01*
X134497Y31308D01*
X134122Y31495D01*
X133372D01*
X132997Y31308D01*
X132810Y31120D01*
X132622Y30746D01*
Y30371D01*
X132810Y29996D01*
X133185Y29433D01*
X135059Y27559D01*
X132435D01*
X130617Y31495D02*
X131179Y31308D01*
X131367Y30933D01*
Y30558D01*
X131179Y30183D01*
X130804Y29996D01*
X130054Y29808D01*
X129492Y29621D01*
X129117Y29246D01*
X128930Y28871D01*
Y28309D01*
X129117Y27934D01*
X129305Y27746D01*
X129867Y27559D01*
X130617D01*
X131179Y27746D01*
X131367Y27934D01*
X131554Y28309D01*
Y28871D01*
X131367Y29246D01*
X130992Y29621D01*
X130429Y29808D01*
X129680Y29996D01*
X129305Y30183D01*
X129117Y30558D01*
Y30933D01*
X129305Y31308D01*
X129867Y31495D01*
X130617D01*
X153488Y9298D02*
X153675Y9673D01*
X154050Y10048D01*
X154425Y10235D01*
X155175D01*
X155550Y10048D01*
X155924Y9673D01*
X156112Y9298D01*
X156299Y8736D01*
Y7799D01*
X156112Y7236D01*
X155924Y6861D01*
X155550Y6487D01*
X155175Y6299D01*
X154425D01*
X154050Y6487D01*
X153675Y6861D01*
X153488Y7236D01*
X152194Y9298D02*
Y9486D01*
X152007Y9860D01*
X151820Y10048D01*
X151445Y10235D01*
X150695D01*
X150320Y10048D01*
X150133Y9860D01*
X149945Y9486D01*
Y9111D01*
X150133Y8736D01*
X150507Y8174D01*
X152382Y6299D01*
X149758D01*
X146253Y10235D02*
X148127Y6299D01*
X148877Y10235D02*
X146253D01*
X167661Y10086D02*
X167848Y10460D01*
X168223Y10835D01*
X168598Y11023D01*
X169348D01*
X169723Y10835D01*
X170098Y10460D01*
X170285Y10086D01*
X170472Y9523D01*
Y8586D01*
X170285Y8024D01*
X170098Y7649D01*
X169723Y7274D01*
X169348Y7087D01*
X168598D01*
X168223Y7274D01*
X167848Y7649D01*
X167661Y8024D01*
X166368Y10086D02*
Y10273D01*
X166180Y10648D01*
X165993Y10835D01*
X165618Y11023D01*
X164868D01*
X164493Y10835D01*
X164306Y10648D01*
X164118Y10273D01*
Y9898D01*
X164306Y9523D01*
X164681Y8961D01*
X166555Y7087D01*
X163931D01*
X160801Y10460D02*
X160988Y10835D01*
X161550Y11023D01*
X161925D01*
X162488Y10835D01*
X162863Y10273D01*
X163050Y9336D01*
Y8399D01*
X162863Y7649D01*
X162488Y7274D01*
X161925Y7087D01*
X161738D01*
X161176Y7274D01*
X160801Y7649D01*
X160613Y8211D01*
Y8399D01*
X160801Y8961D01*
X161176Y9336D01*
X161738Y9523D01*
X161925D01*
X162488Y9336D01*
X162863Y8961D01*
X163050Y8399D01*
X205063Y53393D02*
X205250Y53768D01*
X205625Y54142D01*
X206000Y54330D01*
X206749D01*
X207124Y54142D01*
X207499Y53768D01*
X207687Y53393D01*
X207874Y52830D01*
Y51893D01*
X207687Y51331D01*
X207499Y50956D01*
X207124Y50581D01*
X206749Y50394D01*
X206000D01*
X205625Y50581D01*
X205250Y50956D01*
X205063Y51331D01*
X203769Y53393D02*
Y53580D01*
X203582Y53955D01*
X203394Y54142D01*
X203019Y54330D01*
X202270D01*
X201895Y54142D01*
X201707Y53955D01*
X201520Y53580D01*
Y53205D01*
X201707Y52830D01*
X202082Y52268D01*
X203957Y50394D01*
X201332D01*
X198202Y54330D02*
X200077D01*
X200264Y52643D01*
X200077Y52830D01*
X199514Y53018D01*
X198952D01*
X198390Y52830D01*
X198015Y52456D01*
X197827Y51893D01*
Y51518D01*
X198015Y50956D01*
X198390Y50581D01*
X198952Y50394D01*
X199514D01*
X200077Y50581D01*
X200264Y50769D01*
X200451Y51143D01*
X198526Y31837D02*
X198714Y32212D01*
X199089Y32587D01*
X199463Y32774D01*
X200213D01*
X200588Y32587D01*
X200963Y32212D01*
X201150Y31837D01*
X201338Y31275D01*
Y30337D01*
X201150Y29775D01*
X200963Y29400D01*
X200588Y29025D01*
X200213Y28838D01*
X199463D01*
X199089Y29025D01*
X198714Y29400D01*
X198526Y29775D01*
X197233Y31837D02*
Y32024D01*
X197046Y32399D01*
X196858Y32587D01*
X196483Y32774D01*
X195733D01*
X195359Y32587D01*
X195171Y32399D01*
X194984Y32024D01*
Y31649D01*
X195171Y31275D01*
X195546Y30712D01*
X197420Y28838D01*
X194796D01*
X192041Y32774D02*
X193915Y30150D01*
X191104D01*
X192041Y32774D02*
Y28838D01*
X225926Y41337D02*
X226114Y41712D01*
X226489Y42086D01*
X226863Y42274D01*
X227613D01*
X227988Y42086D01*
X228363Y41712D01*
X228550Y41337D01*
X228738Y40775D01*
Y39837D01*
X228550Y39275D01*
X228363Y38900D01*
X227988Y38525D01*
X227613Y38338D01*
X226863D01*
X226489Y38525D01*
X226114Y38900D01*
X225926Y39275D01*
X224633Y41337D02*
Y41524D01*
X224446Y41899D01*
X224258Y42086D01*
X223883Y42274D01*
X223133D01*
X222759Y42086D01*
X222571Y41899D01*
X222384Y41524D01*
Y41149D01*
X222571Y40775D01*
X222946Y40212D01*
X224820Y38338D01*
X222196D01*
X220940Y42274D02*
X218879D01*
X220003Y40775D01*
X219441D01*
X219066Y40587D01*
X218879Y40400D01*
X218691Y39837D01*
Y39462D01*
X218879Y38900D01*
X219253Y38525D01*
X219816Y38338D01*
X220378D01*
X220940Y38525D01*
X221128Y38713D01*
X221315Y39088D01*
X108606Y43156D02*
X108793Y43531D01*
X109168Y43906D01*
X109543Y44094D01*
X110293D01*
X110668Y43906D01*
X111042Y43531D01*
X111230Y43156D01*
X111417Y42594D01*
Y41657D01*
X111230Y41095D01*
X111042Y40720D01*
X110668Y40345D01*
X110293Y40157D01*
X109543D01*
X109168Y40345D01*
X108793Y40720D01*
X108606Y41095D01*
X107500Y43344D02*
X107125Y43531D01*
X106563Y44094D01*
Y40157D01*
X102364Y44094D02*
X104238D01*
X104426Y42407D01*
X104238Y42594D01*
X103676Y42782D01*
X103114D01*
X102552Y42594D01*
X102177Y42219D01*
X101989Y41657D01*
Y41282D01*
X102177Y40720D01*
X102552Y40345D01*
X103114Y40157D01*
X103676D01*
X104238Y40345D01*
X104426Y40532D01*
X104613Y40907D01*
X177221Y20623D02*
X177034Y20248D01*
X176659Y19873D01*
X176284Y19686D01*
X175534D01*
X175159Y19873D01*
X174784Y20248D01*
X174597Y20623D01*
X174409Y21185D01*
Y22123D01*
X174597Y22685D01*
X174784Y23060D01*
X175159Y23435D01*
X175534Y23622D01*
X176284D01*
X176659Y23435D01*
X177034Y23060D01*
X177221Y22685D01*
X178327Y20436D02*
X178702Y20248D01*
X179264Y19686D01*
Y23622D01*
X181588Y19686D02*
X183650D01*
X182526Y21185D01*
X183088D01*
X183463Y21373D01*
X183650Y21560D01*
X183837Y22123D01*
Y22497D01*
X183650Y23060D01*
X183275Y23435D01*
X182713Y23622D01*
X182151D01*
X181588Y23435D01*
X181401Y23247D01*
X181213Y22872D01*
X129866Y48668D02*
X130053Y49043D01*
X130428Y49418D01*
X130803Y49606D01*
X131553D01*
X131927Y49418D01*
X132302Y49043D01*
X132490Y48668D01*
X132677Y48106D01*
Y47169D01*
X132490Y46606D01*
X132302Y46232D01*
X131927Y45857D01*
X131553Y45669D01*
X130803D01*
X130428Y45857D01*
X130053Y46232D01*
X129866Y46606D01*
X126323Y48293D02*
X126511Y47731D01*
X126885Y47356D01*
X127448Y47169D01*
X127635D01*
X128197Y47356D01*
X128572Y47731D01*
X128760Y48293D01*
Y48481D01*
X128572Y49043D01*
X128197Y49418D01*
X127635Y49606D01*
X127448D01*
X126885Y49418D01*
X126511Y49043D01*
X126323Y48293D01*
Y47356D01*
X126511Y46419D01*
X126885Y45857D01*
X127448Y45669D01*
X127823D01*
X128385Y45857D01*
X128572Y46232D01*
X132226Y16037D02*
X132414Y16412D01*
X132789Y16786D01*
X133163Y16974D01*
X133913D01*
X134288Y16786D01*
X134663Y16412D01*
X134850Y16037D01*
X135038Y15474D01*
Y14537D01*
X134850Y13975D01*
X134663Y13600D01*
X134288Y13225D01*
X133913Y13038D01*
X133163D01*
X132789Y13225D01*
X132414Y13600D01*
X132226Y13975D01*
X128871Y16412D02*
X129059Y16786D01*
X129621Y16974D01*
X129996D01*
X130558Y16786D01*
X130933Y16224D01*
X131120Y15287D01*
Y14350D01*
X130933Y13600D01*
X130558Y13225D01*
X129996Y13038D01*
X129808D01*
X129246Y13225D01*
X128871Y13600D01*
X128684Y14162D01*
Y14350D01*
X128871Y14912D01*
X129246Y15287D01*
X129808Y15474D01*
X129996D01*
X130558Y15287D01*
X130933Y14912D01*
X131120Y14350D01*
X41892Y128568D02*
X41705Y128193D01*
X41143Y127630D01*
X45079D01*
X42286Y20300D02*
X42099Y19925D01*
X41536Y19363D01*
X45472D01*
X42474Y17226D02*
X42286D01*
X41911Y17039D01*
X41724Y16851D01*
X41536Y16476D01*
Y15726D01*
X41724Y15352D01*
X41911Y15164D01*
X42286Y14977D01*
X42661D01*
X43036Y15164D01*
X43598Y15539D01*
X45472Y17413D01*
Y14789D01*
X113955Y31475D02*
X113768Y31100D01*
X113206Y30538D01*
X117142D01*
X114343Y22087D02*
X114155D01*
X113780Y21900D01*
X113593Y21712D01*
X113406Y21338D01*
Y20588D01*
X113593Y20213D01*
X113780Y20026D01*
X114155Y19838D01*
X114530D01*
X114905Y20026D01*
X115467Y20400D01*
X117342Y22275D01*
Y19651D01*
X113406Y12000D02*
Y9938D01*
X114905Y11063D01*
Y10500D01*
X115093Y10126D01*
X115280Y9938D01*
X115842Y9751D01*
X116217D01*
X116779Y9938D01*
X117154Y10313D01*
X117342Y10875D01*
Y11438D01*
X117154Y12000D01*
X116967Y12187D01*
X116592Y12375D01*
X86006Y6000D02*
X88630Y7875D01*
Y5063D01*
X86006Y6000D02*
X89942D01*
M02*
