%FSLAX25Y25*%
%MOIN*%
G70*
G01*
G75*
G04 Layer_Physical_Order=1*
G04 Layer_Color=255*
%ADD10R,0.07087X0.14173*%
%ADD11R,0.03937X0.04724*%
%ADD12R,0.06299X0.13780*%
%ADD13O,0.07874X0.02400*%
%ADD14O,0.07874X0.02402*%
%ADD15R,0.03465X0.05000*%
%ADD16R,0.05512X0.04724*%
%ADD17R,0.04724X0.03937*%
%ADD18R,0.05118X0.07480*%
%ADD19R,0.04724X0.03150*%
%ADD20R,0.08268X0.07874*%
%ADD21R,0.03150X0.03150*%
%ADD22R,0.06299X0.03937*%
%ADD23R,0.20079X0.18898*%
%ADD24R,0.11811X0.03937*%
%ADD25R,0.01575X0.07874*%
%ADD26R,0.03937X0.01575*%
%ADD27O,0.10000X0.02400*%
%ADD28O,0.10000X0.02402*%
%ADD29R,0.12205X0.06102*%
%ADD30C,0.02000*%
%ADD31C,0.02500*%
%ADD32C,0.03000*%
%ADD33C,0.02362*%
%ADD34C,0.05000*%
%ADD35C,0.03500*%
%ADD36C,0.02200*%
%ADD37C,0.01000*%
%ADD38C,0.04000*%
%ADD39C,0.07000*%
%ADD40C,0.02400*%
%ADD41C,0.06000*%
%ADD42C,0.04500*%
%ADD43C,0.05906*%
%ADD44R,0.05906X0.05906*%
%ADD45C,0.19685*%
%ADD46C,0.07874*%
%ADD47R,0.07874X0.07874*%
%ADD48C,0.00787*%
%ADD49C,0.07480*%
%ADD50R,0.07480X0.07480*%
%ADD51C,0.03543*%
G36*
X213386Y26772D02*
Y22047D01*
X214567Y20866D01*
Y13780D01*
X214961Y13386D01*
Y13268D01*
X215079D01*
X217717Y10630D01*
X296850D01*
Y6299D01*
X294488Y3937D01*
X198819D01*
X196850Y5906D01*
Y26378D01*
X198819Y28346D01*
X211811D01*
X213386Y26772D01*
D02*
G37*
G36*
X460630Y134252D02*
Y108661D01*
X469291Y100000D01*
X495276D01*
X498819Y96457D01*
Y47244D01*
X494882Y43307D01*
X468504D01*
X464567Y39370D01*
Y9843D01*
X460630Y5906D01*
X417323D01*
X411417Y11811D01*
Y19685D01*
X408268Y22835D01*
X364567D01*
X359842Y27559D01*
Y49213D01*
X353150Y55905D01*
X277953D01*
X251479Y82356D01*
X204331Y82284D01*
X200787Y85827D01*
Y95276D01*
X197709Y98354D01*
X197998Y98787D01*
X198169Y99646D01*
X198054Y100224D01*
X198371Y100611D01*
X256229D01*
X261936Y106332D01*
X262386Y106146D01*
Y106146D01*
X262386Y106146D01*
X268041D01*
Y109114D01*
Y112083D01*
X265693D01*
X265340Y112437D01*
X265354Y118898D01*
X266929Y120472D01*
X279709D01*
Y116126D01*
X282215D01*
Y119488D01*
X284715D01*
Y116126D01*
X287221D01*
Y120457D01*
X290876D01*
Y123425D01*
X293376D01*
Y120457D01*
X296850D01*
Y120472D01*
X315354D01*
X319685Y124803D01*
Y133465D01*
X324803Y138583D01*
X388904D01*
X389072Y138112D01*
X388824Y137908D01*
X387717Y136559D01*
X386894Y135020D01*
X386388Y133351D01*
X386217Y131614D01*
X386388Y129878D01*
X386894Y128208D01*
X387717Y126669D01*
X388824Y125320D01*
X390173Y124213D01*
X391712Y123391D01*
X393382Y122884D01*
X395118Y122713D01*
X396855Y122884D01*
X398524Y123391D01*
X400063Y124213D01*
X401412Y125320D01*
X402519Y126669D01*
X403342Y128208D01*
X403848Y129878D01*
X404019Y131614D01*
X403848Y133351D01*
X403342Y135020D01*
X402519Y136559D01*
X401412Y137908D01*
X401164Y138112D01*
X401332Y138583D01*
X456299D01*
X460630Y134252D01*
D02*
G37*
G36*
X224803Y137402D02*
X242913D01*
X247244Y133071D01*
Y129528D01*
X246276Y128559D01*
X244488D01*
Y131496D01*
X242520Y133465D01*
X230134D01*
Y135449D01*
X227272D01*
Y132480D01*
X226272D01*
Y135449D01*
X223410D01*
Y133465D01*
X213205D01*
Y135646D01*
X210343D01*
Y132677D01*
X209343D01*
Y135646D01*
X206480D01*
Y133465D01*
X198819D01*
X198138Y134146D01*
X192126D01*
Y135146D01*
X198138D01*
X201181Y138189D01*
X212598D01*
X214961Y140551D01*
X221654D01*
X224803Y137402D01*
D02*
G37*
G36*
X62992Y140157D02*
Y116535D01*
X63779Y115748D01*
X84630D01*
Y115030D01*
X87362D01*
Y112530D01*
X84630D01*
Y110280D01*
X88268D01*
Y108917D01*
X88630D01*
X88989Y108052D01*
X89608Y107246D01*
X91537Y105316D01*
X91537Y105316D01*
X92344Y104697D01*
X93283Y104308D01*
X94291Y104175D01*
X94291Y104175D01*
X116929D01*
Y103347D01*
X126184D01*
X126772Y102759D01*
Y65795D01*
X128015Y64567D01*
X129685D01*
X130342Y64028D01*
X131436Y63443D01*
X132623Y63083D01*
X133858Y62962D01*
X135093Y63083D01*
X136281Y63443D01*
X137375Y64028D01*
X138334Y64816D01*
X139121Y65775D01*
X139706Y66869D01*
X140066Y68056D01*
X140188Y69291D01*
X140066Y70526D01*
X139706Y71714D01*
X139121Y72808D01*
X138334Y73767D01*
X137754Y74243D01*
Y100174D01*
X138375Y100787D01*
X145365D01*
X145682Y100401D01*
X145532Y99646D01*
X145702Y98787D01*
X146189Y98060D01*
X146916Y97573D01*
X147775Y97403D01*
X150325D01*
Y99646D01*
X152825D01*
Y97403D01*
X155375D01*
X156233Y97573D01*
X156961Y98060D01*
X157447Y98787D01*
X157618Y99646D01*
X157468Y100401D01*
X157785Y100787D01*
X159843D01*
Y93701D01*
X194095Y59449D01*
X237008D01*
X262992Y33465D01*
X284118D01*
Y30817D01*
X294386D01*
Y33465D01*
X313386D01*
X320472Y26378D01*
Y5512D01*
X318101Y3150D01*
X312811D01*
Y4262D01*
X310236D01*
Y6762D01*
X312811D01*
Y7087D01*
X314173D01*
Y11312D01*
X314187Y11417D01*
X314173Y11522D01*
Y13583D01*
X314764D01*
Y22244D01*
X313402D01*
Y22425D01*
X313402D01*
Y24144D01*
X306677D01*
Y23622D01*
X301706D01*
X301181Y23691D01*
X295748D01*
Y25866D01*
X294386D01*
Y28317D01*
X284118D01*
Y25866D01*
X282756D01*
Y17402D01*
X278393Y13038D01*
X245514D01*
X241975Y16535D01*
X231496D01*
X229921Y18110D01*
Y33858D01*
X227953Y35827D01*
X227953D01*
Y35866D01*
X214961D01*
Y35827D01*
X212992D01*
X211417Y34252D01*
Y32283D01*
X209889Y30755D01*
X196109D01*
X192520Y27165D01*
Y6254D01*
X187402Y1181D01*
X4724D01*
X787Y5118D01*
Y138926D01*
X4331Y142520D01*
X60630D01*
X62992Y140157D01*
D02*
G37*
%LPC*%
G36*
X206906Y38120D02*
X204006D01*
Y31480D01*
X206906D01*
Y38120D01*
D02*
G37*
G36*
X201506Y47260D02*
X198606D01*
Y40620D01*
X201506D01*
Y47260D01*
D02*
G37*
G36*
Y38120D02*
X198606D01*
Y31480D01*
X201506D01*
Y38120D01*
D02*
G37*
G36*
X308789Y28362D02*
X306677D01*
Y26644D01*
X308789D01*
Y28362D01*
D02*
G37*
G36*
X313402D02*
X311289D01*
Y26644D01*
X313402D01*
Y28362D01*
D02*
G37*
G36*
X427884Y63314D02*
X426743Y62841D01*
X425753Y62081D01*
X424993Y61091D01*
X424521Y59951D01*
X427884D01*
Y63314D01*
D02*
G37*
G36*
X430384D02*
Y59951D01*
X433747D01*
X433274Y61091D01*
X432515Y62081D01*
X431524Y62841D01*
X430384Y63314D01*
D02*
G37*
G36*
X119509Y59262D02*
X110413D01*
X110413Y59262D01*
Y56762D01*
X119508D01*
X119509Y56762D01*
Y59262D01*
D02*
G37*
G36*
X206906Y47260D02*
X204006D01*
Y40620D01*
X206906D01*
Y47260D01*
D02*
G37*
G36*
X72569Y54655D02*
X70850D01*
Y52543D01*
X72569D01*
Y54655D01*
D02*
G37*
G36*
X131315Y14892D02*
X128415D01*
Y8252D01*
X131315D01*
Y14892D01*
D02*
G37*
G36*
X201506Y16860D02*
X198606D01*
Y10221D01*
X201506D01*
Y16860D01*
D02*
G37*
G36*
X125915Y14892D02*
X123016D01*
Y8252D01*
X125915D01*
Y14892D01*
D02*
G37*
G36*
X94419Y14104D02*
X91520D01*
Y7465D01*
X94419D01*
Y14104D01*
D02*
G37*
G36*
X99819D02*
X96919D01*
Y7465D01*
X99819D01*
Y14104D01*
D02*
G37*
G36*
X206906Y26000D02*
X204006D01*
Y19360D01*
X206906D01*
Y26000D01*
D02*
G37*
G36*
X43701Y59298D02*
X42313Y59115D01*
X41020Y58580D01*
X39910Y57728D01*
X39058Y56617D01*
X38523Y55325D01*
X38340Y53937D01*
X38523Y52549D01*
X39058Y51257D01*
X39910Y50146D01*
Y49854D01*
X39058Y48743D01*
X38523Y47451D01*
X38340Y46063D01*
X38523Y44675D01*
X39058Y43383D01*
X39910Y42272D01*
Y41980D01*
X39058Y40869D01*
X38523Y39577D01*
X38340Y38189D01*
X38523Y36801D01*
X39058Y35509D01*
X39910Y34398D01*
Y34106D01*
X39058Y32995D01*
X38523Y31702D01*
X38340Y30315D01*
X38523Y28927D01*
X39058Y27635D01*
X39910Y26524D01*
X41020Y25672D01*
X42313Y25137D01*
X43701Y24954D01*
X45088Y25137D01*
X46381Y25672D01*
X47491Y26524D01*
X48343Y27635D01*
X48879Y28927D01*
X49062Y30315D01*
X48879Y31702D01*
X48343Y32995D01*
X47491Y34106D01*
Y34398D01*
X48343Y35509D01*
X48879Y36801D01*
X49062Y38189D01*
X48879Y39577D01*
X48343Y40869D01*
X47491Y41980D01*
Y42272D01*
X48343Y43383D01*
X48879Y44675D01*
X49062Y46063D01*
X48879Y47451D01*
X48343Y48743D01*
X47491Y49854D01*
Y50146D01*
X48343Y51257D01*
X48879Y52549D01*
X49062Y53937D01*
X48879Y55325D01*
X48343Y56617D01*
X47491Y57728D01*
X46381Y58580D01*
X45088Y59115D01*
X43701Y59298D01*
D02*
G37*
G36*
X201506Y26000D02*
X198606D01*
Y19360D01*
X201506D01*
Y26000D01*
D02*
G37*
G36*
X206906Y16860D02*
X204006D01*
Y10221D01*
X206906D01*
Y16860D01*
D02*
G37*
G36*
X183071Y38815D02*
X181992Y38673D01*
X180986Y38257D01*
X180123Y37594D01*
X179460Y36730D01*
X179043Y35725D01*
X178901Y34646D01*
X178923Y34480D01*
Y32820D01*
X177599Y31496D01*
X171654D01*
Y12598D01*
X183465D01*
Y25630D01*
X185610Y27776D01*
X185781Y27999D01*
X186004Y28170D01*
X186663Y29028D01*
X187077Y30029D01*
X187219Y31102D01*
Y34480D01*
X187240Y34646D01*
X187098Y35725D01*
X186682Y36730D01*
X186019Y37594D01*
X185156Y38257D01*
X184150Y38673D01*
X183071Y38815D01*
D02*
G37*
G36*
X119508Y64262D02*
X110413D01*
Y61762D01*
X110413Y61762D01*
X119509D01*
Y64262D01*
X119508Y64262D01*
D02*
G37*
G36*
X43701Y114416D02*
X42313Y114233D01*
X41020Y113698D01*
X39910Y112846D01*
X39058Y111735D01*
X38523Y110443D01*
X38340Y109055D01*
X38523Y107668D01*
X39058Y106375D01*
X39910Y105264D01*
X41020Y104412D01*
X42313Y103877D01*
X43701Y103694D01*
X45088Y103877D01*
X46381Y104412D01*
X47491Y105264D01*
X48343Y106375D01*
X48584Y106956D01*
X67126D01*
Y104331D01*
Y102756D01*
Y101611D01*
X66750Y101282D01*
X65748Y101414D01*
X64669Y101271D01*
X63663Y100855D01*
X62800Y100192D01*
X62137Y99329D01*
X61721Y98323D01*
X61579Y97244D01*
X61721Y96165D01*
X62137Y95159D01*
X62800Y94296D01*
X63663Y93633D01*
X64669Y93217D01*
X65748Y93075D01*
X66827Y93217D01*
X67095Y93328D01*
X67126Y93307D01*
Y93307D01*
X83268D01*
D01*
X83268D01*
X83268Y93307D01*
Y89376D01*
X80899Y87008D01*
X69504D01*
Y87923D01*
X59073D01*
X51648Y95349D01*
X51050Y95807D01*
X50557Y96011D01*
X50353Y96096D01*
X49606Y96194D01*
X48185D01*
X47491Y97098D01*
X46381Y97950D01*
X45088Y98485D01*
X43701Y98668D01*
X42313Y98485D01*
X41020Y97950D01*
X39910Y97098D01*
X39058Y95987D01*
X38523Y94695D01*
X38340Y93307D01*
X38523Y91920D01*
X39058Y90627D01*
X39910Y89517D01*
Y89224D01*
X39058Y88113D01*
X38523Y86821D01*
X38340Y85433D01*
X38523Y84046D01*
X39058Y82753D01*
X39910Y81642D01*
Y81350D01*
X39058Y80239D01*
X38523Y78947D01*
X38340Y77559D01*
X38523Y76172D01*
X39058Y74879D01*
X39910Y73768D01*
Y73476D01*
X39058Y72365D01*
X38523Y71073D01*
X38340Y69685D01*
X38523Y68298D01*
X39058Y67005D01*
X39910Y65894D01*
X41020Y65042D01*
X42313Y64507D01*
X43701Y64324D01*
X45088Y64507D01*
X46381Y65042D01*
X47491Y65894D01*
X48343Y67005D01*
X48879Y68298D01*
X49062Y69685D01*
X48879Y71073D01*
X48343Y72365D01*
X47491Y73476D01*
Y73768D01*
X48343Y74879D01*
X48879Y76172D01*
X49062Y77559D01*
X48879Y78947D01*
X48343Y80239D01*
X47491Y81350D01*
Y81642D01*
X48343Y82753D01*
X48879Y84046D01*
X49062Y85433D01*
X48879Y86821D01*
X48343Y88113D01*
X47491Y89224D01*
Y89517D01*
X48052Y90247D01*
X48551Y90280D01*
X59179Y79652D01*
X59179Y79652D01*
X59777Y79193D01*
X60473Y78904D01*
X61221Y78806D01*
D01*
X61221Y78806D01*
D01*
X61417Y78609D01*
Y77362D01*
X69488D01*
Y77165D01*
X69488D01*
Y73364D01*
X68998Y73266D01*
X68965Y73345D01*
X68303Y74208D01*
X67439Y74871D01*
X66434Y75287D01*
X65354Y75429D01*
X64275Y75287D01*
X63270Y74871D01*
X62406Y74208D01*
X61743Y73345D01*
X61327Y72339D01*
X61185Y71260D01*
X61327Y70181D01*
X61743Y69175D01*
X62406Y68312D01*
X62467Y68264D01*
Y65748D01*
X62566Y65001D01*
X62650Y64797D01*
X62854Y64305D01*
X63313Y63707D01*
X64888Y62132D01*
X64888Y62132D01*
X65486Y61673D01*
X65978Y61469D01*
X66182Y61385D01*
X66929Y61286D01*
X69488D01*
Y59449D01*
X70850D01*
Y59268D01*
X70850D01*
Y57156D01*
X73819D01*
Y55905D01*
X75069D01*
Y52543D01*
Y50606D01*
X76968D01*
X76968Y50606D01*
X76968Y50606D01*
X76968Y50606D01*
Y42520D01*
Y37158D01*
X77907Y36220D01*
Y27885D01*
X77910Y27869D01*
X77907Y27852D01*
X77907Y27845D01*
X77956Y27614D01*
X77959Y27377D01*
X78001Y27181D01*
X78086Y26985D01*
X78090Y26963D01*
X78094Y26957D01*
X78132Y26760D01*
X78140Y26748D01*
X78144Y26733D01*
X78148Y26722D01*
X78283Y26526D01*
X78372Y26318D01*
X78520Y26174D01*
X78651Y25976D01*
X80170Y24443D01*
X80359Y24316D01*
X80366Y24305D01*
X80372Y24300D01*
X80406Y24278D01*
X80571Y24118D01*
X80735Y24011D01*
X80920Y23938D01*
X80949Y23918D01*
X80958Y23916D01*
X81129Y23801D01*
X81146Y23798D01*
X81160Y23789D01*
X81391Y23746D01*
X81589Y23664D01*
X81801Y23622D01*
X81954D01*
X82100Y23582D01*
X82186Y23593D01*
X82271Y23576D01*
X91520D01*
Y23576D01*
Y23244D01*
X91520Y23222D01*
X91520Y23222D01*
X91520D01*
Y16604D01*
X99819D01*
Y23222D01*
X99819Y23222D01*
D01*
D01*
X99819Y23244D01*
D01*
X100151Y23576D01*
X102539D01*
X102756Y23619D01*
X102768Y23617D01*
X102782Y23617D01*
X102827Y23627D01*
X103051Y23631D01*
X103238Y23672D01*
X103420Y23751D01*
X103460Y23759D01*
X103463Y23761D01*
X103660Y23800D01*
X103679Y23812D01*
X103700Y23817D01*
X103866Y23932D01*
X103869Y23933D01*
X103902Y23956D01*
X104086Y24032D01*
X104245Y24138D01*
X104250Y24144D01*
X112171D01*
X112303Y24117D01*
X112522Y24074D01*
X112576D01*
X112576Y24074D01*
X112610Y24067D01*
X112610D01*
X112612Y24067D01*
X112612Y24067D01*
X112612Y24067D01*
X112612D01*
X112644Y24059D01*
X112644D01*
X112645Y24059D01*
X112779Y24029D01*
X112984Y24024D01*
X113046Y24009D01*
X113069Y24009D01*
X113069Y24009D01*
X113069Y24009D01*
X113079Y24009D01*
X113095Y24012D01*
X113110Y24009D01*
X113112Y24009D01*
X113311Y23969D01*
X120646D01*
X123016Y21586D01*
Y17392D01*
X131315D01*
Y23969D01*
X143307D01*
Y12598D01*
X155118D01*
Y29901D01*
X155164Y30134D01*
Y30371D01*
X155164Y30371D01*
Y44329D01*
Y44566D01*
X155118Y44799D01*
X155118Y45036D01*
X155087Y45110D01*
X155085Y45161D01*
X155085Y45162D01*
X155018Y45304D01*
X154981Y45488D01*
X154973Y45499D01*
D01*
X154897Y45683D01*
X154897Y45683D01*
X154897Y45683D01*
X154822Y45867D01*
X154822Y45867D01*
X154820Y45880D01*
X154689Y46078D01*
X154600Y46298D01*
X154595Y46302D01*
X154593Y46308D01*
X154593Y46308D01*
X154430Y46472D01*
X154302Y46665D01*
X153065Y47917D01*
X153065D01*
Y47917D01*
X152781Y48204D01*
X152781Y48204D01*
X152781Y48204D01*
X152774Y48211D01*
X152769Y48215D01*
X152768Y48215D01*
X152767Y48216D01*
X152767Y48217D01*
X152608Y48377D01*
X152417Y48506D01*
X152411Y48513D01*
X152405Y48516D01*
X152402Y48518D01*
X152235Y48685D01*
X152021Y48774D01*
X151830Y48904D01*
X151814Y48907D01*
X151809Y48910D01*
X151625Y48987D01*
X151442Y49064D01*
X151434Y49065D01*
X151420Y49074D01*
X151196Y49119D01*
X150985Y49208D01*
X150957Y49208D01*
X150931Y49218D01*
X150930Y49219D01*
X150719Y49215D01*
X150716Y49216D01*
X150716Y49216D01*
X150706Y49216D01*
X150499Y49257D01*
X150273Y49257D01*
X150266Y49259D01*
X150266D01*
X150265Y49259D01*
X126145D01*
X126097Y49249D01*
X126049Y49259D01*
X126032D01*
X125920Y49248D01*
X125870Y49244D01*
D01*
X125855Y49259D01*
X122835D01*
X122835Y49259D01*
X122834Y49259D01*
X122747Y49259D01*
X122687Y49275D01*
X122568Y49334D01*
X122529Y49344D01*
X122497Y49369D01*
X122488Y49373D01*
X122420Y49391D01*
X122304Y49469D01*
X122148Y49500D01*
X122006Y49570D01*
X121692Y49591D01*
X121633Y49603D01*
X121580Y49617D01*
X121569Y49615D01*
X121382Y49653D01*
X111816D01*
X111816Y49653D01*
X111816Y49653D01*
X111709Y49697D01*
X110630Y49839D01*
X109551Y49697D01*
X109444Y49653D01*
X109444Y49653D01*
X109444Y49653D01*
X109444Y49653D01*
X105033Y54063D01*
Y58224D01*
X105033Y58224D01*
Y76690D01*
X105707Y77364D01*
X105707Y77364D01*
X105857Y77559D01*
X107283D01*
Y78921D01*
X107283D01*
X107465D01*
X107637Y78921D01*
X107637Y78921D01*
Y78921D01*
X109183D01*
Y82284D01*
Y85646D01*
X107637D01*
X107637Y85646D01*
Y85646D01*
X107465Y85646D01*
X107283Y85827D01*
Y87008D01*
X108090Y87814D01*
Y89544D01*
Y89544D01*
X108365Y89658D01*
X109172Y90277D01*
X109640Y90745D01*
X109959Y90877D01*
X110822Y91540D01*
X111485Y92403D01*
X111901Y93409D01*
X112043Y94488D01*
X111901Y95567D01*
X111485Y96573D01*
X110822Y97436D01*
X109959Y98099D01*
X108953Y98516D01*
X107874Y98658D01*
X106795Y98516D01*
X105789Y98099D01*
X105522Y97894D01*
X90673D01*
X90638Y98161D01*
X90299Y98979D01*
X89760Y99681D01*
X87831Y101611D01*
X87129Y102149D01*
X86550Y102389D01*
X86311Y102488D01*
X85433Y102604D01*
X83268D01*
Y102756D01*
X76772D01*
X76772Y102756D01*
X76772Y102756D01*
X76772Y102756D01*
X75787Y103740D01*
Y104331D01*
Y113779D01*
X47653D01*
X47654Y113779D01*
Y113287D01*
X47205Y113066D01*
X46381Y113698D01*
X45088Y114233D01*
X43701Y114416D01*
D02*
G37*
G36*
X226590Y94504D02*
X222707D01*
Y90817D01*
X226590D01*
Y94504D01*
D02*
G37*
G36*
X433747Y125364D02*
X424521D01*
X424993Y124224D01*
X425753Y123233D01*
X426545Y122626D01*
X426504Y122128D01*
X425727Y121713D01*
X424798Y120950D01*
X424035Y120021D01*
X423469Y118961D01*
X423120Y117810D01*
X423002Y116614D01*
X423120Y115418D01*
X423137Y115362D01*
X422839Y114961D01*
X419291D01*
X416142Y111811D01*
Y106299D01*
X412992Y103150D01*
X325590D01*
X319685Y109055D01*
Y111811D01*
X318110Y113386D01*
X302756D01*
X301181Y111811D01*
Y104937D01*
X301000D01*
Y104937D01*
X299675D01*
Y102362D01*
X297175D01*
Y104937D01*
X295850D01*
Y101969D01*
X287795D01*
X279528Y93701D01*
Y81890D01*
X287402Y74016D01*
X301181D01*
Y73819D01*
X312205D01*
Y74016D01*
X318898D01*
X322441Y77559D01*
Y84252D01*
X325984Y87795D01*
X374410D01*
X382283Y79921D01*
Y62598D01*
X390945Y53937D01*
X400787D01*
X409842Y62992D01*
Y66535D01*
X411811Y68504D01*
X433465D01*
X435433Y66535D01*
Y57087D01*
X434082D01*
X433763Y57451D01*
X424521D01*
X424571Y57329D01*
X424409Y57087D01*
X424409D01*
Y52563D01*
X424035Y52108D01*
X423469Y51047D01*
X423120Y49897D01*
X423002Y48701D01*
X423120Y47504D01*
X423469Y46354D01*
X424035Y45294D01*
X424409Y44838D01*
Y42563D01*
X424035Y42107D01*
X423469Y41047D01*
X423120Y39897D01*
X423002Y38701D01*
X423120Y37505D01*
X423469Y36354D01*
X424035Y35294D01*
X424409Y34838D01*
Y29951D01*
X429134D01*
Y27451D01*
X424409D01*
Y26378D01*
X420866Y22835D01*
Y14567D01*
X423228Y12205D01*
X446457D01*
X459842Y25591D01*
Y37795D01*
Y50394D01*
X458268Y51968D01*
Y56379D01*
X458353Y56585D01*
X458358Y56624D01*
X453543D01*
Y59124D01*
X458358D01*
X458353Y59163D01*
X458268Y59369D01*
Y67481D01*
X458806Y68137D01*
X459391Y69231D01*
X459751Y70419D01*
X459873Y71653D01*
X459751Y72888D01*
X459391Y74076D01*
X458806Y75170D01*
X458268Y75826D01*
Y81260D01*
X458806Y81916D01*
X459391Y83011D01*
X459751Y84198D01*
X459873Y85433D01*
X459751Y86668D01*
X459391Y87855D01*
X458806Y88950D01*
X458268Y89606D01*
Y92126D01*
X457480Y92913D01*
X452362D01*
Y94009D01*
X452738Y94339D01*
X453543Y94233D01*
X454832Y94403D01*
X456033Y94900D01*
X457064Y95692D01*
X457856Y96723D01*
X458353Y97924D01*
X458358Y97963D01*
X453543D01*
Y100463D01*
X458358D01*
X458353Y100501D01*
X457856Y101702D01*
X457064Y102734D01*
X456033Y103525D01*
X454832Y104023D01*
X453543Y104192D01*
X452738Y104086D01*
X452362Y104416D01*
Y108268D01*
X443307Y117323D01*
X435196D01*
X435148Y117810D01*
X434799Y118961D01*
X434232Y120021D01*
X433470Y120950D01*
X432541Y121713D01*
X431764Y122128D01*
X431723Y122626D01*
X432515Y123233D01*
X433274Y124224D01*
X433747Y125364D01*
D02*
G37*
G36*
X276197Y107864D02*
X270541D01*
Y106146D01*
X276197D01*
Y107864D01*
D02*
G37*
G36*
X113402Y85646D02*
X111683D01*
Y83534D01*
X113402D01*
Y85646D01*
D02*
G37*
G36*
X220207Y88317D02*
X216323D01*
Y84630D01*
X220207D01*
Y88317D01*
D02*
G37*
G36*
X226590D02*
X222707D01*
Y84630D01*
X226590D01*
Y88317D01*
D02*
G37*
G36*
X64892Y92142D02*
X62779D01*
Y90423D01*
X64892D01*
Y92142D01*
D02*
G37*
G36*
X220207Y94504D02*
X216323D01*
Y90817D01*
X220207D01*
Y94504D01*
D02*
G37*
G36*
X69504Y92142D02*
X67392D01*
Y90423D01*
X69504D01*
Y92142D01*
D02*
G37*
G36*
X171978Y74106D02*
X171940Y74101D01*
X170738Y73604D01*
X169707Y72812D01*
X168916Y71781D01*
X168418Y70580D01*
X168413Y70541D01*
X171978D01*
Y74106D01*
D02*
G37*
G36*
X174478D02*
Y70541D01*
X178043D01*
X178038Y70580D01*
X177541Y71781D01*
X176750Y72812D01*
X175718Y73604D01*
X174517Y74101D01*
X174478Y74106D01*
D02*
G37*
G36*
X119508Y69262D02*
X110413D01*
Y66762D01*
X119508D01*
Y69262D01*
D02*
G37*
G36*
X171978Y68041D02*
X168413D01*
X168418Y68002D01*
X168916Y66802D01*
X169707Y65770D01*
X170738Y64979D01*
X171940Y64481D01*
X171978Y64476D01*
Y68041D01*
D02*
G37*
G36*
X178043D02*
X174478D01*
Y64476D01*
X174517Y64481D01*
X175718Y64979D01*
X176750Y65770D01*
X177541Y66802D01*
X178038Y68002D01*
X178043Y68041D01*
D02*
G37*
G36*
X427884Y131227D02*
X426743Y130755D01*
X425753Y129995D01*
X424993Y129005D01*
X424521Y127864D01*
X427884D01*
Y131227D01*
D02*
G37*
G36*
X276197Y112083D02*
X270541D01*
Y110364D01*
X276197D01*
Y112083D01*
D02*
G37*
G36*
X430384Y131227D02*
Y127864D01*
X433747D01*
X433274Y129005D01*
X432515Y129995D01*
X431524Y130755D01*
X430384Y131227D01*
D02*
G37*
G36*
X113402Y81033D02*
X111683D01*
Y78921D01*
X113402D01*
Y81033D01*
D02*
G37*
%LPD*%
G36*
X311486Y102248D02*
X316142D01*
Y100707D01*
X319291Y97467D01*
X319685Y97062D01*
Y92520D01*
X313779Y86614D01*
Y81821D01*
X299213D01*
Y83693D01*
X298031Y84908D01*
X297638Y85313D01*
X294386D01*
Y88317D01*
X289252D01*
Y90817D01*
X294386D01*
Y93010D01*
X301969D01*
X304331Y95441D01*
Y102248D01*
X308986D01*
Y106299D01*
X311486D01*
Y102248D01*
D02*
G37*
G36*
X121422Y47214D02*
X121431Y47209D01*
X121470Y47199D01*
X121503Y47174D01*
X121622Y47115D01*
X121694Y47096D01*
X121787Y47034D01*
X121942Y47003D01*
X122085Y46933D01*
X122373Y46913D01*
X122530Y46872D01*
X122573Y46877D01*
X122708Y46850D01*
X122835Y46850D01*
X122835Y46850D01*
X125794D01*
X125870Y46835D01*
X125981Y46857D01*
X126014Y46854D01*
X126032Y46850D01*
X126049D01*
X126094Y46846D01*
X126145Y46850D01*
X150265D01*
X150265D01*
X150266Y46850D01*
X150266D01*
X150266Y46850D01*
X150274Y46849D01*
X150499Y46849D01*
X150500Y46849D01*
X150507Y46844D01*
X150690Y46767D01*
X150697Y46766D01*
X150703Y46762D01*
X150827Y46710D01*
X152590Y44967D01*
X152592Y44958D01*
X152667Y44774D01*
X152671Y44769D01*
X152672Y44761D01*
X152748Y44577D01*
X152748Y44577D01*
X152748Y44577D01*
Y44577D01*
X152756Y44561D01*
Y44329D01*
X152756Y44329D01*
Y30371D01*
X152756Y30371D01*
Y30134D01*
X150463D01*
Y22047D01*
X147963D01*
Y30134D01*
X144669D01*
Y26378D01*
X113311D01*
X113311D01*
X113176Y26408D01*
X113142Y26416D01*
X113142D01*
X113142Y26416D01*
X113132Y26417D01*
X113132D01*
X113132D01*
X113110Y26417D01*
X113080Y26429D01*
X113046Y26436D01*
X112991D01*
X112773Y26480D01*
X112408Y26552D01*
X112408D01*
X112408Y26552D01*
X112408Y26552D01*
X111128D01*
X107133Y30272D01*
Y46807D01*
X107123Y46858D01*
X107440Y47244D01*
X109444D01*
X109444Y47244D01*
X109444Y47244D01*
X111816D01*
X111816Y47244D01*
X111816Y47244D01*
X121382D01*
X121422Y47214D01*
D02*
G37*
G36*
X104724Y46807D02*
Y30272D01*
Y28026D01*
X102907Y26141D01*
X102748Y26035D01*
X102740Y26026D01*
X102737Y26025D01*
X102727Y26025D01*
X102725Y26025D01*
X102539Y25984D01*
X102533Y25984D01*
X82271D01*
X82271Y25984D01*
X82059Y26026D01*
X82051D01*
D01*
X82046Y26032D01*
X82046Y26032D01*
X82046Y26032D01*
X81881Y26139D01*
X80366Y27667D01*
X80362Y27671D01*
X80362Y27672D01*
X80357Y27683D01*
X80315Y27879D01*
X80315Y27885D01*
Y36220D01*
Y36600D01*
X83465Y39764D01*
X87795D01*
X89370Y41339D01*
Y46063D01*
X91339Y48031D01*
X103543D01*
X104724Y46807D01*
D02*
G37*
%LPC*%
G36*
X94419Y44504D02*
X91520D01*
Y37864D01*
X94419D01*
Y44504D01*
D02*
G37*
G36*
X131315Y36152D02*
X128415D01*
Y29512D01*
X131315D01*
Y36152D01*
D02*
G37*
G36*
X99819Y44504D02*
X96919D01*
Y37864D01*
X99819D01*
Y44504D01*
D02*
G37*
G36*
X131315Y45291D02*
X128415D01*
Y38652D01*
X131315D01*
Y45291D01*
D02*
G37*
G36*
X125915D02*
X123016D01*
Y38652D01*
X125915D01*
Y45291D01*
D02*
G37*
G36*
X305443Y90961D02*
X302543D01*
Y84321D01*
X305443D01*
Y90961D01*
D02*
G37*
G36*
X310842D02*
X307943D01*
Y84321D01*
X310842D01*
Y90961D01*
D02*
G37*
G36*
X94419Y35364D02*
X91520D01*
Y28724D01*
X94419D01*
Y35364D01*
D02*
G37*
G36*
X125915Y36152D02*
X123016D01*
Y29512D01*
X125915D01*
Y36152D01*
D02*
G37*
G36*
X99819Y35364D02*
X96919D01*
Y28724D01*
X99819D01*
Y35364D01*
D02*
G37*
%LPD*%
D10*
X177559Y22047D02*
D03*
X149213D02*
D03*
D11*
X81299Y82284D02*
D03*
X73819D02*
D03*
X88386Y82284D02*
D03*
X95866D02*
D03*
X102953D02*
D03*
X110433D02*
D03*
X73819Y64173D02*
D03*
X81299D02*
D03*
X78937Y98032D02*
D03*
X71457D02*
D03*
Y109055D02*
D03*
X78937D02*
D03*
X81299Y47244D02*
D03*
X73819D02*
D03*
X81299Y55905D02*
D03*
X73819D02*
D03*
Y72441D02*
D03*
X81299D02*
D03*
X206496Y115748D02*
D03*
X213976D02*
D03*
Y107874D02*
D03*
X206496D02*
D03*
D12*
X127165Y37402D02*
D03*
Y16142D02*
D03*
X306693Y83071D02*
D03*
Y61811D02*
D03*
X202756Y18110D02*
D03*
Y39370D02*
D03*
X95669Y36614D02*
D03*
Y15354D02*
D03*
D13*
X114961Y55512D02*
D03*
Y65512D02*
D03*
Y70512D02*
D03*
X91339D02*
D03*
Y65512D02*
D03*
Y60512D02*
D03*
D14*
X114961D02*
D03*
X91339Y55512D02*
D03*
D15*
X87362Y93032D02*
D03*
X92362D02*
D03*
X97362D02*
D03*
X102362D02*
D03*
X87362Y113779D02*
D03*
X92362D02*
D03*
X97362D02*
D03*
X102362D02*
D03*
D16*
X122047Y108071D02*
D03*
Y119488D02*
D03*
X218504Y123425D02*
D03*
Y134843D02*
D03*
X283465Y119488D02*
D03*
Y130905D02*
D03*
D17*
X134252Y137008D02*
D03*
Y129528D02*
D03*
X66142Y81693D02*
D03*
Y89173D02*
D03*
X142126Y137008D02*
D03*
Y129528D02*
D03*
X226772Y132480D02*
D03*
Y125000D02*
D03*
X292126Y130905D02*
D03*
Y123425D02*
D03*
X209842Y125197D02*
D03*
Y132677D02*
D03*
X201772D02*
D03*
Y125197D02*
D03*
X310039Y17913D02*
D03*
Y25394D02*
D03*
D18*
X90551Y122047D02*
D03*
X68898D02*
D03*
X90551Y134646D02*
D03*
X68898D02*
D03*
D19*
X118111Y127756D02*
D03*
Y135236D02*
D03*
X126772Y131496D02*
D03*
D20*
X289252Y19567D02*
D03*
X221457D02*
D03*
Y29567D02*
D03*
Y89567D02*
D03*
X289252D02*
D03*
Y29567D02*
D03*
D21*
X310236Y11024D02*
D03*
Y5512D02*
D03*
X298425Y102362D02*
D03*
Y96850D02*
D03*
D22*
X301181Y19291D02*
D03*
Y11417D02*
D03*
D23*
X243898Y118110D02*
D03*
D24*
X269291Y109114D02*
D03*
Y127106D02*
D03*
D25*
X233071Y118110D02*
D03*
D26*
X235827Y107874D02*
D03*
Y128347D02*
D03*
D27*
X192126Y104646D02*
D03*
X151575D02*
D03*
Y129646D02*
D03*
Y124646D02*
D03*
Y119646D02*
D03*
Y114646D02*
D03*
Y109646D02*
D03*
Y99646D02*
D03*
X192126D02*
D03*
Y109646D02*
D03*
Y114646D02*
D03*
Y119646D02*
D03*
Y124646D02*
D03*
X151575Y134646D02*
D03*
D28*
X192126Y129646D02*
D03*
Y134646D02*
D03*
D29*
X310236Y106299D02*
D03*
Y129921D02*
D03*
D30*
X97457Y67535D02*
Y71912D01*
X95433Y65512D02*
X97457Y67535D01*
X91339Y65512D02*
X95433D01*
X197638Y114961D02*
Y118110D01*
X196102Y119646D02*
X197638Y118110D01*
X192126Y119646D02*
X196102D01*
X197323Y114646D02*
X197638Y114961D01*
X200787Y114567D02*
Y114960D01*
X197323Y114646D02*
X200315D01*
X192126D02*
X197323D01*
X184252Y111417D02*
X186024Y109646D01*
X192126D01*
X95476Y73893D02*
X97457Y71912D01*
X83735Y73893D02*
X95476D01*
X86890Y60512D02*
X91339D01*
X82284Y55905D02*
X86890Y60512D01*
X81299Y55905D02*
X82284D01*
X85433Y99213D02*
X87362Y97284D01*
X80118Y99213D02*
X85433D01*
X78937Y98032D02*
X80118Y99213D01*
X127165Y6693D02*
Y16142D01*
X139764Y109449D02*
X151575D01*
X144095Y115354D02*
X144803Y114646D01*
X151575D01*
X144095Y115354D02*
Y117126D01*
X142323D02*
X144095Y118898D01*
X131693Y117126D02*
X142323D01*
X144095D01*
X142323Y117126D02*
Y117126D01*
Y117126D02*
X144095Y115354D01*
X102362Y82874D02*
X102953Y82284D01*
X95866D02*
X102953D01*
X87638Y70512D02*
X91339D01*
X81299Y64173D02*
X87638Y70512D01*
X82284Y72441D02*
X83735Y73893D01*
X81299Y72441D02*
X82284D01*
X73819Y82284D02*
X73819Y82284D01*
X81299Y82284D02*
Y82612D01*
X92362Y90715D02*
Y93032D01*
X87362D02*
Y97284D01*
X144882Y119685D02*
X152008D01*
X134252Y129528D02*
X134370Y129646D01*
X73032Y56693D02*
X73819Y55905D01*
X112780Y112811D02*
X112992Y112598D01*
X122047Y55512D02*
X122441Y55118D01*
X125984Y123425D02*
Y131496D01*
X134370Y129646D02*
X151575D01*
X200393Y109055D02*
X205315D01*
X206496Y107874D01*
X184252Y111417D02*
Y122835D01*
X186063Y124646D01*
X192126D01*
Y109646D02*
X199803D01*
X192126Y124646D02*
X195609D01*
X441307Y81783D02*
Y108299D01*
X429134Y106614D02*
X432362Y109843D01*
X439764D02*
X441307Y108299D01*
X432362Y109843D02*
X439764D01*
X446712Y76378D02*
X450787D01*
X453150Y74016D01*
X200787Y114567D02*
X206102D01*
X448356Y80347D02*
X451606D01*
X453543Y82284D01*
X445276Y83427D02*
X448356Y80347D01*
X445276Y83427D02*
Y109943D01*
X429134Y116614D02*
X431937Y113811D01*
X441408D02*
X445276Y109943D01*
X431937Y113811D02*
X441408D01*
X453543Y82284D02*
Y85433D01*
X269488Y127106D02*
X272382D01*
X140551Y122441D02*
X142756Y124646D01*
X151575D01*
X144095Y117126D02*
Y118504D01*
Y118898D02*
X144882Y119685D01*
X89998Y88350D02*
X92362Y90715D01*
X97362Y89763D02*
Y93032D01*
X94426Y86827D02*
X97362Y89763D01*
X92973Y86827D02*
X94426D01*
X88386Y82284D02*
X91142Y85039D01*
X91186D01*
X92973Y86827D01*
X81299Y82612D02*
X87037Y88350D01*
X89998D01*
X290256Y131102D02*
X290354Y131201D01*
X441307Y81783D02*
X446712Y76378D01*
D31*
X234252Y117717D02*
X236614D01*
X233858Y118110D02*
X234252Y117717D01*
X235630Y111024D02*
X241437Y116831D01*
X237008Y118110D02*
X242717D01*
X245079Y120472D01*
Y129724D01*
X242126Y132677D02*
X245079Y129724D01*
X209842Y132677D02*
X242126D01*
X197034Y129646D02*
X201627Y125053D01*
X192126Y129646D02*
X197034D01*
X192126Y99646D02*
X211378D01*
X213583Y117520D02*
X218110Y122047D01*
X225197Y123425D02*
X226772Y125000D01*
X218504Y123425D02*
X225197D01*
X201378Y125197D02*
X209842D01*
X201772Y132677D02*
X209842D01*
X213976Y107874D02*
X218898D01*
X222047Y111024D01*
X235630D01*
X453543Y99213D02*
Y104724D01*
X455905Y107087D01*
X453543Y94488D02*
Y99213D01*
X461417D02*
X462205Y98425D01*
X453543Y99213D02*
X461417D01*
X426417Y28701D02*
X429134D01*
X226772Y120472D02*
Y125000D01*
X225590Y119291D02*
X226772Y120472D01*
X429134Y58701D02*
X433849D01*
X209842Y125197D02*
X225197D01*
X143701Y137008D02*
X146063Y134646D01*
X151575D01*
X159331Y129646D02*
X160630Y128347D01*
X151575Y129646D02*
X159331D01*
X160630Y71653D02*
X162992Y69291D01*
X172441D01*
X285827Y102362D02*
X298425D01*
X285827Y102362D02*
X285827Y102362D01*
X292126Y119488D02*
Y123425D01*
X283465Y119488D02*
X292126D01*
X144488Y99606D02*
X160630D01*
Y71653D02*
Y99606D01*
Y128347D01*
D32*
X102362Y113779D02*
Y131890D01*
X99606Y134646D02*
X102362Y131890D01*
X90551Y134646D02*
X99606D01*
X97362Y113779D02*
Y120748D01*
X96063Y122047D02*
X97362Y120748D01*
X90551Y122047D02*
X96063D01*
X102953Y80118D02*
Y82284D01*
X101138Y78303D02*
X102953Y80118D01*
X101138Y58224D02*
Y78303D01*
X122441Y55118D02*
Y60512D01*
Y70866D02*
Y78347D01*
Y65354D02*
Y70866D01*
Y60512D02*
Y65354D01*
X295276Y11417D02*
X301181D01*
X177559Y22047D02*
Y25591D01*
X309842Y17717D02*
X310039Y17913D01*
X43701Y109055D02*
X44488Y109843D01*
X102362Y82874D02*
Y93032D01*
X43701Y101181D02*
X53150D01*
X453543Y57874D02*
X464173D01*
X87362Y113779D02*
X87402Y113740D01*
X310039Y11417D02*
Y17913D01*
X292913Y9055D02*
X295276Y11417D01*
X316929Y5906D02*
Y20079D01*
X182677Y30709D02*
X183071Y31102D01*
X118504Y82284D02*
X122441Y78347D01*
X110433Y82284D02*
X118504D01*
X134252Y137008D02*
X142126D01*
X112780Y112811D02*
Y132465D01*
X115551Y135236D01*
X126772Y124213D02*
Y131496D01*
X122047Y119488D02*
X125984Y123425D01*
X126772Y124213D01*
X122047Y108071D02*
X126969D01*
X133858Y101181D01*
Y70079D02*
Y101181D01*
X133071Y69291D02*
X133858Y70079D01*
X92362Y110000D02*
Y113779D01*
Y110000D02*
X94291Y108071D01*
X122047D01*
X59055Y74803D02*
X59965Y75713D01*
X59055Y60630D02*
Y74803D01*
X58661Y60630D02*
X59055D01*
X57480Y61811D02*
X58661Y60630D01*
X172441Y69291D02*
X172835Y68898D01*
X87402Y103937D02*
Y113740D01*
X310236Y5512D02*
X316535D01*
X316929Y5906D01*
X81299Y47244D02*
X98425D01*
X98819Y47638D02*
Y55512D01*
X118111Y135236D02*
X119094D01*
X120866Y137008D01*
X134252D01*
X298425Y89567D02*
Y96457D01*
X102362Y93032D02*
X106417D01*
X107874Y94488D01*
X98425Y55512D02*
X101138Y58224D01*
D33*
X122441Y62205D02*
Y65354D01*
X109055Y55512D02*
X114961D01*
X122047D01*
X108268Y70472D02*
X108307Y70512D01*
X114961D01*
X122087D02*
X122441Y70866D01*
X114961Y70512D02*
X122087D01*
X107480Y65354D02*
X107638Y65512D01*
X114961D01*
X122283D02*
X122441Y65354D01*
X114961Y65512D02*
X122283D01*
X109980Y60512D02*
X114961D01*
X122441D01*
D34*
X123622Y55118D02*
X172835D01*
X202756Y39370D02*
Y51181D01*
X202756Y51181D02*
Y54331D01*
X201969Y55118D02*
X202756Y54331D01*
X172835Y55118D02*
X201969D01*
X172835Y39764D02*
Y55118D01*
X167717Y34646D02*
X172835Y39764D01*
X296654Y89567D02*
X296850Y89764D01*
X289252Y89567D02*
X296654D01*
D35*
X177559Y25591D02*
X182677Y30709D01*
X301181Y11417D02*
X310039D01*
X183071Y31102D02*
Y34646D01*
X272382Y127106D02*
X276378Y131102D01*
X290256D01*
X290354Y131201D02*
X310236D01*
D36*
X199803Y134646D02*
X201772Y132677D01*
X192126Y134646D02*
X199803D01*
D37*
X44488Y109843D02*
X70866D01*
X71457Y98032D02*
Y109055D01*
X73819Y72441D02*
Y82284D01*
X66535Y98032D02*
X71457D01*
X65354Y65748D02*
X66929Y64173D01*
X73819D01*
X65354Y65748D02*
Y71260D01*
X43701Y93307D02*
X49606D01*
X66142Y81693D02*
X73228D01*
X73819Y82284D01*
X49606Y93307D02*
X61221Y81693D01*
X66142D01*
D38*
X289528Y19291D02*
X301181D01*
X43701Y61811D02*
X57480D01*
D39*
X441142Y18701D02*
X453740Y31299D01*
X429134Y18701D02*
X441142D01*
X442567Y55070D02*
X453543Y44094D01*
X442567Y55070D02*
Y72489D01*
X453740Y31299D02*
Y44094D01*
X428442Y86614D02*
X442567Y72489D01*
D40*
X88583Y55512D02*
X91339D01*
X98425D01*
X98425Y47244D02*
X98819Y47638D01*
D41*
X316142Y95669D02*
X418110D01*
X427165Y86614D01*
X428442D01*
X310236Y97638D02*
Y106299D01*
Y97638D02*
X311417Y96457D01*
D42*
X417717Y29528D02*
X418543Y28701D01*
X426417D01*
D43*
X43701Y30315D02*
D03*
Y46063D02*
D03*
Y53937D02*
D03*
Y61811D02*
D03*
Y69685D02*
D03*
Y77559D02*
D03*
Y85433D02*
D03*
Y93307D02*
D03*
Y101181D02*
D03*
Y109055D02*
D03*
Y38189D02*
D03*
D44*
Y116929D02*
D03*
D45*
X14961Y129134D02*
D03*
X488583Y14961D02*
D03*
X488976Y128346D02*
D03*
X14567Y14961D02*
D03*
D46*
X173228Y69291D02*
D03*
X133858D02*
D03*
X453543Y99213D02*
D03*
Y57874D02*
D03*
Y71653D02*
D03*
Y85433D02*
D03*
D47*
Y44094D02*
D03*
D48*
X395118Y131614D02*
D03*
Y81614D02*
D03*
Y63701D02*
D03*
Y13701D02*
D03*
D49*
X429134Y126614D02*
D03*
Y116614D02*
D03*
Y106614D02*
D03*
Y96614D02*
D03*
Y58701D02*
D03*
Y48701D02*
D03*
Y38701D02*
D03*
Y28701D02*
D03*
D50*
Y86614D02*
D03*
Y18701D02*
D03*
D51*
X200787Y114960D02*
D03*
X102756Y100787D02*
D03*
X211417Y24803D02*
D03*
X211024Y20079D02*
D03*
X109055Y40551D02*
D03*
X492520Y50787D02*
D03*
X309449Y31496D02*
D03*
X298031Y117323D02*
D03*
X325984Y66535D02*
D03*
Y72835D02*
D03*
Y79921D02*
D03*
X363386Y28740D02*
D03*
X362598Y36614D02*
D03*
X361811Y45669D02*
D03*
X377165Y79921D02*
D03*
Y71260D02*
D03*
X59449Y122835D02*
D03*
Y130709D02*
D03*
X107480Y61811D02*
D03*
X107874Y67323D02*
D03*
X82677Y30315D02*
D03*
X122441Y76378D02*
D03*
Y69291D02*
D03*
Y62205D02*
D03*
X113386Y74803D02*
D03*
X117717Y79134D02*
D03*
X122835Y83464D02*
D03*
X143307Y42913D02*
D03*
X135827D02*
D03*
X143307Y36220D02*
D03*
X127165Y51181D02*
D03*
X120079Y51575D02*
D03*
X110236D02*
D03*
X66929Y45669D02*
D03*
X64567Y50000D02*
D03*
X431496Y9449D02*
D03*
X460236Y18110D02*
D03*
X58661Y50000D02*
D03*
X55512Y45276D02*
D03*
X52362Y50394D02*
D03*
X61024Y45276D02*
D03*
X28346Y140157D02*
D03*
X45407Y138583D02*
D03*
X13386Y112598D02*
D03*
X23228Y114567D02*
D03*
X38189Y138583D02*
D03*
X52625D02*
D03*
X94882Y101181D02*
D03*
X144095Y4331D02*
D03*
X141339Y98032D02*
D03*
X181890Y66535D02*
D03*
X263386Y16535D02*
D03*
X273228Y16929D02*
D03*
X233465Y54724D02*
D03*
X273228Y30709D02*
D03*
X61417Y16535D02*
D03*
X103150Y5512D02*
D03*
X82415D02*
D03*
X91339Y5118D02*
D03*
X103150Y12795D02*
D03*
X3937Y31890D02*
D03*
X71653Y5512D02*
D03*
X61417Y23228D02*
D03*
X30315Y9449D02*
D03*
X61417Y5512D02*
D03*
X51312Y10630D02*
D03*
X27953Y43701D02*
D03*
Y55905D02*
D03*
X28346Y68110D02*
D03*
X27953Y92520D02*
D03*
X27559Y80315D02*
D03*
X12730Y43045D02*
D03*
X12205Y31890D02*
D03*
X27953Y104724D02*
D03*
X12730Y80053D02*
D03*
Y92388D02*
D03*
X4724Y115354D02*
D03*
X12730Y55381D02*
D03*
Y67716D02*
D03*
X61417Y10630D02*
D03*
X51312Y5512D02*
D03*
X41339Y10630D02*
D03*
X40945Y5512D02*
D03*
X3937Y104724D02*
D03*
X386221Y121260D02*
D03*
X407874Y127165D02*
D03*
X397244Y25984D02*
D03*
X411417Y61091D02*
D03*
X406693Y54331D02*
D03*
X325197Y59449D02*
D03*
X474934Y83858D02*
D03*
Y59449D02*
D03*
X475984Y96063D02*
D03*
X474934Y71653D02*
D03*
X483727Y59449D02*
D03*
X492520D02*
D03*
Y71653D02*
D03*
Y83858D02*
D03*
X368898Y79921D02*
D03*
X360630D02*
D03*
X351181D02*
D03*
X340945D02*
D03*
X333071Y80315D02*
D03*
X374410Y109055D02*
D03*
X362992D02*
D03*
X338583D02*
D03*
X350787D02*
D03*
X183071Y34646D02*
D03*
X296850Y29567D02*
D03*
X303543D02*
D03*
X103150Y21260D02*
D03*
X158661Y5118D02*
D03*
X112992Y112598D02*
D03*
X87795Y30315D02*
D03*
X135827Y36220D02*
D03*
X139764Y109055D02*
D03*
X65748Y97244D02*
D03*
X140551Y122047D02*
D03*
X130315Y117323D02*
D03*
X225590Y119291D02*
D03*
X110630Y45669D02*
D03*
X167717Y34646D02*
D03*
X65354Y71260D02*
D03*
X87402Y103937D02*
D03*
X200393Y109055D02*
D03*
X251575Y122835D02*
D03*
X251969Y117323D02*
D03*
Y111811D02*
D03*
X240158D02*
D03*
Y117323D02*
D03*
X246457D02*
D03*
X240551Y122835D02*
D03*
X246457Y111417D02*
D03*
X338583Y125853D02*
D03*
X350787Y125591D02*
D03*
X362992D02*
D03*
Y117323D02*
D03*
X350787D02*
D03*
X338583Y117454D02*
D03*
Y134252D02*
D03*
X350787Y133858D02*
D03*
X362992D02*
D03*
X374410D02*
D03*
Y125591D02*
D03*
Y117323D02*
D03*
X333071Y73228D02*
D03*
X340551Y72835D02*
D03*
X351181D02*
D03*
X333071Y66535D02*
D03*
X340551D02*
D03*
X351181Y64961D02*
D03*
X332283Y59449D02*
D03*
X340551Y60236D02*
D03*
X351181Y57874D02*
D03*
X360630Y72441D02*
D03*
Y64961D02*
D03*
Y56693D02*
D03*
X368898Y72835D02*
D03*
Y65354D02*
D03*
X369291Y56693D02*
D03*
X368898Y46063D02*
D03*
Y37402D02*
D03*
X370079Y28346D02*
D03*
X377165Y62598D02*
D03*
Y53937D02*
D03*
Y45276D02*
D03*
Y27953D02*
D03*
X492520Y96063D02*
D03*
X483727Y83858D02*
D03*
Y71653D02*
D03*
X483858Y50394D02*
D03*
X485039Y96063D02*
D03*
X466142Y71653D02*
D03*
X448032Y9449D02*
D03*
X474803Y50394D02*
D03*
X466929Y96063D02*
D03*
X466142Y83858D02*
D03*
Y59449D02*
D03*
Y50394D02*
D03*
X273622Y85433D02*
D03*
X273228Y77165D02*
D03*
X272835Y68898D02*
D03*
X264173Y85433D02*
D03*
X263779Y76772D02*
D03*
X253150Y85433D02*
D03*
X241732D02*
D03*
X205512Y85827D02*
D03*
X204724Y92126D02*
D03*
X413779Y53937D02*
D03*
Y43307D02*
D03*
X414567Y32283D02*
D03*
X414961Y22047D02*
D03*
X413386Y134646D02*
D03*
Y120472D02*
D03*
X403937Y120866D02*
D03*
X455118Y129528D02*
D03*
X448425Y129134D02*
D03*
X441732D02*
D03*
X455512Y122441D02*
D03*
X448425Y134252D02*
D03*
X442126D02*
D03*
X455905Y114567D02*
D03*
X461811Y103150D02*
D03*
X316929Y22047D02*
D03*
X12730Y104724D02*
D03*
X3937Y92585D02*
D03*
Y44029D02*
D03*
X51181Y23228D02*
D03*
X57480Y98032D02*
D03*
X57874Y72835D02*
D03*
X20341Y104724D02*
D03*
Y92520D02*
D03*
Y80315D02*
D03*
Y68110D02*
D03*
Y55905D02*
D03*
Y43701D02*
D03*
X20472Y31890D02*
D03*
X31102Y134252D02*
D03*
X45669Y132283D02*
D03*
X52756Y132677D02*
D03*
X27165Y3937D02*
D03*
X26378Y26378D02*
D03*
X71653Y10630D02*
D03*
Y22835D02*
D03*
X273228Y23622D02*
D03*
X263386Y22835D02*
D03*
X253150D02*
D03*
X243701D02*
D03*
Y30709D02*
D03*
X253150D02*
D03*
X243307Y38976D02*
D03*
X253150Y38583D02*
D03*
X377165Y36614D02*
D03*
X396457Y40945D02*
D03*
X402362Y48425D02*
D03*
X403937Y28740D02*
D03*
X388189Y50000D02*
D03*
X387402Y36220D02*
D03*
X281496Y111811D02*
D03*
X295669Y112205D02*
D03*
X288976Y111811D02*
D03*
X298425Y107480D02*
D03*
X268898Y117323D02*
D03*
X274803Y115354D02*
D03*
X283858Y107480D02*
D03*
X290945D02*
D03*
X328740Y134252D02*
D03*
Y125591D02*
D03*
Y109449D02*
D03*
X406299Y134646D02*
D03*
X416929Y126378D02*
D03*
X287008Y69291D02*
D03*
Y60236D02*
D03*
X263386Y30709D02*
D03*
X234646Y22441D02*
D03*
X253150Y16929D02*
D03*
X234646Y30709D02*
D03*
X233858Y38583D02*
D03*
X242913Y46850D02*
D03*
X185039Y5906D02*
D03*
X172835Y4724D02*
D03*
X188583Y12992D02*
D03*
X28740Y31890D02*
D03*
X71653Y16535D02*
D03*
X30315Y17323D02*
D03*
X51312Y16535D02*
D03*
X41339D02*
D03*
X52362Y77165D02*
D03*
X51968Y82677D02*
D03*
X29921Y122835D02*
D03*
X38583Y132283D02*
D03*
X59842Y138583D02*
D03*
X107874Y94488D02*
D03*
X316929Y16142D02*
D03*
X317323Y10630D02*
D03*
X212598Y56693D02*
D03*
Y51968D02*
D03*
X3937Y80446D02*
D03*
Y68307D02*
D03*
Y56168D02*
D03*
X57087Y79134D02*
D03*
X57480Y104331D02*
D03*
X135827Y28740D02*
D03*
X233858Y46850D02*
D03*
X204331Y56693D02*
D03*
X187795Y60630D02*
D03*
X177953Y59842D02*
D03*
X183465Y57087D02*
D03*
X194488D02*
D03*
X454724Y12992D02*
D03*
X462205Y42520D02*
D03*
X461811Y24803D02*
D03*
Y33465D02*
D03*
X448425Y122835D02*
D03*
X441732Y123228D02*
D03*
X328346Y117717D02*
D03*
X212205Y92520D02*
D03*
Y85433D02*
D03*
X233858D02*
D03*
M02*
