%FSLAX25Y25*%
%MOIN*%
G70*
G01*
G75*
G04 Layer_Color=8388736*
%ADD10R,0.07087X0.14173*%
%ADD11R,0.03937X0.04724*%
%ADD12R,0.06299X0.13780*%
%ADD13O,0.07874X0.02400*%
%ADD14O,0.07874X0.02402*%
%ADD15R,0.03465X0.05000*%
%ADD16R,0.05512X0.04724*%
%ADD17R,0.04724X0.03937*%
%ADD18R,0.05118X0.07480*%
%ADD19R,0.04724X0.03150*%
%ADD20R,0.08268X0.07874*%
%ADD21R,0.03150X0.03150*%
%ADD22R,0.06299X0.03937*%
%ADD23R,0.20079X0.18898*%
%ADD24R,0.11811X0.03937*%
%ADD25R,0.01575X0.07874*%
%ADD26R,0.03937X0.01575*%
%ADD27O,0.10000X0.02400*%
%ADD28O,0.10000X0.02402*%
%ADD29R,0.12205X0.06102*%
%ADD30C,0.02000*%
%ADD31C,0.02500*%
%ADD32C,0.03000*%
%ADD33C,0.02362*%
%ADD34C,0.05000*%
%ADD35C,0.03500*%
%ADD36C,0.02200*%
%ADD37C,0.01000*%
%ADD38C,0.04000*%
%ADD39C,0.07000*%
%ADD40C,0.02400*%
%ADD41C,0.06000*%
%ADD42C,0.04500*%
%ADD43C,0.05906*%
%ADD44R,0.05906X0.05906*%
%ADD45C,0.19685*%
%ADD46C,0.07874*%
%ADD47R,0.07874X0.07874*%
%ADD48C,0.00787*%
%ADD49C,0.07480*%
%ADD50R,0.07480X0.07480*%
%ADD51C,0.03543*%
%ADD52R,0.09055X0.05512*%
%ADD53R,0.07874X0.03937*%
%ADD54R,0.11811X0.15748*%
%ADD55R,0.03937X0.02362*%
%ADD56C,0.00787*%
%ADD57C,0.01969*%
%ADD58C,0.01575*%
%ADD59C,0.01181*%
%ADD60C,0.00394*%
D10*
X177559Y22047D02*
D03*
X149213D02*
D03*
D11*
X81299Y82284D02*
D03*
X73819D02*
D03*
X88386Y82284D02*
D03*
X95866D02*
D03*
X102953D02*
D03*
X110433D02*
D03*
X73819Y64173D02*
D03*
X81299D02*
D03*
X78937Y98032D02*
D03*
X71457D02*
D03*
Y109055D02*
D03*
X78937D02*
D03*
X81299Y47244D02*
D03*
X73819D02*
D03*
X81299Y55905D02*
D03*
X73819D02*
D03*
Y72441D02*
D03*
X81299D02*
D03*
X206496Y115748D02*
D03*
X213976D02*
D03*
Y107874D02*
D03*
X206496D02*
D03*
D12*
X127165Y37402D02*
D03*
Y16142D02*
D03*
X306693Y83071D02*
D03*
Y61811D02*
D03*
X202756Y18110D02*
D03*
Y39370D02*
D03*
X95669Y36614D02*
D03*
Y15354D02*
D03*
D13*
X114961Y55512D02*
D03*
Y65512D02*
D03*
Y70512D02*
D03*
X91339D02*
D03*
Y65512D02*
D03*
Y60512D02*
D03*
D14*
X114961D02*
D03*
X91339Y55512D02*
D03*
D15*
X87362Y93032D02*
D03*
X92362D02*
D03*
X97362D02*
D03*
X102362D02*
D03*
X87362Y113779D02*
D03*
X92362D02*
D03*
X97362D02*
D03*
X102362D02*
D03*
D16*
X122047Y108071D02*
D03*
Y119488D02*
D03*
X218504Y123425D02*
D03*
Y134843D02*
D03*
X283465Y119488D02*
D03*
Y130905D02*
D03*
D17*
X134252Y137008D02*
D03*
Y129528D02*
D03*
X66142Y81693D02*
D03*
Y89173D02*
D03*
X142126Y137008D02*
D03*
Y129528D02*
D03*
X226772Y132480D02*
D03*
Y125000D02*
D03*
X292126Y130905D02*
D03*
Y123425D02*
D03*
X209842Y125197D02*
D03*
Y132677D02*
D03*
X201772D02*
D03*
Y125197D02*
D03*
X310039Y17913D02*
D03*
Y25394D02*
D03*
D18*
X90551Y122047D02*
D03*
X68898D02*
D03*
X90551Y134646D02*
D03*
X68898D02*
D03*
D19*
X118111Y127756D02*
D03*
Y135236D02*
D03*
X126772Y131496D02*
D03*
D20*
X289252Y19567D02*
D03*
X221457D02*
D03*
Y29567D02*
D03*
Y89567D02*
D03*
X289252D02*
D03*
Y29567D02*
D03*
D21*
X310236Y11024D02*
D03*
Y5512D02*
D03*
X298425Y102362D02*
D03*
Y96850D02*
D03*
D22*
X301181Y19291D02*
D03*
Y11417D02*
D03*
D23*
X243898Y118110D02*
D03*
D24*
X269291Y109114D02*
D03*
Y127106D02*
D03*
D25*
X233071Y118110D02*
D03*
D26*
X235827Y107874D02*
D03*
Y128347D02*
D03*
D27*
X192126Y104646D02*
D03*
X151575D02*
D03*
Y129646D02*
D03*
Y124646D02*
D03*
Y119646D02*
D03*
Y114646D02*
D03*
Y109646D02*
D03*
Y99646D02*
D03*
X192126D02*
D03*
Y109646D02*
D03*
Y114646D02*
D03*
Y119646D02*
D03*
Y124646D02*
D03*
X151575Y134646D02*
D03*
D28*
X192126Y129646D02*
D03*
Y134646D02*
D03*
D29*
X310236Y106299D02*
D03*
Y129921D02*
D03*
D43*
X43701Y30315D02*
D03*
Y46063D02*
D03*
Y53937D02*
D03*
Y61811D02*
D03*
Y69685D02*
D03*
Y77559D02*
D03*
Y85433D02*
D03*
Y93307D02*
D03*
Y101181D02*
D03*
Y109055D02*
D03*
Y38189D02*
D03*
D44*
Y116929D02*
D03*
D45*
X14961Y129134D02*
D03*
X488583Y14961D02*
D03*
X488976Y128346D02*
D03*
X14567Y14961D02*
D03*
D46*
X173228Y69291D02*
D03*
X133858D02*
D03*
X453543Y99213D02*
D03*
Y57874D02*
D03*
Y71653D02*
D03*
Y85433D02*
D03*
D47*
Y44094D02*
D03*
D48*
X395118Y131614D02*
D03*
Y81614D02*
D03*
Y63701D02*
D03*
Y13701D02*
D03*
D49*
X429134Y126614D02*
D03*
Y116614D02*
D03*
Y106614D02*
D03*
Y96614D02*
D03*
Y58701D02*
D03*
Y48701D02*
D03*
Y38701D02*
D03*
Y28701D02*
D03*
D50*
Y86614D02*
D03*
Y18701D02*
D03*
D51*
X200787Y114960D02*
D03*
X102756Y100787D02*
D03*
X211417Y24803D02*
D03*
X211024Y20079D02*
D03*
X109055Y40551D02*
D03*
X492520Y50787D02*
D03*
X309449Y31496D02*
D03*
X298031Y117323D02*
D03*
X325984Y66535D02*
D03*
Y72835D02*
D03*
Y79921D02*
D03*
X363386Y28740D02*
D03*
X362598Y36614D02*
D03*
X361811Y45669D02*
D03*
X377165Y79921D02*
D03*
Y71260D02*
D03*
X59449Y122835D02*
D03*
Y130709D02*
D03*
X107480Y61811D02*
D03*
X107874Y67323D02*
D03*
X82677Y30315D02*
D03*
X122441Y76378D02*
D03*
Y69291D02*
D03*
Y62205D02*
D03*
X113386Y74803D02*
D03*
X117717Y79134D02*
D03*
X122835Y83464D02*
D03*
X143307Y42913D02*
D03*
X135827D02*
D03*
X143307Y36220D02*
D03*
X127165Y51181D02*
D03*
X120079Y51575D02*
D03*
X110236D02*
D03*
X66929Y45669D02*
D03*
X64567Y50000D02*
D03*
X431496Y9449D02*
D03*
X460236Y18110D02*
D03*
X58661Y50000D02*
D03*
X55512Y45276D02*
D03*
X52362Y50394D02*
D03*
X61024Y45276D02*
D03*
X28346Y140157D02*
D03*
X45407Y138583D02*
D03*
X13386Y112598D02*
D03*
X23228Y114567D02*
D03*
X38189Y138583D02*
D03*
X52625D02*
D03*
X94882Y101181D02*
D03*
X144095Y4331D02*
D03*
X141339Y98032D02*
D03*
X181890Y66535D02*
D03*
X263386Y16535D02*
D03*
X273228Y16929D02*
D03*
X233465Y54724D02*
D03*
X273228Y30709D02*
D03*
X61417Y16535D02*
D03*
X103150Y5512D02*
D03*
X82415D02*
D03*
X91339Y5118D02*
D03*
X103150Y12795D02*
D03*
X3937Y31890D02*
D03*
X71653Y5512D02*
D03*
X61417Y23228D02*
D03*
X30315Y9449D02*
D03*
X61417Y5512D02*
D03*
X51312Y10630D02*
D03*
X27953Y43701D02*
D03*
Y55905D02*
D03*
X28346Y68110D02*
D03*
X27953Y92520D02*
D03*
X27559Y80315D02*
D03*
X12730Y43045D02*
D03*
X12205Y31890D02*
D03*
X27953Y104724D02*
D03*
X12730Y80053D02*
D03*
Y92388D02*
D03*
X4724Y115354D02*
D03*
X12730Y55381D02*
D03*
Y67716D02*
D03*
X61417Y10630D02*
D03*
X51312Y5512D02*
D03*
X41339Y10630D02*
D03*
X40945Y5512D02*
D03*
X3937Y104724D02*
D03*
X386221Y121260D02*
D03*
X407874Y127165D02*
D03*
X397244Y25984D02*
D03*
X411417Y61091D02*
D03*
X406693Y54331D02*
D03*
X325197Y59449D02*
D03*
X474934Y83858D02*
D03*
Y59449D02*
D03*
X475984Y96063D02*
D03*
X474934Y71653D02*
D03*
X483727Y59449D02*
D03*
X492520D02*
D03*
Y71653D02*
D03*
Y83858D02*
D03*
X368898Y79921D02*
D03*
X360630D02*
D03*
X351181D02*
D03*
X340945D02*
D03*
X333071Y80315D02*
D03*
X374410Y109055D02*
D03*
X362992D02*
D03*
X338583D02*
D03*
X350787D02*
D03*
X183071Y34646D02*
D03*
X296850Y29567D02*
D03*
X303543D02*
D03*
X103150Y21260D02*
D03*
X158661Y5118D02*
D03*
X112992Y112598D02*
D03*
X87795Y30315D02*
D03*
X135827Y36220D02*
D03*
X139764Y109055D02*
D03*
X65748Y97244D02*
D03*
X140551Y122047D02*
D03*
X130315Y117323D02*
D03*
X225590Y119291D02*
D03*
X110630Y45669D02*
D03*
X167717Y34646D02*
D03*
X65354Y71260D02*
D03*
X87402Y103937D02*
D03*
X200393Y109055D02*
D03*
X251575Y122835D02*
D03*
X251969Y117323D02*
D03*
Y111811D02*
D03*
X240158D02*
D03*
Y117323D02*
D03*
X246457D02*
D03*
X240551Y122835D02*
D03*
X246457Y111417D02*
D03*
X338583Y125853D02*
D03*
X350787Y125591D02*
D03*
X362992D02*
D03*
Y117323D02*
D03*
X350787D02*
D03*
X338583Y117454D02*
D03*
Y134252D02*
D03*
X350787Y133858D02*
D03*
X362992D02*
D03*
X374410D02*
D03*
Y125591D02*
D03*
Y117323D02*
D03*
X333071Y73228D02*
D03*
X340551Y72835D02*
D03*
X351181D02*
D03*
X333071Y66535D02*
D03*
X340551D02*
D03*
X351181Y64961D02*
D03*
X332283Y59449D02*
D03*
X340551Y60236D02*
D03*
X351181Y57874D02*
D03*
X360630Y72441D02*
D03*
Y64961D02*
D03*
Y56693D02*
D03*
X368898Y72835D02*
D03*
Y65354D02*
D03*
X369291Y56693D02*
D03*
X368898Y46063D02*
D03*
Y37402D02*
D03*
X370079Y28346D02*
D03*
X377165Y62598D02*
D03*
Y53937D02*
D03*
Y45276D02*
D03*
Y27953D02*
D03*
X492520Y96063D02*
D03*
X483727Y83858D02*
D03*
Y71653D02*
D03*
X483858Y50394D02*
D03*
X485039Y96063D02*
D03*
X466142Y71653D02*
D03*
X448032Y9449D02*
D03*
X474803Y50394D02*
D03*
X466929Y96063D02*
D03*
X466142Y83858D02*
D03*
Y59449D02*
D03*
Y50394D02*
D03*
X273622Y85433D02*
D03*
X273228Y77165D02*
D03*
X272835Y68898D02*
D03*
X264173Y85433D02*
D03*
X263779Y76772D02*
D03*
X253150Y85433D02*
D03*
X241732D02*
D03*
X205512Y85827D02*
D03*
X204724Y92126D02*
D03*
X413779Y53937D02*
D03*
Y43307D02*
D03*
X414567Y32283D02*
D03*
X414961Y22047D02*
D03*
X413386Y134646D02*
D03*
Y120472D02*
D03*
X403937Y120866D02*
D03*
X455118Y129528D02*
D03*
X448425Y129134D02*
D03*
X441732D02*
D03*
X455512Y122441D02*
D03*
X448425Y134252D02*
D03*
X442126D02*
D03*
X455905Y114567D02*
D03*
X461811Y103150D02*
D03*
X316929Y22047D02*
D03*
X12730Y104724D02*
D03*
X3937Y92585D02*
D03*
Y44029D02*
D03*
X51181Y23228D02*
D03*
X57480Y98032D02*
D03*
X57874Y72835D02*
D03*
X20341Y104724D02*
D03*
Y92520D02*
D03*
Y80315D02*
D03*
Y68110D02*
D03*
Y55905D02*
D03*
Y43701D02*
D03*
X20472Y31890D02*
D03*
X31102Y134252D02*
D03*
X45669Y132283D02*
D03*
X52756Y132677D02*
D03*
X27165Y3937D02*
D03*
X26378Y26378D02*
D03*
X71653Y10630D02*
D03*
Y22835D02*
D03*
X273228Y23622D02*
D03*
X263386Y22835D02*
D03*
X253150D02*
D03*
X243701D02*
D03*
Y30709D02*
D03*
X253150D02*
D03*
X243307Y38976D02*
D03*
X253150Y38583D02*
D03*
X377165Y36614D02*
D03*
X396457Y40945D02*
D03*
X402362Y48425D02*
D03*
X403937Y28740D02*
D03*
X388189Y50000D02*
D03*
X387402Y36220D02*
D03*
X281496Y111811D02*
D03*
X295669Y112205D02*
D03*
X288976Y111811D02*
D03*
X298425Y107480D02*
D03*
X268898Y117323D02*
D03*
X274803Y115354D02*
D03*
X283858Y107480D02*
D03*
X290945D02*
D03*
X328740Y134252D02*
D03*
Y125591D02*
D03*
Y109449D02*
D03*
X406299Y134646D02*
D03*
X416929Y126378D02*
D03*
X287008Y69291D02*
D03*
Y60236D02*
D03*
X263386Y30709D02*
D03*
X234646Y22441D02*
D03*
X253150Y16929D02*
D03*
X234646Y30709D02*
D03*
X233858Y38583D02*
D03*
X242913Y46850D02*
D03*
X185039Y5906D02*
D03*
X172835Y4724D02*
D03*
X188583Y12992D02*
D03*
X28740Y31890D02*
D03*
X71653Y16535D02*
D03*
X30315Y17323D02*
D03*
X51312Y16535D02*
D03*
X41339D02*
D03*
X52362Y77165D02*
D03*
X51968Y82677D02*
D03*
X29921Y122835D02*
D03*
X38583Y132283D02*
D03*
X59842Y138583D02*
D03*
X107874Y94488D02*
D03*
X316929Y16142D02*
D03*
X317323Y10630D02*
D03*
X212598Y56693D02*
D03*
Y51968D02*
D03*
X3937Y80446D02*
D03*
Y68307D02*
D03*
Y56168D02*
D03*
X57087Y79134D02*
D03*
X57480Y104331D02*
D03*
X135827Y28740D02*
D03*
X233858Y46850D02*
D03*
X204331Y56693D02*
D03*
X187795Y60630D02*
D03*
X177953Y59842D02*
D03*
X183465Y57087D02*
D03*
X194488D02*
D03*
X454724Y12992D02*
D03*
X462205Y42520D02*
D03*
X461811Y24803D02*
D03*
Y33465D02*
D03*
X448425Y122835D02*
D03*
X441732Y123228D02*
D03*
X328346Y117717D02*
D03*
X212205Y92520D02*
D03*
Y85433D02*
D03*
X233858D02*
D03*
M02*
