%FSLAX25Y25*%
%MOIN*%
G70*
G01*
G75*
G04 Layer_Color=128*
%ADD10R,0.07087X0.14173*%
%ADD11R,0.03937X0.04724*%
%ADD12R,0.06299X0.13780*%
%ADD13O,0.07874X0.02400*%
%ADD14O,0.07874X0.02402*%
%ADD15R,0.03465X0.05000*%
%ADD16R,0.05512X0.04724*%
%ADD17R,0.04724X0.03937*%
%ADD18R,0.05118X0.07480*%
%ADD19R,0.04724X0.03150*%
%ADD20R,0.08268X0.07874*%
%ADD21R,0.03150X0.03150*%
%ADD22R,0.06299X0.03937*%
%ADD23R,0.20079X0.18898*%
%ADD24R,0.11811X0.03937*%
%ADD25R,0.01575X0.07874*%
%ADD26R,0.03937X0.01575*%
%ADD27O,0.10000X0.02400*%
%ADD28O,0.10000X0.02402*%
%ADD29R,0.12205X0.06102*%
%ADD30C,0.02000*%
%ADD31C,0.02500*%
%ADD32C,0.03000*%
%ADD33C,0.02362*%
%ADD34C,0.05000*%
%ADD35C,0.03500*%
%ADD36C,0.02200*%
%ADD37C,0.01000*%
%ADD38C,0.04000*%
%ADD39C,0.07000*%
%ADD40C,0.02400*%
%ADD41C,0.06000*%
%ADD42C,0.04500*%
%ADD43C,0.05906*%
%ADD44R,0.05906X0.05906*%
%ADD45C,0.19685*%
%ADD46C,0.07874*%
%ADD47R,0.07874X0.07874*%
%ADD48C,0.00787*%
%ADD49C,0.07480*%
%ADD50R,0.07480X0.07480*%
%ADD51C,0.03543*%
%ADD52R,0.09055X0.05512*%
%ADD53R,0.07874X0.03937*%
%ADD54R,0.11811X0.15748*%
%ADD55R,0.03937X0.02362*%
%ADD56C,0.00787*%
%ADD57C,0.01969*%
%ADD58C,0.01575*%
%ADD59C,0.01181*%
%ADD60C,0.00394*%
D11*
X128150Y6693D02*
D03*
X135630D02*
D03*
D16*
X212008Y34646D02*
D03*
Y46063D02*
D03*
D17*
X204134Y38583D02*
D03*
Y46063D02*
D03*
X116142Y33858D02*
D03*
Y41339D02*
D03*
X124016Y33858D02*
D03*
Y41339D02*
D03*
X153150Y45669D02*
D03*
Y38189D02*
D03*
X196260Y38583D02*
D03*
Y46063D02*
D03*
D21*
X160630Y46063D02*
D03*
Y40551D02*
D03*
X167323Y40551D02*
D03*
Y46063D02*
D03*
X188976Y40945D02*
D03*
Y46457D02*
D03*
X143110Y27362D02*
D03*
Y21850D02*
D03*
X176378Y32677D02*
D03*
Y27165D02*
D03*
D52*
X165748Y27756D02*
D03*
Y15551D02*
D03*
X152953Y27756D02*
D03*
Y15551D02*
D03*
D53*
X116142Y26575D02*
D03*
Y17126D02*
D03*
Y7677D02*
D03*
D54*
X89234Y17126D02*
D03*
D55*
X173622Y39370D02*
D03*
Y43110D02*
D03*
Y46850D02*
D03*
X183071D02*
D03*
Y43110D02*
D03*
Y39370D02*
D03*
M02*
