M48
;Layer_Color=9474304
;FILE_FORMAT=2:5
INCH,LZ
;TYPE=PLATED
T1F00S00C0.01968
T2F00S00C0.03543
T3F00S00C0.04331
T4F00S00C0.04724
T5F00S00C0.12598
%
T01
X0027165Y0003937
X0030315Y0009449
Y0017323
X0041339Y0016535
Y001063
X0040945Y0005512
X0051312
Y001063
Y0016535
X0051181Y0023228
X0026378Y0026378
X002874Y003189
X0020472
X0012205
X0003937
Y0044029
X001273Y0043045
X0020341Y0043701
X0027953
X0052362Y0050394
X0058661Y005
X0064567
X0066929Y0045669
X0061024Y0045276
X0055512
X0061417Y0023228
Y0016535
Y001063
Y0005512
X0071653
Y001063
Y0016535
Y0022835
X0082677Y0030315
X0087795
X010315Y002126
Y0012795
X010315Y0005512
X0091339Y0005118
X0082415Y0005512
X0109055Y0040551
X011063Y0045669
X0110236Y0051575
X0120079
X0127165Y0051181
X0135827Y0042913
Y003622
Y002874
X0143307Y003622
Y0042913
X0167717Y0034646
X0183071Y0034646
X0188583Y0012992
X0185039Y0005906
X0172835Y0004724
X0158661Y0005118
X0144095Y0004331
X0211024Y0020079
X0211417Y0024803
X0234646Y0022441
Y0030709
X0233858Y0038583
Y004685
X0242913
X0243307Y0038976
X0243701Y0030709
Y0022835
X025315
Y0016929
X0263386Y0016535
Y0022835
Y0030709
X0273228
Y0023622
Y0016929
X025315Y0030709
Y0038583
X029685Y0029567
X0303543
X0309449Y0031496
X0316929Y0022047
Y0016142
X0317323Y001063
X0363386Y002874
X0362598Y0036614
X0361811Y0045669
X0212598Y0051968
X0368898Y0046063
Y0037402
X0377165Y0036614
Y0045276
X0388189Y005
X0387402Y003622
X0396457Y0040945
X0402362Y0048425
X0413779Y0043307
X0414567Y0032283
X0414961Y0022047
X0403937Y002874
X0397244Y0025984
X0377165Y0027953
X0370079Y0028346
X0431496Y0009449
X0448032
X0454724Y0012992
X0460236Y001811
X0461811Y0024803
Y0033465
X0462205Y004252
X0466142Y0050394
X0474803
X0483858
X049252Y0050787
X049252Y0059449
X0483727
X0474934
X0466142
Y0071653
X0474934
X0483727
X049252
Y0083858
X0483727
X0474934
X0466142
X0466929Y0096063
X0475984
X0485039
X049252Y0096063
X0461811Y010315
X0455905Y0114567
X0455512Y0122441
X0455118Y0129528
X0448425Y0129134
Y0134252
X0442126
X0441732Y0129134
Y0123228
X0448425Y0122835
X0416929Y0126378
X0413386Y0120472
X0403937Y0120866
X0407874Y0127165
X0406299Y0134646
X0413386
X037441Y0133858
Y0125591
Y0117323
Y0109055
X0386221Y012126
X0377165Y0079921
X0368898
Y0072835
Y0065354
X0369291Y0056693
X0377165Y0053937
Y0062598
Y007126
X0411417Y0061091
X0413779Y0053937
X0406693Y0054331
X036063Y0056693
Y0064961
Y0072441
Y0079921
X0351181
Y0072835
Y0064961
Y0057874
X0340551Y0060236
Y0066535
Y0072835
X0340945Y0079921
X0333071Y0080315
Y0073228
Y0066535
X0325984
Y0072835
Y0079921
X0325197Y0059449
X0332283
X0287008Y0060236
Y0069291
X0272835Y0068898
X0273228Y0077165
X0273622Y0085433
X0264173
X0263779Y0076772
X025315Y0085433
X0241732
X0233858
X0212205
Y009252
X0212598Y0056693
X0233465Y0054724
X0240158Y0111811
Y0117323
X0240551Y0122835
X0251575
X0251969Y0117323
Y0111811
X0246457Y0111417
Y0117323
X0268898
X0274803Y0115354
X0281496Y0111811
X0283858Y010748
X0290945
X0288976Y0111811
X0295669Y0112205
X0298031Y0117323
X0298425Y010748
X032874Y0109449
X0328346Y0117717
X032874Y0125591
Y0134252
X0338583
Y0125853
Y0117454
Y0109055
X0350787
Y0117323
Y0125591
Y0133858
X0362992
Y0125591
Y0117323
Y0109055
X022559Y0119291
X0200787Y011496
X0200393Y0109055
X0204724Y0092126
X0205512Y0085827
X0204331Y0056693
X0194488Y0057087
X0187795Y006063
X0183465Y0057087
X0177953Y0059842
X018189Y0066535
X0122441Y0069291
Y0076378
X0117717Y0079134
X0113386Y0074803
X0107874Y0067323
X010748Y0061811
X0122441Y0062205
X0122835Y0083464
X0107874Y0094488
X0102756Y0100787
X0094882Y0101181
X0087402Y0103937
X0065748Y0097244
X005748Y0098032
Y0104331
X0059449Y0122835
Y0130709
X0059842Y0138583
X0057087Y0079134
X0057874Y0072835
X0065354Y007126
X0112992Y0112598
X0130315Y0117323
X0140551Y0122047
X0139764Y0109055
X0141339Y0098032
X0051968Y0082677
X0052362Y0077165
X0027559Y0080315
X0020341
X001273Y0080053
X0003937Y0080446
Y0092585
X001273Y0092388
X0020341Y009252
X0027953
Y0104724
X0020341
X001273Y0104724
X0013386Y0112598
X0004724Y0115354
X0003937Y0104724
X0023228Y0114567
X0029921Y0122835
X0031102Y0134252
X0028346Y0140157
X0038189Y0138583
X0038583Y0132283
X0045669
X0045407Y0138583
X0052625
X0052756Y0132677
X0028346Y006811
X0020341
X001273Y0067716
X0003937Y0068307
Y0056168
X001273Y0055381
X0020341Y0055905
X0027953
T02
X0043701Y0030315
Y0038189
Y0046063
Y0053937
Y0061811
Y0069685
Y0077559
Y0085433
Y0093307
Y0101181
Y0109055
Y0116929
T03
X0429134Y0018701
Y0028701
Y0038701
Y0048701
Y0058701
Y0086614
Y0096614
Y0106614
Y0116614
Y0126614
T04
X0453543Y0044094
Y0057874
Y0071653
Y0085433
Y0099213
X0173228Y0069291
X0133858
T05
X0014567Y0014961
X0488583
X0488976Y0128346
X0014961Y0129134
M30
