%FSLAX25Y25*%
%MOIN*%
G70*
G01*
G75*
%ADD10R,0.07087X0.14173*%
%ADD11R,0.03937X0.04724*%
%ADD12R,0.06299X0.13780*%
%ADD13O,0.07874X0.02400*%
%ADD14O,0.07874X0.02402*%
%ADD15R,0.03465X0.05000*%
%ADD16R,0.05512X0.04724*%
%ADD17R,0.04724X0.03937*%
%ADD18R,0.05118X0.07480*%
%ADD19R,0.04724X0.03150*%
%ADD20R,0.08268X0.07874*%
%ADD21R,0.03150X0.03150*%
%ADD22R,0.06299X0.03937*%
%ADD23R,0.20079X0.18898*%
%ADD24R,0.11811X0.03937*%
%ADD25R,0.01575X0.07874*%
%ADD26R,0.03937X0.01575*%
%ADD27O,0.10000X0.02400*%
%ADD28O,0.10000X0.02402*%
%ADD29R,0.12205X0.06102*%
%ADD30C,0.02000*%
%ADD31C,0.02500*%
%ADD32C,0.03000*%
%ADD33C,0.02362*%
%ADD34C,0.05000*%
%ADD35C,0.03500*%
%ADD36C,0.02200*%
%ADD37C,0.01000*%
%ADD38C,0.04000*%
%ADD39C,0.07000*%
%ADD40C,0.02400*%
%ADD41C,0.06000*%
%ADD42C,0.04500*%
%ADD43C,0.05906*%
%ADD44R,0.05906X0.05906*%
%ADD45C,0.19685*%
%ADD46C,0.07874*%
%ADD47R,0.07874X0.07874*%
%ADD48C,0.00787*%
%ADD49C,0.07480*%
%ADD50R,0.07480X0.07480*%
%ADD51C,0.03543*%
%ADD52R,0.09055X0.05512*%
%ADD53R,0.07874X0.03937*%
%ADD54R,0.11811X0.15748*%
%ADD55R,0.03937X0.02362*%
%ADD56C,0.00787*%
%ADD57C,0.01969*%
%ADD58C,0.01575*%
%ADD59C,0.01181*%
%ADD60C,0.00394*%
%ADD61C,0.00600*%
%ADD62C,0.01600*%
D61*
X41929Y30315D02*
X45472D01*
X43701Y28543D02*
Y32087D01*
X41929Y46063D02*
X45472D01*
X43701Y44291D02*
Y47835D01*
X41929Y53937D02*
X45472D01*
X43701Y52165D02*
Y55709D01*
X41929Y61811D02*
X45472D01*
X43701Y60039D02*
Y63583D01*
X41929Y69685D02*
X45472D01*
X43701Y67913D02*
Y71457D01*
X41929Y77559D02*
X45472D01*
X43701Y75787D02*
Y79331D01*
X41929Y85433D02*
X45472D01*
X43701Y83661D02*
Y87205D01*
X41929Y93307D02*
X45472D01*
X43701Y91536D02*
Y95079D01*
X41929Y101181D02*
X45472D01*
X43701Y99410D02*
Y102953D01*
X41929Y109055D02*
X45472D01*
X43701Y107283D02*
Y110827D01*
X41929Y116929D02*
X45472D01*
X43701Y115157D02*
Y118701D01*
X41929Y38189D02*
X45472D01*
X43701Y36417D02*
Y39961D01*
X8661Y129134D02*
X21260D01*
X14961Y122835D02*
Y135433D01*
X482283Y14961D02*
X494882D01*
X488583Y8661D02*
Y21260D01*
X482677Y128346D02*
X495276D01*
X488976Y122047D02*
Y134646D01*
X8268Y14961D02*
X20866D01*
X14567Y8661D02*
Y21260D01*
X170866Y69291D02*
X175591D01*
X173228Y66929D02*
Y71653D01*
X131496Y69291D02*
X136221D01*
X133858Y66929D02*
Y71653D01*
X451181Y99213D02*
X455905D01*
X453543Y96850D02*
Y101575D01*
X451181Y44094D02*
X455905D01*
X453543Y41732D02*
Y46457D01*
X451181Y57874D02*
X455905D01*
X453543Y55512D02*
Y60236D01*
X451181Y71653D02*
X455905D01*
X453543Y69291D02*
Y74016D01*
X451181Y85433D02*
X455905D01*
X453543Y83071D02*
Y87795D01*
X467323Y107283D02*
X475197D01*
X471260Y103347D02*
Y111221D01*
X467323Y36024D02*
X475197D01*
X471260Y32087D02*
Y39961D01*
X388622Y131614D02*
X401614D01*
X395118Y125118D02*
Y138110D01*
X388622Y81614D02*
X401614D01*
X395118Y75118D02*
Y88110D01*
X426968Y126614D02*
X431299D01*
X429134Y124449D02*
Y128779D01*
X426968Y116614D02*
X431299D01*
X429134Y114449D02*
Y118780D01*
X426968Y106614D02*
X431299D01*
X429134Y104449D02*
Y108780D01*
X426968Y96614D02*
X431299D01*
X429134Y94449D02*
Y98779D01*
X426968Y86614D02*
X431299D01*
X429134Y84449D02*
Y88779D01*
X388622Y63701D02*
X401614D01*
X395118Y57205D02*
Y70197D01*
X388622Y13701D02*
X401614D01*
X395118Y7205D02*
Y20197D01*
X426968Y58701D02*
X431299D01*
X429134Y56535D02*
Y60866D01*
X426968Y48701D02*
X431299D01*
X429134Y46535D02*
Y50866D01*
X426968Y38701D02*
X431299D01*
X429134Y36535D02*
Y40866D01*
X426968Y28701D02*
X431299D01*
X429134Y26535D02*
Y30866D01*
X426968Y18701D02*
X431299D01*
X429134Y16535D02*
Y20866D01*
X199803Y114960D02*
X201771D01*
X200787Y113976D02*
Y115945D01*
X101772Y100787D02*
X103740D01*
X102756Y99803D02*
Y101772D01*
X210433Y24803D02*
X212402D01*
X211417Y23819D02*
Y25787D01*
X210039Y20079D02*
X212008D01*
X211024Y19094D02*
Y21063D01*
X108071Y40551D02*
X110039D01*
X109055Y39567D02*
Y41535D01*
X491535Y50787D02*
X493504D01*
X492520Y49803D02*
Y51772D01*
X308465Y31496D02*
X310433D01*
X309449Y30512D02*
Y32480D01*
X297047Y117323D02*
X299016D01*
X298031Y116339D02*
Y118307D01*
X325000Y66535D02*
X326969D01*
X325984Y65551D02*
Y67520D01*
X325000Y72835D02*
X326969D01*
X325984Y71850D02*
Y73819D01*
X325000Y79921D02*
X326969D01*
X325984Y78937D02*
Y80905D01*
X362402Y28740D02*
X364370D01*
X363386Y27756D02*
Y29724D01*
X361614Y36614D02*
X363583D01*
X362598Y35630D02*
Y37598D01*
X360827Y45669D02*
X362795D01*
X361811Y44685D02*
Y46654D01*
X376181Y79921D02*
X378150D01*
X377165Y78937D02*
Y80905D01*
X376181Y71260D02*
X378150D01*
X377165Y70276D02*
Y72244D01*
X58465Y122835D02*
X60433D01*
X59449Y121850D02*
Y123819D01*
X58465Y130709D02*
X60433D01*
X59449Y129724D02*
Y131693D01*
X106496Y61811D02*
X108465D01*
X107480Y60827D02*
Y62795D01*
X106890Y67323D02*
X108858D01*
X107874Y66339D02*
Y68307D01*
X81693Y30315D02*
X83661D01*
X82677Y29331D02*
Y31299D01*
X121457Y76378D02*
X123425D01*
X122441Y75394D02*
Y77362D01*
X121457Y69291D02*
X123425D01*
X122441Y68307D02*
Y70276D01*
X121457Y62205D02*
X123425D01*
X122441Y61221D02*
Y63189D01*
X112402Y74803D02*
X114370D01*
X113386Y73819D02*
Y75787D01*
X116732Y79134D02*
X118701D01*
X117717Y78150D02*
Y80118D01*
X121850Y83464D02*
X123819D01*
X122835Y82480D02*
Y84449D01*
X142323Y42913D02*
X144291D01*
X143307Y41929D02*
Y43898D01*
X134843Y42913D02*
X136811D01*
X135827Y41929D02*
Y43898D01*
X142323Y36220D02*
X144291D01*
X143307Y35236D02*
Y37205D01*
X126181Y51181D02*
X128150D01*
X127165Y50197D02*
Y52165D01*
X119095Y51575D02*
X121063D01*
X120079Y50591D02*
Y52559D01*
X109252Y51575D02*
X111221D01*
X110236Y50591D02*
Y52559D01*
X65945Y45669D02*
X67913D01*
X66929Y44685D02*
Y46654D01*
X63583Y50000D02*
X65551D01*
X64567Y49016D02*
Y50984D01*
X430512Y9449D02*
X432480D01*
X431496Y8465D02*
Y10433D01*
X459252Y18110D02*
X461221D01*
X460236Y17126D02*
Y19094D01*
X57677Y50000D02*
X59646D01*
X58661Y49016D02*
Y50984D01*
X54528Y45276D02*
X56496D01*
X55512Y44291D02*
Y46260D01*
X51378Y50394D02*
X53347D01*
X52362Y49409D02*
Y51378D01*
X60039Y45276D02*
X62008D01*
X61024Y44291D02*
Y46260D01*
X27362Y140157D02*
X29331D01*
X28346Y139173D02*
Y141142D01*
X44423Y138583D02*
X46391D01*
X45407Y137598D02*
Y139567D01*
X12402Y112598D02*
X14370D01*
X13386Y111614D02*
Y113583D01*
X22244Y114567D02*
X24213D01*
X23228Y113583D02*
Y115551D01*
X37205Y138583D02*
X39173D01*
X38189Y137598D02*
Y139567D01*
X51640Y138583D02*
X53609D01*
X52625Y137598D02*
Y139567D01*
X93898Y101181D02*
X95866D01*
X94882Y100197D02*
Y102165D01*
X143110Y4331D02*
X145079D01*
X144095Y3347D02*
Y5315D01*
X140354Y98032D02*
X142323D01*
X141339Y97047D02*
Y99016D01*
X180905Y66535D02*
X182874D01*
X181890Y65551D02*
Y67520D01*
X262402Y16535D02*
X264370D01*
X263386Y15551D02*
Y17520D01*
X272244Y16929D02*
X274213D01*
X273228Y15945D02*
Y17913D01*
X232480Y54724D02*
X234449D01*
X233465Y53740D02*
Y55709D01*
X272244Y30709D02*
X274213D01*
X273228Y29724D02*
Y31693D01*
X60433Y16535D02*
X62402D01*
X61417Y15551D02*
Y17520D01*
X102165Y5512D02*
X104134D01*
X103150Y4528D02*
Y6496D01*
X81430Y5512D02*
X83399D01*
X82415Y4528D02*
Y6496D01*
X90354Y5118D02*
X92323D01*
X91339Y4134D02*
Y6102D01*
X102165Y12795D02*
X104134D01*
X103150Y11811D02*
Y13780D01*
X2953Y31890D02*
X4921D01*
X3937Y30906D02*
Y32874D01*
X70669Y5512D02*
X72638D01*
X71653Y4528D02*
Y6496D01*
X60433Y23228D02*
X62402D01*
X61417Y22244D02*
Y24213D01*
X29331Y9449D02*
X31299D01*
X30315Y8465D02*
Y10433D01*
X60433Y5512D02*
X62402D01*
X61417Y4528D02*
Y6496D01*
X50328Y10630D02*
X52297D01*
X51312Y9646D02*
Y11614D01*
X26969Y43701D02*
X28937D01*
X27953Y42717D02*
Y44685D01*
X26969Y55905D02*
X28937D01*
X27953Y54921D02*
Y56890D01*
X27362Y68110D02*
X29331D01*
X28346Y67126D02*
Y69095D01*
X26969Y92520D02*
X28937D01*
X27953Y91535D02*
Y93504D01*
X26575Y80315D02*
X28543D01*
X27559Y79331D02*
Y81299D01*
X11745Y43045D02*
X13714D01*
X12730Y42060D02*
Y44029D01*
X11220Y31890D02*
X13189D01*
X12205Y30906D02*
Y32874D01*
X26969Y104724D02*
X28937D01*
X27953Y103740D02*
Y105709D01*
X11745Y80053D02*
X13714D01*
X12730Y79068D02*
Y81037D01*
X11745Y92388D02*
X13714D01*
X12730Y91404D02*
Y93373D01*
X3740Y115354D02*
X5709D01*
X4724Y114370D02*
Y116339D01*
X11745Y55381D02*
X13714D01*
X12730Y54396D02*
Y56365D01*
X11745Y67716D02*
X13714D01*
X12730Y66732D02*
Y68701D01*
X60433Y10630D02*
X62402D01*
X61417Y9646D02*
Y11614D01*
X50328Y5512D02*
X52297D01*
X51312Y4528D02*
Y6496D01*
X40354Y10630D02*
X42323D01*
X41339Y9646D02*
Y11614D01*
X39961Y5512D02*
X41929D01*
X40945Y4528D02*
Y6496D01*
X2953Y104724D02*
X4921D01*
X3937Y103740D02*
Y105709D01*
X385236Y121260D02*
X387205D01*
X386221Y120276D02*
Y122244D01*
X406890Y127165D02*
X408858D01*
X407874Y126181D02*
Y128150D01*
X396260Y25984D02*
X398228D01*
X397244Y25000D02*
Y26969D01*
X410433Y61091D02*
X412402D01*
X411417Y60107D02*
Y62076D01*
X405709Y54331D02*
X407677D01*
X406693Y53347D02*
Y55315D01*
X324213Y59449D02*
X326181D01*
X325197Y58465D02*
Y60433D01*
X473950Y83858D02*
X475919D01*
X474934Y82874D02*
Y84842D01*
X473950Y59449D02*
X475919D01*
X474934Y58465D02*
Y60433D01*
X475000Y96063D02*
X476968D01*
X475984Y95079D02*
Y97047D01*
X473950Y71653D02*
X475919D01*
X474934Y70669D02*
Y72638D01*
X482743Y59449D02*
X484711D01*
X483727Y58465D02*
Y60433D01*
X491535Y59449D02*
X493504D01*
X492520Y58465D02*
Y60433D01*
X491535Y71653D02*
X493504D01*
X492520Y70669D02*
Y72638D01*
X491535Y83858D02*
X493504D01*
X492520Y82874D02*
Y84842D01*
X367913Y79921D02*
X369882D01*
X368898Y78937D02*
Y80905D01*
X359646Y79921D02*
X361614D01*
X360630Y78937D02*
Y80905D01*
X350197Y79921D02*
X352165D01*
X351181Y78937D02*
Y80905D01*
X339961Y79921D02*
X341929D01*
X340945Y78937D02*
Y80905D01*
X332087Y80315D02*
X334055D01*
X333071Y79331D02*
Y81299D01*
X373425Y109055D02*
X375394D01*
X374410Y108071D02*
Y110039D01*
X362008Y109055D02*
X363976D01*
X362992Y108071D02*
Y110039D01*
X337598Y109055D02*
X339567D01*
X338583Y108071D02*
Y110039D01*
X349803Y109055D02*
X351772D01*
X350787Y108071D02*
Y110039D01*
X182087Y34646D02*
X184055D01*
X183071Y33661D02*
Y35630D01*
X295866Y29567D02*
X297835D01*
X296850Y28583D02*
Y30551D01*
X302559Y29567D02*
X304528D01*
X303543Y28583D02*
Y30551D01*
X102165Y21260D02*
X104134D01*
X103150Y20276D02*
Y22244D01*
X157677Y5118D02*
X159646D01*
X158661Y4134D02*
Y6102D01*
X112008Y112598D02*
X113976D01*
X112992Y111614D02*
Y113583D01*
X86811Y30315D02*
X88779D01*
X87795Y29331D02*
Y31299D01*
X134843Y36220D02*
X136811D01*
X135827Y35236D02*
Y37205D01*
X138779Y109055D02*
X140748D01*
X139764Y108071D02*
Y110039D01*
X64764Y97244D02*
X66732D01*
X65748Y96260D02*
Y98228D01*
X139567Y122047D02*
X141535D01*
X140551Y121063D02*
Y123031D01*
X129331Y117323D02*
X131299D01*
X130315Y116339D02*
Y118307D01*
X224606Y119291D02*
X226575D01*
X225590Y118307D02*
Y120276D01*
X109646Y45669D02*
X111614D01*
X110630Y44685D02*
Y46654D01*
X166732Y34646D02*
X168701D01*
X167717Y33661D02*
Y35630D01*
X64370Y71260D02*
X66339D01*
X65354Y70276D02*
Y72244D01*
X86417Y103937D02*
X88386D01*
X87402Y102953D02*
Y104921D01*
X199409Y109055D02*
X201378D01*
X200393Y108071D02*
Y110039D01*
X250590Y122835D02*
X252559D01*
X251575Y121850D02*
Y123819D01*
X250984Y117323D02*
X252953D01*
X251969Y116339D02*
Y118307D01*
X250984Y111811D02*
X252953D01*
X251969Y110827D02*
Y112795D01*
X239173Y111811D02*
X241142D01*
X240158Y110827D02*
Y112795D01*
X239173Y117323D02*
X241142D01*
X240158Y116339D02*
Y118307D01*
X245472Y117323D02*
X247441D01*
X246457Y116339D02*
Y118307D01*
X239567Y122835D02*
X241535D01*
X240551Y121850D02*
Y123819D01*
X245472Y111417D02*
X247441D01*
X246457Y110433D02*
Y112402D01*
X337598Y125853D02*
X339567D01*
X338583Y124869D02*
Y126837D01*
X349803Y125591D02*
X351772D01*
X350787Y124606D02*
Y126575D01*
X362008Y125591D02*
X363976D01*
X362992Y124606D02*
Y126575D01*
X362008Y117323D02*
X363976D01*
X362992Y116339D02*
Y118307D01*
X349803Y117323D02*
X351772D01*
X350787Y116339D02*
Y118307D01*
X337598Y117454D02*
X339567D01*
X338583Y116470D02*
Y118438D01*
X337598Y134252D02*
X339567D01*
X338583Y133268D02*
Y135236D01*
X349803Y133858D02*
X351772D01*
X350787Y132874D02*
Y134843D01*
X362008Y133858D02*
X363976D01*
X362992Y132874D02*
Y134843D01*
X373425Y133858D02*
X375394D01*
X374410Y132874D02*
Y134843D01*
X373425Y125591D02*
X375394D01*
X374410Y124606D02*
Y126575D01*
X373425Y117323D02*
X375394D01*
X374410Y116339D02*
Y118307D01*
X332087Y73228D02*
X334055D01*
X333071Y72244D02*
Y74213D01*
X339567Y72835D02*
X341535D01*
X340551Y71850D02*
Y73819D01*
X350197Y72835D02*
X352165D01*
X351181Y71850D02*
Y73819D01*
X332087Y66535D02*
X334055D01*
X333071Y65551D02*
Y67520D01*
X339567Y66535D02*
X341535D01*
X340551Y65551D02*
Y67520D01*
X350197Y64961D02*
X352165D01*
X351181Y63976D02*
Y65945D01*
X331299Y59449D02*
X333268D01*
X332283Y58465D02*
Y60433D01*
X339567Y60236D02*
X341535D01*
X340551Y59252D02*
Y61221D01*
X350197Y57874D02*
X352165D01*
X351181Y56890D02*
Y58858D01*
X359646Y72441D02*
X361614D01*
X360630Y71457D02*
Y73425D01*
X359646Y64961D02*
X361614D01*
X360630Y63976D02*
Y65945D01*
X359646Y56693D02*
X361614D01*
X360630Y55709D02*
Y57677D01*
X367913Y72835D02*
X369882D01*
X368898Y71850D02*
Y73819D01*
X367913Y65354D02*
X369882D01*
X368898Y64370D02*
Y66339D01*
X368307Y56693D02*
X370276D01*
X369291Y55709D02*
Y57677D01*
X367913Y46063D02*
X369882D01*
X368898Y45079D02*
Y47047D01*
X367913Y37402D02*
X369882D01*
X368898Y36417D02*
Y38386D01*
X369094Y28346D02*
X371063D01*
X370079Y27362D02*
Y29331D01*
X376181Y62598D02*
X378150D01*
X377165Y61614D02*
Y63583D01*
X376181Y53937D02*
X378150D01*
X377165Y52953D02*
Y54921D01*
X376181Y45276D02*
X378150D01*
X377165Y44291D02*
Y46260D01*
X376181Y27953D02*
X378150D01*
X377165Y26969D02*
Y28937D01*
X491535Y96063D02*
X493504D01*
X492520Y95079D02*
Y97047D01*
X482743Y83858D02*
X484711D01*
X483727Y82874D02*
Y84842D01*
X482743Y71653D02*
X484711D01*
X483727Y70669D02*
Y72638D01*
X482874Y50394D02*
X484842D01*
X483858Y49409D02*
Y51378D01*
X484055Y96063D02*
X486024D01*
X485039Y95079D02*
Y97047D01*
X465158Y71653D02*
X467126D01*
X466142Y70669D02*
Y72638D01*
X447047Y9449D02*
X449016D01*
X448032Y8465D02*
Y10433D01*
X473819Y50394D02*
X475787D01*
X474803Y49409D02*
Y51378D01*
X465945Y96063D02*
X467913D01*
X466929Y95079D02*
Y97047D01*
X465158Y83858D02*
X467126D01*
X466142Y82874D02*
Y84842D01*
X465158Y59449D02*
X467126D01*
X466142Y58465D02*
Y60433D01*
X465158Y50394D02*
X467126D01*
X466142Y49409D02*
Y51378D01*
X272638Y85433D02*
X274606D01*
X273622Y84449D02*
Y86417D01*
X272244Y77165D02*
X274213D01*
X273228Y76181D02*
Y78150D01*
X271850Y68898D02*
X273819D01*
X272835Y67913D02*
Y69882D01*
X263189Y85433D02*
X265158D01*
X264173Y84449D02*
Y86417D01*
X262795Y76772D02*
X264764D01*
X263779Y75787D02*
Y77756D01*
X252165Y85433D02*
X254134D01*
X253150Y84449D02*
Y86417D01*
X240748Y85433D02*
X242717D01*
X241732Y84449D02*
Y86417D01*
X204528Y85827D02*
X206496D01*
X205512Y84842D02*
Y86811D01*
X203740Y92126D02*
X205709D01*
X204724Y91142D02*
Y93110D01*
X412795Y53937D02*
X414764D01*
X413779Y52953D02*
Y54921D01*
X412795Y43307D02*
X414764D01*
X413779Y42323D02*
Y44291D01*
X413583Y32283D02*
X415551D01*
X414567Y31299D02*
Y33268D01*
X413976Y22047D02*
X415945D01*
X414961Y21063D02*
Y23031D01*
X412402Y134646D02*
X414370D01*
X413386Y133661D02*
Y135630D01*
X412402Y120472D02*
X414370D01*
X413386Y119488D02*
Y121457D01*
X402953Y120866D02*
X404921D01*
X403937Y119882D02*
Y121850D01*
X454134Y129528D02*
X456102D01*
X455118Y128543D02*
Y130512D01*
X447441Y129134D02*
X449409D01*
X448425Y128150D02*
Y130118D01*
X440748Y129134D02*
X442717D01*
X441732Y128150D02*
Y130118D01*
X454528Y122441D02*
X456496D01*
X455512Y121457D02*
Y123425D01*
X447441Y134252D02*
X449409D01*
X448425Y133268D02*
Y135236D01*
X441142Y134252D02*
X443110D01*
X442126Y133268D02*
Y135236D01*
X454921Y114567D02*
X456890D01*
X455905Y113583D02*
Y115551D01*
X460827Y103150D02*
X462795D01*
X461811Y102165D02*
Y104134D01*
X315945Y22047D02*
X317913D01*
X316929Y21063D02*
Y23031D01*
X11745Y104724D02*
X13714D01*
X12730Y103740D02*
Y105709D01*
X2953Y92585D02*
X4921D01*
X3937Y91601D02*
Y93569D01*
X2953Y44029D02*
X4921D01*
X3937Y43045D02*
Y45013D01*
X50197Y23228D02*
X52165D01*
X51181Y22244D02*
Y24213D01*
X56496Y98032D02*
X58465D01*
X57480Y97047D02*
Y99016D01*
X56890Y72835D02*
X58858D01*
X57874Y71850D02*
Y73819D01*
X19357Y104724D02*
X21326D01*
X20341Y103740D02*
Y105709D01*
X19357Y92520D02*
X21326D01*
X20341Y91535D02*
Y93504D01*
X19357Y80315D02*
X21326D01*
X20341Y79331D02*
Y81299D01*
X19357Y68110D02*
X21326D01*
X20341Y67126D02*
Y69095D01*
X19357Y55905D02*
X21326D01*
X20341Y54921D02*
Y56890D01*
X19357Y43701D02*
X21326D01*
X20341Y42717D02*
Y44685D01*
X19488Y31890D02*
X21457D01*
X20472Y30906D02*
Y32874D01*
X30118Y134252D02*
X32087D01*
X31102Y133268D02*
Y135236D01*
X44685Y132283D02*
X46654D01*
X45669Y131299D02*
Y133268D01*
X51772Y132677D02*
X53740D01*
X52756Y131693D02*
Y133661D01*
X26181Y3937D02*
X28150D01*
X27165Y2953D02*
Y4921D01*
X25394Y26378D02*
X27362D01*
X26378Y25394D02*
Y27362D01*
X70669Y10630D02*
X72638D01*
X71653Y9646D02*
Y11614D01*
X70669Y22835D02*
X72638D01*
X71653Y21850D02*
Y23819D01*
X272244Y23622D02*
X274213D01*
X273228Y22638D02*
Y24606D01*
X262402Y22835D02*
X264370D01*
X263386Y21850D02*
Y23819D01*
X252165Y22835D02*
X254134D01*
X253150Y21850D02*
Y23819D01*
X242717Y22835D02*
X244685D01*
X243701Y21850D02*
Y23819D01*
X242717Y30709D02*
X244685D01*
X243701Y29724D02*
Y31693D01*
X252165Y30709D02*
X254134D01*
X253150Y29724D02*
Y31693D01*
X242323Y38976D02*
X244291D01*
X243307Y37992D02*
Y39961D01*
X252165Y38583D02*
X254134D01*
X253150Y37598D02*
Y39567D01*
X376181Y36614D02*
X378150D01*
X377165Y35630D02*
Y37598D01*
X395472Y40945D02*
X397441D01*
X396457Y39961D02*
Y41929D01*
X401378Y48425D02*
X403346D01*
X402362Y47441D02*
Y49409D01*
X402953Y28740D02*
X404921D01*
X403937Y27756D02*
Y29724D01*
X387205Y50000D02*
X389173D01*
X388189Y49016D02*
Y50984D01*
X386417Y36220D02*
X388386D01*
X387402Y35236D02*
Y37205D01*
X280512Y111811D02*
X282480D01*
X281496Y110827D02*
Y112795D01*
X294685Y112205D02*
X296654D01*
X295669Y111221D02*
Y113189D01*
X287992Y111811D02*
X289961D01*
X288976Y110827D02*
Y112795D01*
X297441Y107480D02*
X299410D01*
X298425Y106496D02*
Y108465D01*
X267913Y117323D02*
X269882D01*
X268898Y116339D02*
Y118307D01*
X273819Y115354D02*
X275787D01*
X274803Y114370D02*
Y116339D01*
X282874Y107480D02*
X284842D01*
X283858Y106496D02*
Y108465D01*
X289961Y107480D02*
X291929D01*
X290945Y106496D02*
Y108465D01*
X327756Y134252D02*
X329724D01*
X328740Y133268D02*
Y135236D01*
X327756Y125591D02*
X329724D01*
X328740Y124606D02*
Y126575D01*
X327756Y109449D02*
X329724D01*
X328740Y108465D02*
Y110433D01*
X405315Y134646D02*
X407283D01*
X406299Y133661D02*
Y135630D01*
X415945Y126378D02*
X417913D01*
X416929Y125394D02*
Y127362D01*
X286024Y69291D02*
X287992D01*
X287008Y68307D02*
Y70276D01*
X286024Y60236D02*
X287992D01*
X287008Y59252D02*
Y61221D01*
X262402Y30709D02*
X264370D01*
X263386Y29724D02*
Y31693D01*
X233661Y22441D02*
X235630D01*
X234646Y21457D02*
Y23425D01*
X252165Y16929D02*
X254134D01*
X253150Y15945D02*
Y17913D01*
X233661Y30709D02*
X235630D01*
X234646Y29724D02*
Y31693D01*
X232874Y38583D02*
X234842D01*
X233858Y37598D02*
Y39567D01*
X241929Y46850D02*
X243898D01*
X242913Y45866D02*
Y47835D01*
X184055Y5906D02*
X186024D01*
X185039Y4921D02*
Y6890D01*
X171850Y4724D02*
X173819D01*
X172835Y3740D02*
Y5709D01*
X187598Y12992D02*
X189567D01*
X188583Y12008D02*
Y13976D01*
X27756Y31890D02*
X29724D01*
X28740Y30906D02*
Y32874D01*
X70669Y16535D02*
X72638D01*
X71653Y15551D02*
Y17520D01*
X29331Y17323D02*
X31299D01*
X30315Y16339D02*
Y18307D01*
X50328Y16535D02*
X52297D01*
X51312Y15551D02*
Y17520D01*
X40354Y16535D02*
X42323D01*
X41339Y15551D02*
Y17520D01*
X51378Y77165D02*
X53347D01*
X52362Y76181D02*
Y78150D01*
X50984Y82677D02*
X52953D01*
X51968Y81693D02*
Y83661D01*
X28937Y122835D02*
X30906D01*
X29921Y121850D02*
Y123819D01*
X37598Y132283D02*
X39567D01*
X38583Y131299D02*
Y133268D01*
X58858Y138583D02*
X60827D01*
X59842Y137598D02*
Y139567D01*
X106890Y94488D02*
X108858D01*
X107874Y93504D02*
Y95472D01*
X315945Y16142D02*
X317913D01*
X316929Y15157D02*
Y17126D01*
X316339Y10630D02*
X318307D01*
X317323Y9646D02*
Y11614D01*
X211614Y56693D02*
X213583D01*
X212598Y55709D02*
Y57677D01*
X211614Y51968D02*
X213583D01*
X212598Y50984D02*
Y52953D01*
X2953Y80446D02*
X4921D01*
X3937Y79462D02*
Y81430D01*
X2953Y68307D02*
X4921D01*
X3937Y67323D02*
Y69291D01*
X2953Y56168D02*
X4921D01*
X3937Y55184D02*
Y57152D01*
X56102Y79134D02*
X58071D01*
X57087Y78150D02*
Y80118D01*
X56496Y104331D02*
X58465D01*
X57480Y103347D02*
Y105315D01*
X134843Y28740D02*
X136811D01*
X135827Y27756D02*
Y29724D01*
X232874Y46850D02*
X234842D01*
X233858Y45866D02*
Y47835D01*
X203346Y56693D02*
X205315D01*
X204331Y55709D02*
Y57677D01*
X186811Y60630D02*
X188779D01*
X187795Y59646D02*
Y61614D01*
X176969Y59842D02*
X178937D01*
X177953Y58858D02*
Y60827D01*
X182480Y57087D02*
X184449D01*
X183465Y56102D02*
Y58071D01*
X193504Y57087D02*
X195472D01*
X194488Y56102D02*
Y58071D01*
X453740Y12992D02*
X455709D01*
X454724Y12008D02*
Y13976D01*
X461221Y42520D02*
X463189D01*
X462205Y41535D02*
Y43504D01*
X460827Y24803D02*
X462795D01*
X461811Y23819D02*
Y25787D01*
X460827Y33465D02*
X462795D01*
X461811Y32480D02*
Y34449D01*
X447441Y122835D02*
X449409D01*
X448425Y121850D02*
Y123819D01*
X440748Y123228D02*
X442717D01*
X441732Y122244D02*
Y124213D01*
X327362Y117717D02*
X329331D01*
X328346Y116732D02*
Y118701D01*
X211221Y92520D02*
X213189D01*
X212205Y91535D02*
Y93504D01*
X211221Y85433D02*
X213189D01*
X212205Y84449D02*
Y86417D01*
X232874Y85433D02*
X234842D01*
X233858Y84449D02*
Y86417D01*
M02*
