%FSLAX25Y25*%
%MOIN*%
G70*
G01*
G75*
G04 Layer_Color=2752767*
%ADD10R,0.07087X0.14173*%
%ADD11R,0.03937X0.04724*%
%ADD12R,0.06299X0.13780*%
%ADD13O,0.07874X0.02400*%
%ADD14O,0.07874X0.02402*%
%ADD15R,0.03465X0.05000*%
%ADD16R,0.05512X0.04724*%
%ADD17R,0.04724X0.03937*%
%ADD18R,0.05118X0.07480*%
%ADD19R,0.04724X0.03150*%
%ADD20R,0.08268X0.07874*%
%ADD21R,0.03150X0.03150*%
%ADD22R,0.06299X0.03937*%
%ADD23R,0.20079X0.18898*%
%ADD24R,0.11811X0.03937*%
%ADD25R,0.01575X0.07874*%
%ADD26R,0.03937X0.01575*%
%ADD27O,0.10000X0.02400*%
%ADD28O,0.10000X0.02402*%
%ADD29R,0.12205X0.06102*%
%ADD30C,0.02000*%
%ADD31C,0.02500*%
%ADD32C,0.03000*%
%ADD33C,0.02362*%
%ADD34C,0.05000*%
%ADD35C,0.03500*%
%ADD36C,0.02200*%
%ADD37C,0.01000*%
%ADD38C,0.04000*%
%ADD39C,0.07000*%
%ADD40C,0.02400*%
%ADD41C,0.06000*%
%ADD42C,0.04500*%
%ADD43C,0.05906*%
%ADD44R,0.05906X0.05906*%
%ADD45C,0.19685*%
%ADD46C,0.07874*%
%ADD47R,0.07874X0.07874*%
%ADD48C,0.00787*%
%ADD49C,0.07480*%
%ADD50R,0.07480X0.07480*%
%ADD51C,0.03543*%
%ADD52R,0.09055X0.05512*%
%ADD53R,0.07874X0.03937*%
%ADD54R,0.11811X0.15748*%
%ADD55R,0.03937X0.02362*%
%ADD56C,0.00787*%
%ADD57C,0.01969*%
%ADD58C,0.01575*%
%ADD59C,0.01181*%
%ADD60C,0.00394*%
%ADD61C,0.00600*%
%ADD62C,0.01600*%
D37*
X14235Y324038D02*
X13235Y325037D01*
X11236D01*
X10236Y324038D01*
Y320039D01*
X11236Y319039D01*
X13235D01*
X14235Y320039D01*
Y322038D01*
X12236D01*
X67035Y319039D02*
X63036D01*
X67035Y323038D01*
Y324038D01*
X66035Y325037D01*
X64036D01*
X63036Y324038D01*
X69034Y320039D02*
X70034Y319039D01*
X72033D01*
X73033Y320039D01*
Y324038D01*
X72033Y325037D01*
X70034D01*
X69034Y324038D01*
Y323038D01*
X70034Y322038D01*
X73033D01*
X75032Y320039D02*
X76032Y319039D01*
X78031D01*
X79031Y320039D01*
Y324038D01*
X78031Y325037D01*
X76032D01*
X75032Y324038D01*
Y323038D01*
X76032Y322038D01*
X79031D01*
X132618Y319039D02*
X134617D01*
X133617D01*
Y325037D01*
X132618Y324038D01*
X137616Y320039D02*
X138616Y319039D01*
X140615D01*
X141615Y320039D01*
Y324038D01*
X140615Y325037D01*
X138616D01*
X137616Y324038D01*
Y323038D01*
X138616Y322038D01*
X141615D01*
X143614Y319039D02*
Y320039D01*
X144614D01*
Y319039D01*
X143614D01*
X152611Y325037D02*
X150612Y324038D01*
X148612Y322038D01*
Y320039D01*
X149612Y319039D01*
X151611D01*
X152611Y320039D01*
Y321039D01*
X151611Y322038D01*
X148612D01*
X154611Y324038D02*
X155610Y325037D01*
X157609D01*
X158609Y324038D01*
Y323038D01*
X157609Y322038D01*
X158609Y321039D01*
Y320039D01*
X157609Y319039D01*
X155610D01*
X154611Y320039D01*
Y321039D01*
X155610Y322038D01*
X154611Y323038D01*
Y324038D01*
X155610Y322038D02*
X157609D01*
X164607Y325037D02*
X160608D01*
Y322038D01*
X162608Y323038D01*
X163608D01*
X164607Y322038D01*
Y320039D01*
X163608Y319039D01*
X161608D01*
X160608Y320039D01*
X166607Y319039D02*
Y323038D01*
X167606D01*
X168606Y322038D01*
Y319039D01*
Y322038D01*
X169606Y323038D01*
X170605Y322038D01*
Y319039D01*
X172605D02*
X174604D01*
X173604D01*
Y323038D01*
X172605D01*
X177603Y319039D02*
X179602D01*
X178603D01*
Y325037D01*
X177603D01*
X190599Y319039D02*
X188600Y321039D01*
Y323038D01*
X190599Y325037D01*
X193598Y324038D02*
X194597Y325037D01*
X196597D01*
X197597Y324038D01*
Y320039D01*
X196597Y319039D01*
X194597D01*
X193598Y320039D01*
Y324038D01*
X199596Y319039D02*
Y320039D01*
X200596D01*
Y319039D01*
X199596D01*
X208593Y325037D02*
X204594D01*
Y322038D01*
X206594Y323038D01*
X207593D01*
X208593Y322038D01*
Y320039D01*
X207593Y319039D01*
X205594D01*
X204594Y320039D01*
X210592Y319039D02*
Y323038D01*
X211592D01*
X212592Y322038D01*
Y319039D01*
Y322038D01*
X213591Y323038D01*
X214591Y322038D01*
Y319039D01*
X216590D02*
Y323038D01*
X217590D01*
X218590Y322038D01*
Y319039D01*
Y322038D01*
X219589Y323038D01*
X220589Y322038D01*
Y319039D01*
X222588D02*
X224588Y321039D01*
Y323038D01*
X222588Y325037D01*
X266978Y319039D02*
Y325037D01*
X269977D01*
X270977Y324038D01*
Y322038D01*
X269977Y321039D01*
X266978D01*
X272976Y325037D02*
X276975D01*
X274975D01*
Y319039D01*
X278974Y325037D02*
Y319039D01*
Y322038D01*
X282973D01*
Y325037D01*
Y319039D01*
X317366D02*
Y325037D01*
X320365D01*
X321364Y324038D01*
Y322038D01*
X320365Y321039D01*
X317366D01*
X319365D02*
X321364Y319039D01*
X324363D02*
X326363D01*
X327362Y320039D01*
Y322038D01*
X326363Y323038D01*
X324363D01*
X323364Y322038D01*
Y320039D01*
X324363Y319039D01*
X329362Y323038D02*
Y320039D01*
X330361Y319039D01*
X333360D01*
Y323038D01*
X335360Y319039D02*
Y323038D01*
X338359D01*
X339358Y322038D01*
Y319039D01*
X345356Y325037D02*
Y319039D01*
X342357D01*
X341358Y320039D01*
Y322038D01*
X342357Y323038D01*
X345356D01*
X10236Y307039D02*
Y311038D01*
X12236Y313037D01*
X14235Y311038D01*
Y307039D01*
Y310038D01*
X10236D01*
X63036Y307039D02*
X65036D01*
X64036D01*
Y313037D01*
X63036Y312038D01*
X72033Y307039D02*
X68035D01*
X72033Y311038D01*
Y312038D01*
X71034Y313037D01*
X69034D01*
X68035Y312038D01*
X132618D02*
X133617Y313037D01*
X135617D01*
X136616Y312038D01*
Y311038D01*
X135617Y310038D01*
X134617D01*
X135617D01*
X136616Y309039D01*
Y308039D01*
X135617Y307039D01*
X133617D01*
X132618Y308039D01*
X142614Y313037D02*
X138616D01*
Y310038D01*
X140615Y311038D01*
X141615D01*
X142614Y310038D01*
Y308039D01*
X141615Y307039D01*
X139615D01*
X138616Y308039D01*
X144614Y307039D02*
Y308039D01*
X145613D01*
Y307039D01*
X144614D01*
X152611D02*
Y313037D01*
X149612Y310038D01*
X153611D01*
X155610Y312038D02*
X156610Y313037D01*
X158609D01*
X159609Y312038D01*
Y311038D01*
X158609Y310038D01*
X157609D01*
X158609D01*
X159609Y309039D01*
Y308039D01*
X158609Y307039D01*
X156610D01*
X155610Y308039D01*
X161608Y312038D02*
X162608Y313037D01*
X164607D01*
X165607Y312038D01*
Y311038D01*
X164607Y310038D01*
X163608D01*
X164607D01*
X165607Y309039D01*
Y308039D01*
X164607Y307039D01*
X162608D01*
X161608Y308039D01*
X167606Y307039D02*
Y311038D01*
X168606D01*
X169606Y310038D01*
Y307039D01*
Y310038D01*
X170605Y311038D01*
X171605Y310038D01*
Y307039D01*
X173604D02*
X175604D01*
X174604D01*
Y311038D01*
X173604D01*
X178603Y307039D02*
X180602D01*
X179602D01*
Y313037D01*
X178603D01*
X191598Y307039D02*
X189599Y309039D01*
Y311038D01*
X191598Y313037D01*
X194597Y312038D02*
X195597Y313037D01*
X197597D01*
X198596Y312038D01*
Y308039D01*
X197597Y307039D01*
X195597D01*
X194597Y308039D01*
Y312038D01*
X200596Y307039D02*
Y308039D01*
X201595D01*
Y307039D01*
X200596D01*
X205594Y308039D02*
X206594Y307039D01*
X208593D01*
X209593Y308039D01*
Y312038D01*
X208593Y313037D01*
X206594D01*
X205594Y312038D01*
Y311038D01*
X206594Y310038D01*
X209593D01*
X211592Y307039D02*
Y311038D01*
X212592D01*
X213591Y310038D01*
Y307039D01*
Y310038D01*
X214591Y311038D01*
X215591Y310038D01*
Y307039D01*
X217590D02*
Y311038D01*
X218590D01*
X219589Y310038D01*
Y307039D01*
Y310038D01*
X220589Y311038D01*
X221589Y310038D01*
Y307039D01*
X223588D02*
X225588Y309039D01*
Y311038D01*
X223588Y313037D01*
X266978Y307039D02*
Y313037D01*
X269977D01*
X270977Y312038D01*
Y310038D01*
X269977Y309039D01*
X266978D01*
X272976Y313037D02*
X276975D01*
X274975D01*
Y307039D01*
X278974Y313037D02*
Y307039D01*
Y310038D01*
X282973D01*
Y313037D01*
Y307039D01*
X317366D02*
Y313037D01*
X320365D01*
X321364Y312038D01*
Y310038D01*
X320365Y309039D01*
X317366D01*
X319365D02*
X321364Y307039D01*
X324363D02*
X326363D01*
X327362Y308039D01*
Y310038D01*
X326363Y311038D01*
X324363D01*
X323364Y310038D01*
Y308039D01*
X324363Y307039D01*
X329362Y311038D02*
Y308039D01*
X330361Y307039D01*
X333360D01*
Y311038D01*
X335360Y307039D02*
Y311038D01*
X338359D01*
X339358Y310038D01*
Y307039D01*
X345356Y313037D02*
Y307039D01*
X342357D01*
X341358Y308039D01*
Y310038D01*
X342357Y311038D01*
X345356D01*
X14235Y301037D02*
X10236D01*
Y298038D01*
X12236D01*
X10236D01*
Y295039D01*
X63036D02*
X65036D01*
X64036D01*
Y301037D01*
X63036Y300038D01*
X68035D02*
X69034Y301037D01*
X71034D01*
X72033Y300038D01*
Y296039D01*
X71034Y295039D01*
X69034D01*
X68035Y296039D01*
Y300038D01*
X135617Y295039D02*
Y301037D01*
X132618Y298038D01*
X136616D01*
X138616Y300038D02*
X139615Y301037D01*
X141615D01*
X142614Y300038D01*
Y299038D01*
X141615Y298038D01*
X140615D01*
X141615D01*
X142614Y297039D01*
Y296039D01*
X141615Y295039D01*
X139615D01*
X138616Y296039D01*
X144614Y295039D02*
Y296039D01*
X145613D01*
Y295039D01*
X144614D01*
X149612Y300038D02*
X150612Y301037D01*
X152611D01*
X153611Y300038D01*
Y299038D01*
X152611Y298038D01*
X151611D01*
X152611D01*
X153611Y297039D01*
Y296039D01*
X152611Y295039D01*
X150612D01*
X149612Y296039D01*
X155610Y300038D02*
X156610Y301037D01*
X158609D01*
X159609Y300038D01*
Y296039D01*
X158609Y295039D01*
X156610D01*
X155610Y296039D01*
Y300038D01*
X161608Y301037D02*
X165607D01*
Y300038D01*
X161608Y296039D01*
Y295039D01*
X167606D02*
Y299038D01*
X168606D01*
X169606Y298038D01*
Y295039D01*
Y298038D01*
X170605Y299038D01*
X171605Y298038D01*
Y295039D01*
X173604D02*
X175604D01*
X174604D01*
Y299038D01*
X173604D01*
X178603Y295039D02*
X180602D01*
X179602D01*
Y301037D01*
X178603D01*
X191598Y295039D02*
X189599Y297039D01*
Y299038D01*
X191598Y301037D01*
X194597Y295039D02*
X196597D01*
X195597D01*
Y301037D01*
X194597Y300038D01*
X199596Y295039D02*
Y296039D01*
X200596D01*
Y295039D01*
X199596D01*
X204594D02*
X206594D01*
X205594D01*
Y301037D01*
X204594Y300038D01*
X209593Y295039D02*
Y299038D01*
X210592D01*
X211592Y298038D01*
Y295039D01*
Y298038D01*
X212592Y299038D01*
X213591Y298038D01*
Y295039D01*
X215591D02*
Y299038D01*
X216590D01*
X217590Y298038D01*
Y295039D01*
Y298038D01*
X218590Y299038D01*
X219589Y298038D01*
Y295039D01*
X221589D02*
X223588Y297039D01*
Y299038D01*
X221589Y301037D01*
X266978Y295039D02*
Y301037D01*
X269977D01*
X270977Y300038D01*
Y298038D01*
X269977Y297039D01*
X266978D01*
X272976Y301037D02*
X276975D01*
X274975D01*
Y295039D01*
X278974Y301037D02*
Y295039D01*
Y298038D01*
X282973D01*
Y301037D01*
Y295039D01*
X317366D02*
Y301037D01*
X320365D01*
X321364Y300038D01*
Y298038D01*
X320365Y297039D01*
X317366D01*
X319365D02*
X321364Y295039D01*
X324363D02*
X326363D01*
X327362Y296039D01*
Y298038D01*
X326363Y299038D01*
X324363D01*
X323364Y298038D01*
Y296039D01*
X324363Y295039D01*
X329362Y299038D02*
Y296039D01*
X330361Y295039D01*
X333360D01*
Y299038D01*
X335360Y295039D02*
Y299038D01*
X338359D01*
X339358Y298038D01*
Y295039D01*
X345356Y301037D02*
Y295039D01*
X342357D01*
X341358Y296039D01*
Y298038D01*
X342357Y299038D01*
X345356D01*
X14235Y288038D02*
X13235Y289037D01*
X11236D01*
X10236Y288038D01*
Y284039D01*
X11236Y283039D01*
X13235D01*
X14235Y284039D01*
X63036Y289037D02*
X67035D01*
Y288038D01*
X63036Y284039D01*
Y283039D01*
X135617D02*
Y289037D01*
X132618Y286038D01*
X136616D01*
X138616Y289037D02*
X142614D01*
Y288038D01*
X138616Y284039D01*
Y283039D01*
X144614D02*
Y284039D01*
X145613D01*
Y283039D01*
X144614D01*
X153611D02*
X149612D01*
X153611Y287038D01*
Y288038D01*
X152611Y289037D01*
X150612D01*
X149612Y288038D01*
X158609Y283039D02*
Y289037D01*
X155610Y286038D01*
X159609D01*
X164607Y283039D02*
Y289037D01*
X161608Y286038D01*
X165607D01*
X167606Y283039D02*
Y287038D01*
X168606D01*
X169606Y286038D01*
Y283039D01*
Y286038D01*
X170605Y287038D01*
X171605Y286038D01*
Y283039D01*
X173604D02*
X175604D01*
X174604D01*
Y287038D01*
X173604D01*
X178603Y283039D02*
X180602D01*
X179602D01*
Y289037D01*
X178603D01*
X191598Y283039D02*
X189599Y285039D01*
Y287038D01*
X191598Y289037D01*
X194597Y283039D02*
X196597D01*
X195597D01*
Y289037D01*
X194597Y288038D01*
X199596Y283039D02*
Y284039D01*
X200596D01*
Y283039D01*
X199596D01*
X208593D02*
X204594D01*
X208593Y287038D01*
Y288038D01*
X207593Y289037D01*
X205594D01*
X204594Y288038D01*
X210592Y283039D02*
Y287038D01*
X211592D01*
X212592Y286038D01*
Y283039D01*
Y286038D01*
X213591Y287038D01*
X214591Y286038D01*
Y283039D01*
X216590D02*
Y287038D01*
X217590D01*
X218590Y286038D01*
Y283039D01*
Y286038D01*
X219589Y287038D01*
X220589Y286038D01*
Y283039D01*
X222588D02*
X224588Y285039D01*
Y287038D01*
X222588Y289037D01*
X266978Y283039D02*
Y289037D01*
X269977D01*
X270977Y288038D01*
Y286038D01*
X269977Y285039D01*
X266978D01*
X272976Y289037D02*
X276975D01*
X274975D01*
Y283039D01*
X278974Y289037D02*
Y283039D01*
Y286038D01*
X282973D01*
Y289037D01*
Y283039D01*
X317366D02*
Y289037D01*
X320365D01*
X321364Y288038D01*
Y286038D01*
X320365Y285039D01*
X317366D01*
X319365D02*
X321364Y283039D01*
X324363D02*
X326363D01*
X327362Y284039D01*
Y286038D01*
X326363Y287038D01*
X324363D01*
X323364Y286038D01*
Y284039D01*
X324363Y283039D01*
X329362Y287038D02*
Y284039D01*
X330361Y283039D01*
X333360D01*
Y287038D01*
X335360Y283039D02*
Y287038D01*
X338359D01*
X339358Y286038D01*
Y283039D01*
X345356Y289037D02*
Y283039D01*
X342357D01*
X341358Y284039D01*
Y286038D01*
X342357Y287038D01*
X345356D01*
X10236Y277037D02*
Y271039D01*
X13235D01*
X14235Y272039D01*
Y276038D01*
X13235Y277037D01*
X10236D01*
X67035Y271039D02*
X63036D01*
X67035Y275038D01*
Y276038D01*
X66035Y277037D01*
X64036D01*
X63036Y276038D01*
X132618Y277037D02*
X136616D01*
Y276038D01*
X132618Y272039D01*
Y271039D01*
X138616Y276038D02*
X139615Y277037D01*
X141615D01*
X142614Y276038D01*
Y275038D01*
X141615Y274038D01*
X142614Y273039D01*
Y272039D01*
X141615Y271039D01*
X139615D01*
X138616Y272039D01*
Y273039D01*
X139615Y274038D01*
X138616Y275038D01*
Y276038D01*
X139615Y274038D02*
X141615D01*
X144614Y271039D02*
Y272039D01*
X145613D01*
Y271039D01*
X144614D01*
X149612Y277037D02*
X153611D01*
Y276038D01*
X149612Y272039D01*
Y271039D01*
X158609D02*
Y277037D01*
X155610Y274038D01*
X159609D01*
X161608Y271039D02*
Y275038D01*
X162608D01*
X163608Y274038D01*
Y271039D01*
Y274038D01*
X164607Y275038D01*
X165607Y274038D01*
Y271039D01*
X167606D02*
X169606D01*
X168606D01*
Y275038D01*
X167606D01*
X172605Y271039D02*
X174604D01*
X173604D01*
Y277037D01*
X172605D01*
X185600Y271039D02*
X183601Y273039D01*
Y275038D01*
X185600Y277037D01*
X192598Y271039D02*
X188600D01*
X192598Y275038D01*
Y276038D01*
X191598Y277037D01*
X189599D01*
X188600Y276038D01*
X194597Y271039D02*
Y275038D01*
X195597D01*
X196597Y274038D01*
Y271039D01*
Y274038D01*
X197597Y275038D01*
X198596Y274038D01*
Y271039D01*
X200596D02*
Y275038D01*
X201595D01*
X202595Y274038D01*
Y271039D01*
Y274038D01*
X203595Y275038D01*
X204594Y274038D01*
Y271039D01*
X206594D02*
X208593Y273039D01*
Y275038D01*
X206594Y277037D01*
X266978Y271039D02*
Y277037D01*
X270977Y271039D01*
Y277037D01*
X272976Y271039D02*
Y277037D01*
X275975D01*
X276975Y276038D01*
Y274038D01*
X275975Y273039D01*
X272976D01*
X278974Y277037D02*
X282973D01*
X280974D01*
Y271039D01*
X284972Y277037D02*
Y271039D01*
Y274038D01*
X288971D01*
Y277037D01*
Y271039D01*
X317366D02*
Y277037D01*
X320365D01*
X321364Y276038D01*
Y274038D01*
X320365Y273039D01*
X317366D01*
X319365D02*
X321364Y271039D01*
X324363D02*
X326363D01*
X327362Y272039D01*
Y274038D01*
X326363Y275038D01*
X324363D01*
X323364Y274038D01*
Y272039D01*
X324363Y271039D01*
X329362Y275038D02*
Y272039D01*
X330361Y271039D01*
X333360D01*
Y275038D01*
X335360Y271039D02*
Y275038D01*
X338359D01*
X339358Y274038D01*
Y271039D01*
X345356Y277037D02*
Y271039D01*
X342357D01*
X341358Y272039D01*
Y274038D01*
X342357Y275038D01*
X345356D01*
X10236Y265037D02*
Y259039D01*
X13235D01*
X14235Y260039D01*
Y261039D01*
X13235Y262038D01*
X10236D01*
X13235D01*
X14235Y263038D01*
Y264038D01*
X13235Y265037D01*
X10236D01*
X66035Y259039D02*
Y265037D01*
X63036Y262038D01*
X67035D01*
X132618Y259039D02*
X134617D01*
X133617D01*
Y265037D01*
X132618Y264038D01*
X141615Y259039D02*
X137616D01*
X141615Y263038D01*
Y264038D01*
X140615Y265037D01*
X138616D01*
X137616Y264038D01*
X147613Y265037D02*
X143614D01*
Y262038D01*
X145613Y263038D01*
X146613D01*
X147613Y262038D01*
Y260039D01*
X146613Y259039D01*
X144614D01*
X143614Y260039D01*
X149612Y259039D02*
Y260039D01*
X150612D01*
Y259039D01*
X149612D01*
X154611Y260039D02*
X155610Y259039D01*
X157609D01*
X158609Y260039D01*
Y264038D01*
X157609Y265037D01*
X155610D01*
X154611Y264038D01*
Y263038D01*
X155610Y262038D01*
X158609D01*
X160608Y264038D02*
X161608Y265037D01*
X163608D01*
X164607Y264038D01*
Y263038D01*
X163608Y262038D01*
X164607Y261039D01*
Y260039D01*
X163608Y259039D01*
X161608D01*
X160608Y260039D01*
Y261039D01*
X161608Y262038D01*
X160608Y263038D01*
Y264038D01*
X161608Y262038D02*
X163608D01*
X169606Y259039D02*
Y265037D01*
X166607Y262038D01*
X170605D01*
X172605Y259039D02*
Y263038D01*
X173604D01*
X174604Y262038D01*
Y259039D01*
Y262038D01*
X175604Y263038D01*
X176603Y262038D01*
Y259039D01*
X178603D02*
X180602D01*
X179602D01*
Y263038D01*
X178603D01*
X183601Y259039D02*
X185600D01*
X184601D01*
Y265037D01*
X183601D01*
X196597Y259039D02*
X194597Y261039D01*
Y263038D01*
X196597Y265037D01*
X199596Y264038D02*
X200596Y265037D01*
X202595D01*
X203595Y264038D01*
Y263038D01*
X202595Y262038D01*
X201595D01*
X202595D01*
X203595Y261039D01*
Y260039D01*
X202595Y259039D01*
X200596D01*
X199596Y260039D01*
X205594Y259039D02*
Y260039D01*
X206594D01*
Y259039D01*
X205594D01*
X214591D02*
X210592D01*
X214591Y263038D01*
Y264038D01*
X213591Y265037D01*
X211592D01*
X210592Y264038D01*
X216590Y259039D02*
Y263038D01*
X217590D01*
X218590Y262038D01*
Y259039D01*
Y262038D01*
X219589Y263038D01*
X220589Y262038D01*
Y259039D01*
X222588D02*
Y263038D01*
X223588D01*
X224588Y262038D01*
Y259039D01*
Y262038D01*
X225588Y263038D01*
X226587Y262038D01*
Y259039D01*
X228587D02*
X230586Y261039D01*
Y263038D01*
X228587Y265037D01*
X266978Y259039D02*
Y265037D01*
X269977D01*
X270977Y264038D01*
Y262038D01*
X269977Y261039D01*
X266978D01*
X272976Y265037D02*
X276975D01*
X274975D01*
Y259039D01*
X278974Y265037D02*
Y259039D01*
Y262038D01*
X282973D01*
Y265037D01*
Y259039D01*
X317366D02*
Y265037D01*
X320365D01*
X321364Y264038D01*
Y262038D01*
X320365Y261039D01*
X317366D01*
X319365D02*
X321364Y259039D01*
X324363D02*
X326363D01*
X327362Y260039D01*
Y262038D01*
X326363Y263038D01*
X324363D01*
X323364Y262038D01*
Y260039D01*
X324363Y259039D01*
X329362Y263038D02*
Y260039D01*
X330361Y259039D01*
X333360D01*
Y263038D01*
X335360Y259039D02*
Y263038D01*
X338359D01*
X339358Y262038D01*
Y259039D01*
X345356Y265037D02*
Y259039D01*
X342357D01*
X341358Y260039D01*
Y262038D01*
X342357Y263038D01*
X345356D01*
X14235Y253037D02*
X10236D01*
Y247039D01*
X14235D01*
X10236Y250038D02*
X12236D01*
X66035Y247039D02*
Y253037D01*
X63036Y250038D01*
X67035D01*
X132618Y247039D02*
X134617D01*
X133617D01*
Y253037D01*
X132618Y252038D01*
X141615Y247039D02*
X137616D01*
X141615Y251038D01*
Y252038D01*
X140615Y253037D01*
X138616D01*
X137616Y252038D01*
X143614Y248039D02*
X144614Y247039D01*
X146613D01*
X147613Y248039D01*
Y252038D01*
X146613Y253037D01*
X144614D01*
X143614Y252038D01*
Y251038D01*
X144614Y250038D01*
X147613D01*
X149612Y247039D02*
Y248039D01*
X150612D01*
Y247039D01*
X149612D01*
X154611Y248039D02*
X155610Y247039D01*
X157609D01*
X158609Y248039D01*
Y252038D01*
X157609Y253037D01*
X155610D01*
X154611Y252038D01*
Y251038D01*
X155610Y250038D01*
X158609D01*
X164607Y247039D02*
X160608D01*
X164607Y251038D01*
Y252038D01*
X163608Y253037D01*
X161608D01*
X160608Y252038D01*
X166607Y247039D02*
X168606D01*
X167606D01*
Y253037D01*
X166607Y252038D01*
X171605Y247039D02*
Y251038D01*
X172605D01*
X173604Y250038D01*
Y247039D01*
Y250038D01*
X174604Y251038D01*
X175604Y250038D01*
Y247039D01*
X177603D02*
X179602D01*
X178603D01*
Y251038D01*
X177603D01*
X182601Y247039D02*
X184601D01*
X183601D01*
Y253037D01*
X182601D01*
X195597Y247039D02*
X193598Y249039D01*
Y251038D01*
X195597Y253037D01*
X198596Y252038D02*
X199596Y253037D01*
X201595D01*
X202595Y252038D01*
Y251038D01*
X201595Y250038D01*
X200596D01*
X201595D01*
X202595Y249039D01*
Y248039D01*
X201595Y247039D01*
X199596D01*
X198596Y248039D01*
X204594Y247039D02*
Y248039D01*
X205594D01*
Y247039D01*
X204594D01*
X209593Y252038D02*
X210592Y253037D01*
X212592D01*
X213591Y252038D01*
Y251038D01*
X212592Y250038D01*
X211592D01*
X212592D01*
X213591Y249039D01*
Y248039D01*
X212592Y247039D01*
X210592D01*
X209593Y248039D01*
X215591Y247039D02*
Y251038D01*
X216590D01*
X217590Y250038D01*
Y247039D01*
Y250038D01*
X218590Y251038D01*
X219589Y250038D01*
Y247039D01*
X221589D02*
Y251038D01*
X222588D01*
X223588Y250038D01*
Y247039D01*
Y250038D01*
X224588Y251038D01*
X225588Y250038D01*
Y247039D01*
X227587D02*
X229586Y249039D01*
Y251038D01*
X227587Y253037D01*
X266978Y247039D02*
Y253037D01*
X270977Y247039D01*
Y253037D01*
X272976Y247039D02*
Y253037D01*
X275975D01*
X276975Y252038D01*
Y250038D01*
X275975Y249039D01*
X272976D01*
X278974Y253037D02*
X282973D01*
X280974D01*
Y247039D01*
X284972Y253037D02*
Y247039D01*
Y250038D01*
X288971D01*
Y253037D01*
Y247039D01*
X317366D02*
Y253037D01*
X320365D01*
X321364Y252038D01*
Y250038D01*
X320365Y249039D01*
X317366D01*
X319365D02*
X321364Y247039D01*
X324363D02*
X326363D01*
X327362Y248039D01*
Y250038D01*
X326363Y251038D01*
X324363D01*
X323364Y250038D01*
Y248039D01*
X324363Y247039D01*
X329362Y251038D02*
Y248039D01*
X330361Y247039D01*
X333360D01*
Y251038D01*
X335360Y247039D02*
Y251038D01*
X338359D01*
X339358Y250038D01*
Y247039D01*
X345356Y253037D02*
Y247039D01*
X342357D01*
X341358Y248039D01*
Y250038D01*
X342357Y251038D01*
X345356D01*
X63036Y240038D02*
X64036Y241037D01*
X66035D01*
X67035Y240038D01*
Y239038D01*
X66035Y238038D01*
X65036D01*
X66035D01*
X67035Y237039D01*
Y236039D01*
X66035Y235039D01*
X64036D01*
X63036Y236039D01*
X69034Y240038D02*
X70034Y241037D01*
X72033D01*
X73033Y240038D01*
Y239038D01*
X72033Y238038D01*
X71034D01*
X72033D01*
X73033Y237039D01*
Y236039D01*
X72033Y235039D01*
X70034D01*
X69034Y236039D01*
X75032Y240038D02*
X76032Y241037D01*
X78031D01*
X79031Y240038D01*
Y239038D01*
X78031Y238038D01*
X79031Y237039D01*
Y236039D01*
X78031Y235039D01*
X76032D01*
X75032Y236039D01*
Y237039D01*
X76032Y238038D01*
X75032Y239038D01*
Y240038D01*
X76032Y238038D02*
X78031D01*
X89831Y241037D02*
X93830D01*
X91830D01*
Y235039D01*
X96829D02*
X98828D01*
X99828Y236039D01*
Y238038D01*
X98828Y239038D01*
X96829D01*
X95829Y238038D01*
Y236039D01*
X96829Y235039D01*
X102827Y240038D02*
Y239038D01*
X101827D01*
X103826D01*
X102827D01*
Y236039D01*
X103826Y235039D01*
X107825Y239038D02*
X109825D01*
X110824Y238038D01*
Y235039D01*
X107825D01*
X106825Y236039D01*
X107825Y237039D01*
X110824D01*
X112824Y235039D02*
X114823D01*
X113823D01*
Y241037D01*
X112824D01*
D56*
X10630Y114454D02*
X12654D01*
X13329Y114679D01*
X13554Y114904D01*
X13779Y115354D01*
Y116028D01*
X13554Y116478D01*
X13329Y116703D01*
X12654Y116928D01*
X10630D01*
Y112205D01*
X16410Y116928D02*
Y112205D01*
X14836Y116928D02*
X17985D01*
X18547D02*
Y112205D01*
X21696Y116928D02*
Y112205D01*
X18547Y114679D02*
X21696D01*
X484252Y281D02*
X486276D01*
X486951Y506D01*
X487176Y731D01*
X487401Y1180D01*
Y1855D01*
X487176Y2305D01*
X486951Y2530D01*
X486276Y2755D01*
X484252D01*
Y-1969D01*
X490032Y2755D02*
Y-1969D01*
X488458Y2755D02*
X491607D01*
X492169D02*
Y-1969D01*
X495318Y2755D02*
Y-1969D01*
X492169Y506D02*
X495318D01*
X484646Y113667D02*
X486670D01*
X487345Y113891D01*
X487570Y114116D01*
X487795Y114566D01*
Y115241D01*
X487570Y115691D01*
X487345Y115916D01*
X486670Y116141D01*
X484646D01*
Y111417D01*
X490426Y116141D02*
Y111417D01*
X488852Y116141D02*
X492001D01*
X492563D02*
Y111417D01*
X495712Y116141D02*
Y111417D01*
X492563Y113891D02*
X495712D01*
X10236Y281D02*
X12261D01*
X12935Y506D01*
X13160Y731D01*
X13385Y1180D01*
Y1855D01*
X13160Y2305D01*
X12935Y2530D01*
X12261Y2755D01*
X10236D01*
Y-1969D01*
X16017Y2755D02*
Y-1969D01*
X14442Y2755D02*
X17591D01*
X18154D02*
Y-1969D01*
X21303Y2755D02*
Y-1969D01*
X18154Y506D02*
X21303D01*
D61*
X43701Y30315D02*
Y34314D01*
X45700Y36313D01*
X47699Y34314D01*
Y30315D01*
Y33314D01*
X43701D01*
Y46063D02*
Y50062D01*
X45700Y52061D01*
X47699Y50062D01*
Y46063D01*
Y49062D01*
X43701D01*
Y53937D02*
Y57936D01*
X45700Y59935D01*
X47699Y57936D01*
Y53937D01*
Y56936D01*
X43701D01*
Y61811D02*
Y65810D01*
X45700Y67809D01*
X47699Y65810D01*
Y61811D01*
Y64810D01*
X43701D01*
Y69685D02*
Y73684D01*
X45700Y75683D01*
X47699Y73684D01*
Y69685D01*
Y72684D01*
X43701D01*
Y77559D02*
Y81558D01*
X45700Y83557D01*
X47699Y81558D01*
Y77559D01*
Y80558D01*
X43701D01*
Y85433D02*
Y89432D01*
X45700Y91431D01*
X47699Y89432D01*
Y85433D01*
Y88432D01*
X43701D01*
Y93307D02*
Y97306D01*
X45700Y99305D01*
X47699Y97306D01*
Y93307D01*
Y96306D01*
X43701D01*
Y101181D02*
Y105180D01*
X45700Y107179D01*
X47699Y105180D01*
Y101181D01*
Y104180D01*
X43701D01*
Y109055D02*
Y113054D01*
X45700Y115053D01*
X47699Y113054D01*
Y109055D01*
Y112054D01*
X43701D01*
Y116929D02*
Y120928D01*
X45700Y122927D01*
X47699Y120928D01*
Y116929D01*
Y119928D01*
X43701D01*
Y38189D02*
Y42188D01*
X45700Y44187D01*
X47699Y42188D01*
Y38189D01*
Y41188D01*
X43701D01*
X14961Y135132D02*
Y129134D01*
X17960D01*
X18959Y130133D01*
Y131133D01*
X17960Y132133D01*
X14961D01*
X17960D01*
X18959Y133133D01*
Y134132D01*
X17960Y135132D01*
X14961D01*
X488583Y20959D02*
Y14961D01*
X491582D01*
X492581Y15960D01*
Y16960D01*
X491582Y17960D01*
X488583D01*
X491582D01*
X492581Y18959D01*
Y19959D01*
X491582Y20959D01*
X488583D01*
X488976Y134344D02*
Y128346D01*
X491975D01*
X492975Y129346D01*
Y130346D01*
X491975Y131345D01*
X488976D01*
X491975D01*
X492975Y132345D01*
Y133345D01*
X491975Y134344D01*
X488976D01*
X14567Y20959D02*
Y14961D01*
X17566D01*
X18566Y15960D01*
Y16960D01*
X17566Y17960D01*
X14567D01*
X17566D01*
X18566Y18959D01*
Y19959D01*
X17566Y20959D01*
X14567D01*
X177227Y74290D02*
X176227Y75289D01*
X174228D01*
X173228Y74290D01*
Y70291D01*
X174228Y69291D01*
X176227D01*
X177227Y70291D01*
X137857Y74290D02*
X136857Y75289D01*
X134858D01*
X133858Y74290D01*
Y70291D01*
X134858Y69291D01*
X136857D01*
X137857Y70291D01*
X457542Y104211D02*
X456542Y105211D01*
X454543D01*
X453543Y104211D01*
Y100212D01*
X454543Y99213D01*
X456542D01*
X457542Y100212D01*
Y49093D02*
X456542Y50093D01*
X454543D01*
X453543Y49093D01*
Y45094D01*
X454543Y44094D01*
X456542D01*
X457542Y45094D01*
Y62872D02*
X456542Y63872D01*
X454543D01*
X453543Y62872D01*
Y58874D01*
X454543Y57874D01*
X456542D01*
X457542Y58874D01*
Y76652D02*
X456542Y77652D01*
X454543D01*
X453543Y76652D01*
Y72653D01*
X454543Y71653D01*
X456542D01*
X457542Y72653D01*
Y90431D02*
X456542Y91431D01*
X454543D01*
X453543Y90431D01*
Y86433D01*
X454543Y85433D01*
X456542D01*
X457542Y86433D01*
X471260Y113282D02*
Y107283D01*
X474259D01*
X475259Y108283D01*
Y112282D01*
X474259Y113282D01*
X471260D01*
Y42022D02*
Y36024D01*
X474259D01*
X475259Y37023D01*
Y41022D01*
X474259Y42022D01*
X471260D01*
X399117Y137612D02*
X395118D01*
Y131614D01*
X399117D01*
X395118Y134613D02*
X397117D01*
X399117Y87612D02*
X395118D01*
Y81614D01*
X399117D01*
X395118Y84613D02*
X397117D01*
X433133Y132612D02*
X429134D01*
Y129613D01*
X431133D01*
X429134D01*
Y126614D01*
X433133Y122612D02*
X429134D01*
Y119613D01*
X431133D01*
X429134D01*
Y116614D01*
X433133Y112612D02*
X429134D01*
Y109613D01*
X431133D01*
X429134D01*
Y106614D01*
X433133Y102612D02*
X429134D01*
Y99613D01*
X431133D01*
X429134D01*
Y96614D01*
X433133Y92612D02*
X429134D01*
Y89613D01*
X431133D01*
X429134D01*
Y86614D01*
X399117Y69699D02*
X395118D01*
Y63701D01*
X399117D01*
X395118Y66700D02*
X397117D01*
X399117Y19699D02*
X395118D01*
Y13701D01*
X399117D01*
X395118Y16700D02*
X397117D01*
X433133Y64699D02*
X429134D01*
Y61700D01*
X431133D01*
X429134D01*
Y58701D01*
X433133Y54699D02*
X429134D01*
Y51700D01*
X431133D01*
X429134D01*
Y48701D01*
X433133Y44699D02*
X429134D01*
Y41700D01*
X431133D01*
X429134D01*
Y38701D01*
X433133Y34699D02*
X429134D01*
Y31700D01*
X431133D01*
X429134D01*
Y28701D01*
X433133Y24699D02*
X429134D01*
Y21700D01*
X431133D01*
X429134D01*
Y18701D01*
X204786Y119959D02*
X203786Y120958D01*
X201787D01*
X200787Y119959D01*
Y115960D01*
X201787Y114960D01*
X203786D01*
X204786Y115960D01*
Y117959D01*
X202786D01*
X106755Y105786D02*
X105755Y106786D01*
X103756D01*
X102756Y105786D01*
Y101787D01*
X103756Y100787D01*
X105755D01*
X106755Y101787D01*
Y103786D01*
X104755D01*
X215416Y29801D02*
X214416Y30801D01*
X212417D01*
X211417Y29801D01*
Y25803D01*
X212417Y24803D01*
X214416D01*
X215416Y25803D01*
Y27802D01*
X213417D01*
X215022Y25077D02*
X214023Y26077D01*
X212023D01*
X211024Y25077D01*
Y21078D01*
X212023Y20079D01*
X214023D01*
X215022Y21078D01*
Y23078D01*
X213023D01*
X113054Y45550D02*
X112054Y46549D01*
X110055D01*
X109055Y45550D01*
Y41551D01*
X110055Y40551D01*
X112054D01*
X113054Y41551D01*
Y43550D01*
X111055D01*
X496518Y55786D02*
X495519Y56786D01*
X493519D01*
X492520Y55786D01*
Y51787D01*
X493519Y50787D01*
X495519D01*
X496518Y51787D01*
Y53786D01*
X494519D01*
X313447Y36494D02*
X312448Y37494D01*
X310449D01*
X309449Y36494D01*
Y32496D01*
X310449Y31496D01*
X312448D01*
X313447Y32496D01*
Y34495D01*
X311448D01*
X302030Y122321D02*
X301030Y123321D01*
X299031D01*
X298031Y122321D01*
Y118323D01*
X299031Y117323D01*
X301030D01*
X302030Y118323D01*
Y120322D01*
X300031D01*
X329983Y71534D02*
X328983Y72534D01*
X326984D01*
X325984Y71534D01*
Y67535D01*
X326984Y66535D01*
X328983D01*
X329983Y67535D01*
Y69534D01*
X327984D01*
X329983Y77833D02*
X328983Y78833D01*
X326984D01*
X325984Y77833D01*
Y73834D01*
X326984Y72835D01*
X328983D01*
X329983Y73834D01*
Y75834D01*
X327984D01*
X329983Y84920D02*
X328983Y85919D01*
X326984D01*
X325984Y84920D01*
Y80921D01*
X326984Y79921D01*
X328983D01*
X329983Y80921D01*
Y82920D01*
X327984D01*
X367385Y33738D02*
X366385Y34738D01*
X364386D01*
X363386Y33738D01*
Y29740D01*
X364386Y28740D01*
X366385D01*
X367385Y29740D01*
Y31739D01*
X365385D01*
X366597Y41612D02*
X365598Y42612D01*
X363598D01*
X362598Y41612D01*
Y37614D01*
X363598Y36614D01*
X365598D01*
X366597Y37614D01*
Y39613D01*
X364598D01*
X365810Y50668D02*
X364810Y51667D01*
X362811D01*
X361811Y50668D01*
Y46669D01*
X362811Y45669D01*
X364810D01*
X365810Y46669D01*
Y48668D01*
X363810D01*
X381164Y84920D02*
X380164Y85919D01*
X378165D01*
X377165Y84920D01*
Y80921D01*
X378165Y79921D01*
X380164D01*
X381164Y80921D01*
Y82920D01*
X379165D01*
X381164Y76258D02*
X380164Y77258D01*
X378165D01*
X377165Y76258D01*
Y72259D01*
X378165Y71260D01*
X380164D01*
X381164Y72259D01*
Y74259D01*
X379165D01*
X63447Y127833D02*
X62448Y128833D01*
X60448D01*
X59449Y127833D01*
Y123834D01*
X60448Y122835D01*
X62448D01*
X63447Y123834D01*
Y125834D01*
X61448D01*
X63447Y135707D02*
X62448Y136707D01*
X60448D01*
X59449Y135707D01*
Y131708D01*
X60448Y130709D01*
X62448D01*
X63447Y131708D01*
Y133708D01*
X61448D01*
X111479Y66809D02*
X110479Y67809D01*
X108480D01*
X107480Y66809D01*
Y62811D01*
X108480Y61811D01*
X110479D01*
X111479Y62811D01*
Y64810D01*
X109480D01*
X111873Y72321D02*
X110873Y73321D01*
X108874D01*
X107874Y72321D01*
Y68322D01*
X108874Y67323D01*
X110873D01*
X111873Y68322D01*
Y70322D01*
X109873D01*
X86676Y35313D02*
X85676Y36313D01*
X83677D01*
X82677Y35313D01*
Y31315D01*
X83677Y30315D01*
X85676D01*
X86676Y31315D01*
Y33314D01*
X84676D01*
X126440Y81376D02*
X125440Y82376D01*
X123441D01*
X122441Y81376D01*
Y77378D01*
X123441Y76378D01*
X125440D01*
X126440Y77378D01*
Y79377D01*
X124440D01*
X126440Y74290D02*
X125440Y75289D01*
X123441D01*
X122441Y74290D01*
Y70291D01*
X123441Y69291D01*
X125440D01*
X126440Y70291D01*
Y72290D01*
X124440D01*
X126440Y67203D02*
X125440Y68203D01*
X123441D01*
X122441Y67203D01*
Y63204D01*
X123441Y62205D01*
X125440D01*
X126440Y63204D01*
Y65204D01*
X124440D01*
X117385Y79801D02*
X116385Y80801D01*
X114385D01*
X113386Y79801D01*
Y75803D01*
X114385Y74803D01*
X116385D01*
X117385Y75803D01*
Y77802D01*
X115385D01*
X121715Y84132D02*
X120716Y85132D01*
X118716D01*
X117717Y84132D01*
Y80133D01*
X118716Y79134D01*
X120716D01*
X121715Y80133D01*
Y82133D01*
X119716D01*
X126833Y88463D02*
X125834Y89463D01*
X123834D01*
X122835Y88463D01*
Y84464D01*
X123834Y83464D01*
X125834D01*
X126833Y84464D01*
Y86464D01*
X124834D01*
X147306Y47912D02*
X146306Y48911D01*
X144307D01*
X143307Y47912D01*
Y43913D01*
X144307Y42913D01*
X146306D01*
X147306Y43913D01*
Y45912D01*
X145306D01*
X139825Y47912D02*
X138826Y48911D01*
X136826D01*
X135827Y47912D01*
Y43913D01*
X136826Y42913D01*
X138826D01*
X139825Y43913D01*
Y45912D01*
X137826D01*
X147306Y41219D02*
X146306Y42219D01*
X144307D01*
X143307Y41219D01*
Y37220D01*
X144307Y36220D01*
X146306D01*
X147306Y37220D01*
Y39219D01*
X145306D01*
X131164Y56179D02*
X130164Y57179D01*
X128165D01*
X127165Y56179D01*
Y52181D01*
X128165Y51181D01*
X130164D01*
X131164Y52181D01*
Y54180D01*
X129165D01*
X124077Y56573D02*
X123078Y57573D01*
X121078D01*
X120079Y56573D01*
Y52574D01*
X121078Y51575D01*
X123078D01*
X124077Y52574D01*
Y54574D01*
X122078D01*
X114235Y56573D02*
X113235Y57573D01*
X111236D01*
X110236Y56573D01*
Y52574D01*
X111236Y51575D01*
X113235D01*
X114235Y52574D01*
Y54574D01*
X112236D01*
X70928Y50668D02*
X69928Y51667D01*
X67929D01*
X66929Y50668D01*
Y46669D01*
X67929Y45669D01*
X69928D01*
X70928Y46669D01*
Y48668D01*
X68928D01*
X68566Y54998D02*
X67566Y55998D01*
X65567D01*
X64567Y54998D01*
Y51000D01*
X65567Y50000D01*
X67566D01*
X68566Y51000D01*
Y52999D01*
X66566D01*
X435495Y14447D02*
X434495Y15447D01*
X432496D01*
X431496Y14447D01*
Y10448D01*
X432496Y9449D01*
X434495D01*
X435495Y10448D01*
Y12448D01*
X433495D01*
X464235Y23109D02*
X463235Y24108D01*
X461236D01*
X460236Y23109D01*
Y19110D01*
X461236Y18110D01*
X463235D01*
X464235Y19110D01*
Y21109D01*
X462236D01*
X62660Y54998D02*
X61660Y55998D01*
X59661D01*
X58661Y54998D01*
Y51000D01*
X59661Y50000D01*
X61660D01*
X62660Y51000D01*
Y52999D01*
X60661D01*
X59510Y50274D02*
X58511Y51274D01*
X56511D01*
X55512Y50274D01*
Y46275D01*
X56511Y45276D01*
X58511D01*
X59510Y46275D01*
Y48275D01*
X57511D01*
X56361Y55392D02*
X55361Y56392D01*
X53362D01*
X52362Y55392D01*
Y51393D01*
X53362Y50394D01*
X55361D01*
X56361Y51393D01*
Y53393D01*
X54361D01*
X65022Y50274D02*
X64023Y51274D01*
X62023D01*
X61024Y50274D01*
Y46275D01*
X62023Y45276D01*
X64023D01*
X65022Y46275D01*
Y48275D01*
X63023D01*
X32345Y145156D02*
X31345Y146156D01*
X29346D01*
X28346Y145156D01*
Y141157D01*
X29346Y140157D01*
X31345D01*
X32345Y141157D01*
Y143157D01*
X30346D01*
X49406Y143581D02*
X48406Y144581D01*
X46406D01*
X45407Y143581D01*
Y139582D01*
X46406Y138583D01*
X48406D01*
X49406Y139582D01*
Y141582D01*
X47406D01*
X17384Y117597D02*
X16385Y118596D01*
X14386D01*
X13386Y117597D01*
Y113598D01*
X14386Y112598D01*
X16385D01*
X17384Y113598D01*
Y115597D01*
X15385D01*
X27227Y119565D02*
X26227Y120565D01*
X24228D01*
X23228Y119565D01*
Y115567D01*
X24228Y114567D01*
X26227D01*
X27227Y115567D01*
Y117566D01*
X25228D01*
X42188Y143581D02*
X41188Y144581D01*
X39189D01*
X38189Y143581D01*
Y139582D01*
X39189Y138583D01*
X41188D01*
X42188Y139582D01*
Y141582D01*
X40188D01*
X56623Y143581D02*
X55624Y144581D01*
X53624D01*
X52625Y143581D01*
Y139582D01*
X53624Y138583D01*
X55624D01*
X56623Y139582D01*
Y141582D01*
X54624D01*
X98881Y106179D02*
X97881Y107179D01*
X95882D01*
X94882Y106179D01*
Y102181D01*
X95882Y101181D01*
X97881D01*
X98881Y102181D01*
Y104180D01*
X96881D01*
X148093Y9329D02*
X147093Y10329D01*
X145094D01*
X144095Y9329D01*
Y5330D01*
X145094Y4331D01*
X147093D01*
X148093Y5330D01*
Y7330D01*
X146094D01*
X145337Y103030D02*
X144338Y104030D01*
X142338D01*
X141339Y103030D01*
Y99031D01*
X142338Y98032D01*
X144338D01*
X145337Y99031D01*
Y101031D01*
X143338D01*
X185889Y71534D02*
X184889Y72534D01*
X182889D01*
X181890Y71534D01*
Y67535D01*
X182889Y66535D01*
X184889D01*
X185889Y67535D01*
Y69534D01*
X183889D01*
X267385Y21534D02*
X266385Y22534D01*
X264386D01*
X263386Y21534D01*
Y17535D01*
X264386Y16535D01*
X266385D01*
X267385Y17535D01*
Y19534D01*
X265385D01*
X277227Y21927D02*
X276227Y22927D01*
X274228D01*
X273228Y21927D01*
Y17929D01*
X274228Y16929D01*
X276227D01*
X277227Y17929D01*
Y19928D01*
X275228D01*
X237463Y59723D02*
X236464Y60723D01*
X234464D01*
X233465Y59723D01*
Y55724D01*
X234464Y54724D01*
X236464D01*
X237463Y55724D01*
Y57723D01*
X235464D01*
X277227Y35707D02*
X276227Y36707D01*
X274228D01*
X273228Y35707D01*
Y31708D01*
X274228Y30709D01*
X276227D01*
X277227Y31708D01*
Y33708D01*
X275228D01*
X65416Y21534D02*
X64416Y22534D01*
X62417D01*
X61417Y21534D01*
Y17535D01*
X62417Y16535D01*
X64416D01*
X65416Y17535D01*
Y19534D01*
X63417D01*
X107148Y10510D02*
X106149Y11510D01*
X104149D01*
X103150Y10510D01*
Y6511D01*
X104149Y5512D01*
X106149D01*
X107148Y6511D01*
Y8511D01*
X105149D01*
X86413Y10510D02*
X85414Y11510D01*
X83414D01*
X82415Y10510D01*
Y6511D01*
X83414Y5512D01*
X85414D01*
X86413Y6511D01*
Y8511D01*
X84414D01*
X95337Y10116D02*
X94338Y11116D01*
X92338D01*
X91339Y10116D01*
Y6118D01*
X92338Y5118D01*
X94338D01*
X95337Y6118D01*
Y8117D01*
X93338D01*
X107148Y17794D02*
X106149Y18793D01*
X104149D01*
X103150Y17794D01*
Y13795D01*
X104149Y12795D01*
X106149D01*
X107148Y13795D01*
Y15794D01*
X105149D01*
X7936Y36888D02*
X6936Y37888D01*
X4937D01*
X3937Y36888D01*
Y32889D01*
X4937Y31890D01*
X6936D01*
X7936Y32889D01*
Y34889D01*
X5936D01*
X75652Y10510D02*
X74653Y11510D01*
X72653D01*
X71653Y10510D01*
Y6511D01*
X72653Y5512D01*
X74653D01*
X75652Y6511D01*
Y8511D01*
X73653D01*
X65416Y28227D02*
X64416Y29226D01*
X62417D01*
X61417Y28227D01*
Y24228D01*
X62417Y23228D01*
X64416D01*
X65416Y24228D01*
Y26227D01*
X63417D01*
X34314Y14447D02*
X33314Y15447D01*
X31315D01*
X30315Y14447D01*
Y10448D01*
X31315Y9449D01*
X33314D01*
X34314Y10448D01*
Y12448D01*
X32314D01*
X65416Y10510D02*
X64416Y11510D01*
X62417D01*
X61417Y10510D01*
Y6511D01*
X62417Y5512D01*
X64416D01*
X65416Y6511D01*
Y8511D01*
X63417D01*
X55311Y15628D02*
X54311Y16628D01*
X52312D01*
X51312Y15628D01*
Y11630D01*
X52312Y10630D01*
X54311D01*
X55311Y11630D01*
Y13629D01*
X53312D01*
X31951Y48699D02*
X30952Y49699D01*
X28952D01*
X27953Y48699D01*
Y44701D01*
X28952Y43701D01*
X30952D01*
X31951Y44701D01*
Y46700D01*
X29952D01*
X31951Y60904D02*
X30952Y61904D01*
X28952D01*
X27953Y60904D01*
Y56905D01*
X28952Y55905D01*
X30952D01*
X31951Y56905D01*
Y58904D01*
X29952D01*
X32345Y73109D02*
X31345Y74108D01*
X29346D01*
X28346Y73109D01*
Y69110D01*
X29346Y68110D01*
X31345D01*
X32345Y69110D01*
Y71109D01*
X30346D01*
X31951Y97518D02*
X30952Y98518D01*
X28952D01*
X27953Y97518D01*
Y93519D01*
X28952Y92520D01*
X30952D01*
X31951Y93519D01*
Y95519D01*
X29952D01*
X31558Y85313D02*
X30558Y86313D01*
X28559D01*
X27559Y85313D01*
Y81315D01*
X28559Y80315D01*
X30558D01*
X31558Y81315D01*
Y83314D01*
X29558D01*
X16728Y48043D02*
X15729Y49043D01*
X13729D01*
X12730Y48043D01*
Y44044D01*
X13729Y43045D01*
X15729D01*
X16728Y44044D01*
Y46044D01*
X14729D01*
X16203Y36888D02*
X15204Y37888D01*
X13204D01*
X12205Y36888D01*
Y32889D01*
X13204Y31890D01*
X15204D01*
X16203Y32889D01*
Y34889D01*
X14204D01*
X31951Y109723D02*
X30952Y110722D01*
X28952D01*
X27953Y109723D01*
Y105724D01*
X28952Y104724D01*
X30952D01*
X31951Y105724D01*
Y107723D01*
X29952D01*
X16728Y85051D02*
X15729Y86050D01*
X13729D01*
X12730Y85051D01*
Y81052D01*
X13729Y80053D01*
X15729D01*
X16728Y81052D01*
Y83052D01*
X14729D01*
X16728Y97387D02*
X15729Y98387D01*
X13729D01*
X12730Y97387D01*
Y93388D01*
X13729Y92388D01*
X15729D01*
X16728Y93388D01*
Y95387D01*
X14729D01*
X8723Y120353D02*
X7723Y121352D01*
X5724D01*
X4724Y120353D01*
Y116354D01*
X5724Y115354D01*
X7723D01*
X8723Y116354D01*
Y118353D01*
X6724D01*
X16728Y60379D02*
X15729Y61379D01*
X13729D01*
X12730Y60379D01*
Y56380D01*
X13729Y55381D01*
X15729D01*
X16728Y56380D01*
Y58380D01*
X14729D01*
X16728Y72715D02*
X15729Y73715D01*
X13729D01*
X12730Y72715D01*
Y68716D01*
X13729Y67716D01*
X15729D01*
X16728Y68716D01*
Y70715D01*
X14729D01*
X65416Y15628D02*
X64416Y16628D01*
X62417D01*
X61417Y15628D01*
Y11630D01*
X62417Y10630D01*
X64416D01*
X65416Y11630D01*
Y13629D01*
X63417D01*
X55311Y10510D02*
X54311Y11510D01*
X52312D01*
X51312Y10510D01*
Y6511D01*
X52312Y5512D01*
X54311D01*
X55311Y6511D01*
Y8511D01*
X53312D01*
X45337Y15628D02*
X44338Y16628D01*
X42338D01*
X41339Y15628D01*
Y11630D01*
X42338Y10630D01*
X44338D01*
X45337Y11630D01*
Y13629D01*
X43338D01*
X44944Y10510D02*
X43944Y11510D01*
X41945D01*
X40945Y10510D01*
Y6511D01*
X41945Y5512D01*
X43944D01*
X44944Y6511D01*
Y8511D01*
X42944D01*
X7936Y109723D02*
X6936Y110722D01*
X4937D01*
X3937Y109723D01*
Y105724D01*
X4937Y104724D01*
X6936D01*
X7936Y105724D01*
Y107723D01*
X5936D01*
X390219Y126258D02*
X389219Y127258D01*
X387220D01*
X386221Y126258D01*
Y122259D01*
X387220Y121260D01*
X389219D01*
X390219Y122259D01*
Y124259D01*
X388220D01*
X411873Y132164D02*
X410873Y133163D01*
X408874D01*
X407874Y132164D01*
Y128165D01*
X408874Y127165D01*
X410873D01*
X411873Y128165D01*
Y130164D01*
X409873D01*
X401243Y30983D02*
X400243Y31982D01*
X398244D01*
X397244Y30983D01*
Y26984D01*
X398244Y25984D01*
X400243D01*
X401243Y26984D01*
Y28983D01*
X399243D01*
X415416Y66090D02*
X414416Y67089D01*
X412417D01*
X411417Y66090D01*
Y62091D01*
X412417Y61091D01*
X414416D01*
X415416Y62091D01*
Y64090D01*
X413417D01*
X410692Y59329D02*
X409692Y60329D01*
X407693D01*
X406693Y59329D01*
Y55330D01*
X407693Y54331D01*
X409692D01*
X410692Y55330D01*
Y57330D01*
X408692D01*
X329196Y64447D02*
X328196Y65447D01*
X326197D01*
X325197Y64447D01*
Y60448D01*
X326197Y59449D01*
X328196D01*
X329196Y60448D01*
Y62448D01*
X327196D01*
X478933Y88857D02*
X477933Y89856D01*
X475934D01*
X474934Y88857D01*
Y84858D01*
X475934Y83858D01*
X477933D01*
X478933Y84858D01*
Y86857D01*
X476934D01*
X478933Y64447D02*
X477933Y65447D01*
X475934D01*
X474934Y64447D01*
Y60448D01*
X475934Y59449D01*
X477933D01*
X478933Y60448D01*
Y62448D01*
X476934D01*
X479983Y101061D02*
X478983Y102061D01*
X476984D01*
X475984Y101061D01*
Y97063D01*
X476984Y96063D01*
X478983D01*
X479983Y97063D01*
Y99062D01*
X477984D01*
X478933Y76652D02*
X477933Y77652D01*
X475934D01*
X474934Y76652D01*
Y72653D01*
X475934Y71653D01*
X477933D01*
X478933Y72653D01*
Y74653D01*
X476934D01*
X487726Y64447D02*
X486726Y65447D01*
X484727D01*
X483727Y64447D01*
Y60448D01*
X484727Y59449D01*
X486726D01*
X487726Y60448D01*
Y62448D01*
X485726D01*
X496518Y64447D02*
X495519Y65447D01*
X493519D01*
X492520Y64447D01*
Y60448D01*
X493519Y59449D01*
X495519D01*
X496518Y60448D01*
Y62448D01*
X494519D01*
X496518Y76652D02*
X495519Y77652D01*
X493519D01*
X492520Y76652D01*
Y72653D01*
X493519Y71653D01*
X495519D01*
X496518Y72653D01*
Y74653D01*
X494519D01*
X496518Y88857D02*
X495519Y89856D01*
X493519D01*
X492520Y88857D01*
Y84858D01*
X493519Y83858D01*
X495519D01*
X496518Y84858D01*
Y86857D01*
X494519D01*
X372896Y84920D02*
X371897Y85919D01*
X369897D01*
X368898Y84920D01*
Y80921D01*
X369897Y79921D01*
X371897D01*
X372896Y80921D01*
Y82920D01*
X370897D01*
X364629Y84920D02*
X363629Y85919D01*
X361630D01*
X360630Y84920D01*
Y80921D01*
X361630Y79921D01*
X363629D01*
X364629Y80921D01*
Y82920D01*
X362629D01*
X355180Y84920D02*
X354180Y85919D01*
X352181D01*
X351181Y84920D01*
Y80921D01*
X352181Y79921D01*
X354180D01*
X355180Y80921D01*
Y82920D01*
X353181D01*
X344944Y84920D02*
X343944Y85919D01*
X341945D01*
X340945Y84920D01*
Y80921D01*
X341945Y79921D01*
X343944D01*
X344944Y80921D01*
Y82920D01*
X342944D01*
X337070Y85313D02*
X336070Y86313D01*
X334071D01*
X333071Y85313D01*
Y81315D01*
X334071Y80315D01*
X336070D01*
X337070Y81315D01*
Y83314D01*
X335070D01*
X378408Y114053D02*
X377409Y115053D01*
X375409D01*
X374410Y114053D01*
Y110055D01*
X375409Y109055D01*
X377409D01*
X378408Y110055D01*
Y112054D01*
X376409D01*
X366991Y114053D02*
X365991Y115053D01*
X363992D01*
X362992Y114053D01*
Y110055D01*
X363992Y109055D01*
X365991D01*
X366991Y110055D01*
Y112054D01*
X364991D01*
X342581Y114053D02*
X341582Y115053D01*
X339582D01*
X338583Y114053D01*
Y110055D01*
X339582Y109055D01*
X341582D01*
X342581Y110055D01*
Y112054D01*
X340582D01*
X354786Y114053D02*
X353786Y115053D01*
X351787D01*
X350787Y114053D01*
Y110055D01*
X351787Y109055D01*
X353786D01*
X354786Y110055D01*
Y112054D01*
X352787D01*
X187070Y39644D02*
X186070Y40644D01*
X184071D01*
X183071Y39644D01*
Y35645D01*
X184071Y34646D01*
X186070D01*
X187070Y35645D01*
Y37645D01*
X185070D01*
X300849Y34565D02*
X299849Y35565D01*
X297850D01*
X296850Y34565D01*
Y30567D01*
X297850Y29567D01*
X299849D01*
X300849Y30567D01*
Y32566D01*
X298850D01*
X307542Y34565D02*
X306542Y35565D01*
X304543D01*
X303543Y34565D01*
Y30567D01*
X304543Y29567D01*
X306542D01*
X307542Y30567D01*
Y32566D01*
X305543D01*
X107148Y26258D02*
X106149Y27258D01*
X104149D01*
X103150Y26258D01*
Y22260D01*
X104149Y21260D01*
X106149D01*
X107148Y22260D01*
Y24259D01*
X105149D01*
X162660Y10116D02*
X161660Y11116D01*
X159661D01*
X158661Y10116D01*
Y6118D01*
X159661Y5118D01*
X161660D01*
X162660Y6118D01*
Y8117D01*
X160661D01*
X116991Y117597D02*
X115991Y118596D01*
X113992D01*
X112992Y117597D01*
Y113598D01*
X113992Y112598D01*
X115991D01*
X116991Y113598D01*
Y115597D01*
X114991D01*
X91794Y35313D02*
X90794Y36313D01*
X88795D01*
X87795Y35313D01*
Y31315D01*
X88795Y30315D01*
X90794D01*
X91794Y31315D01*
Y33314D01*
X89795D01*
X139825Y41219D02*
X138826Y42219D01*
X136826D01*
X135827Y41219D01*
Y37220D01*
X136826Y36220D01*
X138826D01*
X139825Y37220D01*
Y39219D01*
X137826D01*
X143763Y114053D02*
X142763Y115053D01*
X140763D01*
X139764Y114053D01*
Y110055D01*
X140763Y109055D01*
X142763D01*
X143763Y110055D01*
Y112054D01*
X141763D01*
X69747Y102243D02*
X68747Y103242D01*
X66748D01*
X65748Y102243D01*
Y98244D01*
X66748Y97244D01*
X68747D01*
X69747Y98244D01*
Y100243D01*
X67747D01*
X144550Y127046D02*
X143550Y128045D01*
X141551D01*
X140551Y127046D01*
Y123047D01*
X141551Y122047D01*
X143550D01*
X144550Y123047D01*
Y125046D01*
X142551D01*
X134314Y122321D02*
X133314Y123321D01*
X131315D01*
X130315Y122321D01*
Y118323D01*
X131315Y117323D01*
X133314D01*
X134314Y118323D01*
Y120322D01*
X132314D01*
X229589Y124290D02*
X228590Y125289D01*
X226590D01*
X225590Y124290D01*
Y120291D01*
X226590Y119291D01*
X228590D01*
X229589Y120291D01*
Y122290D01*
X227590D01*
X114629Y50668D02*
X113629Y51667D01*
X111630D01*
X110630Y50668D01*
Y46669D01*
X111630Y45669D01*
X113629D01*
X114629Y46669D01*
Y48668D01*
X112629D01*
X171715Y39644D02*
X170716Y40644D01*
X168716D01*
X167717Y39644D01*
Y35645D01*
X168716Y34646D01*
X170716D01*
X171715Y35645D01*
Y37645D01*
X169716D01*
X69353Y76258D02*
X68353Y77258D01*
X66354D01*
X65354Y76258D01*
Y72259D01*
X66354Y71260D01*
X68353D01*
X69353Y72259D01*
Y74259D01*
X67354D01*
X91400Y108935D02*
X90401Y109935D01*
X88401D01*
X87402Y108935D01*
Y104937D01*
X88401Y103937D01*
X90401D01*
X91400Y104937D01*
Y106936D01*
X89401D01*
X204392Y114053D02*
X203392Y115053D01*
X201393D01*
X200393Y114053D01*
Y110055D01*
X201393Y109055D01*
X203392D01*
X204392Y110055D01*
Y112054D01*
X202393D01*
X255574Y127833D02*
X254574Y128833D01*
X252574D01*
X251575Y127833D01*
Y123834D01*
X252574Y122835D01*
X254574D01*
X255574Y123834D01*
Y125834D01*
X253574D01*
X255967Y122321D02*
X254967Y123321D01*
X252968D01*
X251969Y122321D01*
Y118323D01*
X252968Y117323D01*
X254967D01*
X255967Y118323D01*
Y120322D01*
X253968D01*
X255967Y116809D02*
X254967Y117809D01*
X252968D01*
X251969Y116809D01*
Y112811D01*
X252968Y111811D01*
X254967D01*
X255967Y112811D01*
Y114810D01*
X253968D01*
X244156Y116809D02*
X243157Y117809D01*
X241157D01*
X240158Y116809D01*
Y112811D01*
X241157Y111811D01*
X243157D01*
X244156Y112811D01*
Y114810D01*
X242157D01*
X244156Y122321D02*
X243157Y123321D01*
X241157D01*
X240158Y122321D01*
Y118323D01*
X241157Y117323D01*
X243157D01*
X244156Y118323D01*
Y120322D01*
X242157D01*
X250455Y122321D02*
X249456Y123321D01*
X247456D01*
X246457Y122321D01*
Y118323D01*
X247456Y117323D01*
X249456D01*
X250455Y118323D01*
Y120322D01*
X248456D01*
X244550Y127833D02*
X243550Y128833D01*
X241551D01*
X240551Y127833D01*
Y123834D01*
X241551Y122835D01*
X243550D01*
X244550Y123834D01*
Y125834D01*
X242550D01*
X250455Y116416D02*
X249456Y117415D01*
X247456D01*
X246457Y116416D01*
Y112417D01*
X247456Y111417D01*
X249456D01*
X250455Y112417D01*
Y114416D01*
X248456D01*
X342581Y130851D02*
X341582Y131851D01*
X339582D01*
X338583Y130851D01*
Y126853D01*
X339582Y125853D01*
X341582D01*
X342581Y126853D01*
Y128852D01*
X340582D01*
X354786Y130589D02*
X353786Y131589D01*
X351787D01*
X350787Y130589D01*
Y126590D01*
X351787Y125591D01*
X353786D01*
X354786Y126590D01*
Y128590D01*
X352787D01*
X366991Y130589D02*
X365991Y131589D01*
X363992D01*
X362992Y130589D01*
Y126590D01*
X363992Y125591D01*
X365991D01*
X366991Y126590D01*
Y128590D01*
X364991D01*
X366991Y122321D02*
X365991Y123321D01*
X363992D01*
X362992Y122321D01*
Y118323D01*
X363992Y117323D01*
X365991D01*
X366991Y118323D01*
Y120322D01*
X364991D01*
X354786Y122321D02*
X353786Y123321D01*
X351787D01*
X350787Y122321D01*
Y118323D01*
X351787Y117323D01*
X353786D01*
X354786Y118323D01*
Y120322D01*
X352787D01*
X342581Y122452D02*
X341582Y123452D01*
X339582D01*
X338583Y122452D01*
Y118454D01*
X339582Y117454D01*
X341582D01*
X342581Y118454D01*
Y120453D01*
X340582D01*
X342581Y139250D02*
X341582Y140250D01*
X339582D01*
X338583Y139250D01*
Y135252D01*
X339582Y134252D01*
X341582D01*
X342581Y135252D01*
Y137251D01*
X340582D01*
X354786Y138857D02*
X353786Y139856D01*
X351787D01*
X350787Y138857D01*
Y134858D01*
X351787Y133858D01*
X353786D01*
X354786Y134858D01*
Y136857D01*
X352787D01*
X366991Y138857D02*
X365991Y139856D01*
X363992D01*
X362992Y138857D01*
Y134858D01*
X363992Y133858D01*
X365991D01*
X366991Y134858D01*
Y136857D01*
X364991D01*
X378408Y138857D02*
X377409Y139856D01*
X375409D01*
X374410Y138857D01*
Y134858D01*
X375409Y133858D01*
X377409D01*
X378408Y134858D01*
Y136857D01*
X376409D01*
X378408Y130589D02*
X377409Y131589D01*
X375409D01*
X374410Y130589D01*
Y126590D01*
X375409Y125591D01*
X377409D01*
X378408Y126590D01*
Y128590D01*
X376409D01*
X378408Y122321D02*
X377409Y123321D01*
X375409D01*
X374410Y122321D01*
Y118323D01*
X375409Y117323D01*
X377409D01*
X378408Y118323D01*
Y120322D01*
X376409D01*
X337070Y78227D02*
X336070Y79226D01*
X334071D01*
X333071Y78227D01*
Y74228D01*
X334071Y73228D01*
X336070D01*
X337070Y74228D01*
Y76227D01*
X335070D01*
X344550Y77833D02*
X343550Y78833D01*
X341551D01*
X340551Y77833D01*
Y73834D01*
X341551Y72835D01*
X343550D01*
X344550Y73834D01*
Y75834D01*
X342550D01*
X355180Y77833D02*
X354180Y78833D01*
X352181D01*
X351181Y77833D01*
Y73834D01*
X352181Y72835D01*
X354180D01*
X355180Y73834D01*
Y75834D01*
X353181D01*
X337070Y71534D02*
X336070Y72534D01*
X334071D01*
X333071Y71534D01*
Y67535D01*
X334071Y66535D01*
X336070D01*
X337070Y67535D01*
Y69534D01*
X335070D01*
X344550Y71534D02*
X343550Y72534D01*
X341551D01*
X340551Y71534D01*
Y67535D01*
X341551Y66535D01*
X343550D01*
X344550Y67535D01*
Y69534D01*
X342550D01*
X355180Y69959D02*
X354180Y70959D01*
X352181D01*
X351181Y69959D01*
Y65960D01*
X352181Y64961D01*
X354180D01*
X355180Y65960D01*
Y67960D01*
X353181D01*
X336282Y64447D02*
X335282Y65447D01*
X333283D01*
X332283Y64447D01*
Y60448D01*
X333283Y59449D01*
X335282D01*
X336282Y60448D01*
Y62448D01*
X334283D01*
X344550Y65235D02*
X343550Y66234D01*
X341551D01*
X340551Y65235D01*
Y61236D01*
X341551Y60236D01*
X343550D01*
X344550Y61236D01*
Y63235D01*
X342550D01*
X355180Y62872D02*
X354180Y63872D01*
X352181D01*
X351181Y62872D01*
Y58874D01*
X352181Y57874D01*
X354180D01*
X355180Y58874D01*
Y60873D01*
X353181D01*
X364629Y77439D02*
X363629Y78439D01*
X361630D01*
X360630Y77439D01*
Y73441D01*
X361630Y72441D01*
X363629D01*
X364629Y73441D01*
Y75440D01*
X362629D01*
X364629Y69959D02*
X363629Y70959D01*
X361630D01*
X360630Y69959D01*
Y65960D01*
X361630Y64961D01*
X363629D01*
X364629Y65960D01*
Y67960D01*
X362629D01*
X364629Y61691D02*
X363629Y62691D01*
X361630D01*
X360630Y61691D01*
Y57693D01*
X361630Y56693D01*
X363629D01*
X364629Y57693D01*
Y59692D01*
X362629D01*
X372896Y77833D02*
X371897Y78833D01*
X369897D01*
X368898Y77833D01*
Y73834D01*
X369897Y72835D01*
X371897D01*
X372896Y73834D01*
Y75834D01*
X370897D01*
X372896Y70353D02*
X371897Y71352D01*
X369897D01*
X368898Y70353D01*
Y66354D01*
X369897Y65354D01*
X371897D01*
X372896Y66354D01*
Y68353D01*
X370897D01*
X373290Y61691D02*
X372290Y62691D01*
X370291D01*
X369291Y61691D01*
Y57693D01*
X370291Y56693D01*
X372290D01*
X373290Y57693D01*
Y59692D01*
X371291D01*
X372896Y51061D02*
X371897Y52061D01*
X369897D01*
X368898Y51061D01*
Y47063D01*
X369897Y46063D01*
X371897D01*
X372896Y47063D01*
Y49062D01*
X370897D01*
X372896Y42400D02*
X371897Y43400D01*
X369897D01*
X368898Y42400D01*
Y38401D01*
X369897Y37402D01*
X371897D01*
X372896Y38401D01*
Y40401D01*
X370897D01*
X374077Y33345D02*
X373078Y34345D01*
X371078D01*
X370079Y33345D01*
Y29346D01*
X371078Y28346D01*
X373078D01*
X374077Y29346D01*
Y31345D01*
X372078D01*
X381164Y67597D02*
X380164Y68597D01*
X378165D01*
X377165Y67597D01*
Y63598D01*
X378165Y62598D01*
X380164D01*
X381164Y63598D01*
Y65597D01*
X379165D01*
X381164Y58935D02*
X380164Y59935D01*
X378165D01*
X377165Y58935D01*
Y54937D01*
X378165Y53937D01*
X380164D01*
X381164Y54937D01*
Y56936D01*
X379165D01*
X381164Y50274D02*
X380164Y51274D01*
X378165D01*
X377165Y50274D01*
Y46275D01*
X378165Y45276D01*
X380164D01*
X381164Y46275D01*
Y48275D01*
X379165D01*
X381164Y32951D02*
X380164Y33951D01*
X378165D01*
X377165Y32951D01*
Y28952D01*
X378165Y27953D01*
X380164D01*
X381164Y28952D01*
Y30952D01*
X379165D01*
X496518Y101061D02*
X495519Y102061D01*
X493519D01*
X492520Y101061D01*
Y97063D01*
X493519Y96063D01*
X495519D01*
X496518Y97063D01*
Y99062D01*
X494519D01*
X487726Y88857D02*
X486726Y89856D01*
X484727D01*
X483727Y88857D01*
Y84858D01*
X484727Y83858D01*
X486726D01*
X487726Y84858D01*
Y86857D01*
X485726D01*
X487726Y76652D02*
X486726Y77652D01*
X484727D01*
X483727Y76652D01*
Y72653D01*
X484727Y71653D01*
X486726D01*
X487726Y72653D01*
Y74653D01*
X485726D01*
X487857Y55392D02*
X486857Y56392D01*
X484858D01*
X483858Y55392D01*
Y51393D01*
X484858Y50394D01*
X486857D01*
X487857Y51393D01*
Y53393D01*
X485858D01*
X489038Y101061D02*
X488038Y102061D01*
X486039D01*
X485039Y101061D01*
Y97063D01*
X486039Y96063D01*
X488038D01*
X489038Y97063D01*
Y99062D01*
X487039D01*
X470140Y76652D02*
X469141Y77652D01*
X467141D01*
X466142Y76652D01*
Y72653D01*
X467141Y71653D01*
X469141D01*
X470140Y72653D01*
Y74653D01*
X468141D01*
X452030Y14447D02*
X451030Y15447D01*
X449031D01*
X448032Y14447D01*
Y10448D01*
X449031Y9449D01*
X451030D01*
X452030Y10448D01*
Y12448D01*
X450031D01*
X478802Y55392D02*
X477802Y56392D01*
X475803D01*
X474803Y55392D01*
Y51393D01*
X475803Y50394D01*
X477802D01*
X478802Y51393D01*
Y53393D01*
X476802D01*
X470928Y101061D02*
X469928Y102061D01*
X467929D01*
X466929Y101061D01*
Y97063D01*
X467929Y96063D01*
X469928D01*
X470928Y97063D01*
Y99062D01*
X468928D01*
X470140Y88857D02*
X469141Y89856D01*
X467141D01*
X466142Y88857D01*
Y84858D01*
X467141Y83858D01*
X469141D01*
X470140Y84858D01*
Y86857D01*
X468141D01*
X470140Y64447D02*
X469141Y65447D01*
X467141D01*
X466142Y64447D01*
Y60448D01*
X467141Y59449D01*
X469141D01*
X470140Y60448D01*
Y62448D01*
X468141D01*
X470140Y55392D02*
X469141Y56392D01*
X467141D01*
X466142Y55392D01*
Y51393D01*
X467141Y50394D01*
X469141D01*
X470140Y51393D01*
Y53393D01*
X468141D01*
X277621Y90431D02*
X276621Y91431D01*
X274622D01*
X273622Y90431D01*
Y86433D01*
X274622Y85433D01*
X276621D01*
X277621Y86433D01*
Y88432D01*
X275621D01*
X277227Y82164D02*
X276227Y83163D01*
X274228D01*
X273228Y82164D01*
Y78165D01*
X274228Y77165D01*
X276227D01*
X277227Y78165D01*
Y80164D01*
X275228D01*
X276833Y73896D02*
X275834Y74896D01*
X273834D01*
X272835Y73896D01*
Y69897D01*
X273834Y68898D01*
X275834D01*
X276833Y69897D01*
Y71897D01*
X274834D01*
X268172Y90431D02*
X267172Y91431D01*
X265173D01*
X264173Y90431D01*
Y86433D01*
X265173Y85433D01*
X267172D01*
X268172Y86433D01*
Y88432D01*
X266173D01*
X267778Y81770D02*
X266779Y82770D01*
X264779D01*
X263779Y81770D01*
Y77771D01*
X264779Y76772D01*
X266779D01*
X267778Y77771D01*
Y79771D01*
X265779D01*
X257148Y90431D02*
X256149Y91431D01*
X254149D01*
X253150Y90431D01*
Y86433D01*
X254149Y85433D01*
X256149D01*
X257148Y86433D01*
Y88432D01*
X255149D01*
X245731Y90431D02*
X244731Y91431D01*
X242732D01*
X241732Y90431D01*
Y86433D01*
X242732Y85433D01*
X244731D01*
X245731Y86433D01*
Y88432D01*
X243732D01*
X209510Y90825D02*
X208511Y91825D01*
X206511D01*
X205512Y90825D01*
Y86826D01*
X206511Y85827D01*
X208511D01*
X209510Y86826D01*
Y88826D01*
X207511D01*
X208723Y97124D02*
X207723Y98124D01*
X205724D01*
X204724Y97124D01*
Y93126D01*
X205724Y92126D01*
X207723D01*
X208723Y93126D01*
Y95125D01*
X206724D01*
X417778Y58935D02*
X416779Y59935D01*
X414779D01*
X413779Y58935D01*
Y54937D01*
X414779Y53937D01*
X416779D01*
X417778Y54937D01*
Y56936D01*
X415779D01*
X417778Y48305D02*
X416779Y49305D01*
X414779D01*
X413779Y48305D01*
Y44307D01*
X414779Y43307D01*
X416779D01*
X417778Y44307D01*
Y46306D01*
X415779D01*
X418566Y37282D02*
X417566Y38282D01*
X415567D01*
X414567Y37282D01*
Y33283D01*
X415567Y32283D01*
X417566D01*
X418566Y33283D01*
Y35282D01*
X416566D01*
X418959Y27046D02*
X417960Y28045D01*
X415960D01*
X414961Y27046D01*
Y23047D01*
X415960Y22047D01*
X417960D01*
X418959Y23047D01*
Y25046D01*
X416960D01*
X417384Y139644D02*
X416385Y140644D01*
X414386D01*
X413386Y139644D01*
Y135645D01*
X414386Y134646D01*
X416385D01*
X417384Y135645D01*
Y137645D01*
X415385D01*
X417384Y125471D02*
X416385Y126470D01*
X414386D01*
X413386Y125471D01*
Y121472D01*
X414386Y120472D01*
X416385D01*
X417384Y121472D01*
Y123471D01*
X415385D01*
X407936Y125865D02*
X406936Y126864D01*
X404937D01*
X403937Y125865D01*
Y121866D01*
X404937Y120866D01*
X406936D01*
X407936Y121866D01*
Y123865D01*
X405936D01*
X459117Y134526D02*
X458117Y135526D01*
X456118D01*
X455118Y134526D01*
Y130527D01*
X456118Y129528D01*
X458117D01*
X459117Y130527D01*
Y132527D01*
X457118D01*
X452424Y134132D02*
X451424Y135132D01*
X449425D01*
X448425Y134132D01*
Y130133D01*
X449425Y129134D01*
X451424D01*
X452424Y130133D01*
Y132133D01*
X450424D01*
X445731Y134132D02*
X444731Y135132D01*
X442732D01*
X441732Y134132D01*
Y130133D01*
X442732Y129134D01*
X444731D01*
X445731Y130133D01*
Y132133D01*
X443732D01*
X459511Y127439D02*
X458511Y128439D01*
X456511D01*
X455512Y127439D01*
Y123441D01*
X456511Y122441D01*
X458511D01*
X459511Y123441D01*
Y125440D01*
X457511D01*
X452424Y139250D02*
X451424Y140250D01*
X449425D01*
X448425Y139250D01*
Y135252D01*
X449425Y134252D01*
X451424D01*
X452424Y135252D01*
Y137251D01*
X450424D01*
X446125Y139250D02*
X445125Y140250D01*
X443126D01*
X442126Y139250D01*
Y135252D01*
X443126Y134252D01*
X445125D01*
X446125Y135252D01*
Y137251D01*
X444125D01*
X459904Y119565D02*
X458905Y120565D01*
X456905D01*
X455905Y119565D01*
Y115567D01*
X456905Y114567D01*
X458905D01*
X459904Y115567D01*
Y117566D01*
X457905D01*
X465810Y108148D02*
X464810Y109148D01*
X462811D01*
X461811Y108148D01*
Y104149D01*
X462811Y103150D01*
X464810D01*
X465810Y104149D01*
Y106149D01*
X463810D01*
X320928Y27046D02*
X319928Y28045D01*
X317929D01*
X316929Y27046D01*
Y23047D01*
X317929Y22047D01*
X319928D01*
X320928Y23047D01*
Y25046D01*
X318929D01*
X16728Y109723D02*
X15729Y110722D01*
X13729D01*
X12730Y109723D01*
Y105724D01*
X13729Y104724D01*
X15729D01*
X16728Y105724D01*
Y107723D01*
X14729D01*
X7936Y97584D02*
X6936Y98583D01*
X4937D01*
X3937Y97584D01*
Y93585D01*
X4937Y92585D01*
X6936D01*
X7936Y93585D01*
Y95584D01*
X5936D01*
X7936Y49027D02*
X6936Y50027D01*
X4937D01*
X3937Y49027D01*
Y45028D01*
X4937Y44029D01*
X6936D01*
X7936Y45028D01*
Y47028D01*
X5936D01*
X55180Y28227D02*
X54180Y29226D01*
X52181D01*
X51181Y28227D01*
Y24228D01*
X52181Y23228D01*
X54180D01*
X55180Y24228D01*
Y26227D01*
X53180D01*
X61479Y103030D02*
X60479Y104030D01*
X58480D01*
X57480Y103030D01*
Y99031D01*
X58480Y98032D01*
X60479D01*
X61479Y99031D01*
Y101031D01*
X59480D01*
X61873Y77833D02*
X60873Y78833D01*
X58874D01*
X57874Y77833D01*
Y73834D01*
X58874Y72835D01*
X60873D01*
X61873Y73834D01*
Y75834D01*
X59873D01*
X24340Y109723D02*
X23340Y110722D01*
X21341D01*
X20341Y109723D01*
Y105724D01*
X21341Y104724D01*
X23340D01*
X24340Y105724D01*
Y107723D01*
X22341D01*
X24340Y97518D02*
X23340Y98518D01*
X21341D01*
X20341Y97518D01*
Y93519D01*
X21341Y92520D01*
X23340D01*
X24340Y93519D01*
Y95519D01*
X22341D01*
X24340Y85313D02*
X23340Y86313D01*
X21341D01*
X20341Y85313D01*
Y81315D01*
X21341Y80315D01*
X23340D01*
X24340Y81315D01*
Y83314D01*
X22341D01*
X24340Y73109D02*
X23340Y74108D01*
X21341D01*
X20341Y73109D01*
Y69110D01*
X21341Y68110D01*
X23340D01*
X24340Y69110D01*
Y71109D01*
X22341D01*
X24340Y60904D02*
X23340Y61904D01*
X21341D01*
X20341Y60904D01*
Y56905D01*
X21341Y55905D01*
X23340D01*
X24340Y56905D01*
Y58904D01*
X22341D01*
X24340Y48699D02*
X23340Y49699D01*
X21341D01*
X20341Y48699D01*
Y44701D01*
X21341Y43701D01*
X23340D01*
X24340Y44701D01*
Y46700D01*
X22341D01*
X24471Y36888D02*
X23471Y37888D01*
X21472D01*
X20472Y36888D01*
Y32889D01*
X21472Y31890D01*
X23471D01*
X24471Y32889D01*
Y34889D01*
X22472D01*
X35101Y139250D02*
X34101Y140250D01*
X32102D01*
X31102Y139250D01*
Y135252D01*
X32102Y134252D01*
X34101D01*
X35101Y135252D01*
Y137251D01*
X33102D01*
X49668Y137282D02*
X48668Y138282D01*
X46669D01*
X45669Y137282D01*
Y133283D01*
X46669Y132283D01*
X48668D01*
X49668Y133283D01*
Y135283D01*
X47669D01*
X56755Y137675D02*
X55755Y138675D01*
X53756D01*
X52756Y137675D01*
Y133677D01*
X53756Y132677D01*
X55755D01*
X56755Y133677D01*
Y135676D01*
X54755D01*
X31164Y8935D02*
X30164Y9935D01*
X28165D01*
X27165Y8935D01*
Y4937D01*
X28165Y3937D01*
X30164D01*
X31164Y4937D01*
Y6936D01*
X29165D01*
X30377Y31376D02*
X29377Y32376D01*
X27378D01*
X26378Y31376D01*
Y27378D01*
X27378Y26378D01*
X29377D01*
X30377Y27378D01*
Y29377D01*
X28377D01*
X75652Y15628D02*
X74653Y16628D01*
X72653D01*
X71653Y15628D01*
Y11630D01*
X72653Y10630D01*
X74653D01*
X75652Y11630D01*
Y13629D01*
X73653D01*
X75652Y27833D02*
X74653Y28833D01*
X72653D01*
X71653Y27833D01*
Y23834D01*
X72653Y22835D01*
X74653D01*
X75652Y23834D01*
Y25834D01*
X73653D01*
X277227Y28620D02*
X276227Y29620D01*
X274228D01*
X273228Y28620D01*
Y24622D01*
X274228Y23622D01*
X276227D01*
X277227Y24622D01*
Y26621D01*
X275228D01*
X267385Y27833D02*
X266385Y28833D01*
X264386D01*
X263386Y27833D01*
Y23834D01*
X264386Y22835D01*
X266385D01*
X267385Y23834D01*
Y25834D01*
X265385D01*
X257148Y27833D02*
X256149Y28833D01*
X254149D01*
X253150Y27833D01*
Y23834D01*
X254149Y22835D01*
X256149D01*
X257148Y23834D01*
Y25834D01*
X255149D01*
X247699Y27833D02*
X246700Y28833D01*
X244701D01*
X243701Y27833D01*
Y23834D01*
X244701Y22835D01*
X246700D01*
X247699Y23834D01*
Y25834D01*
X245700D01*
X247699Y35707D02*
X246700Y36707D01*
X244701D01*
X243701Y35707D01*
Y31708D01*
X244701Y30709D01*
X246700D01*
X247699Y31708D01*
Y33708D01*
X245700D01*
X257148Y35707D02*
X256149Y36707D01*
X254149D01*
X253150Y35707D01*
Y31708D01*
X254149Y30709D01*
X256149D01*
X257148Y31708D01*
Y33708D01*
X255149D01*
X247306Y43975D02*
X246306Y44974D01*
X244307D01*
X243307Y43975D01*
Y39976D01*
X244307Y38976D01*
X246306D01*
X247306Y39976D01*
Y41975D01*
X245306D01*
X257148Y43581D02*
X256149Y44581D01*
X254149D01*
X253150Y43581D01*
Y39582D01*
X254149Y38583D01*
X256149D01*
X257148Y39582D01*
Y41582D01*
X255149D01*
X381164Y41612D02*
X380164Y42612D01*
X378165D01*
X377165Y41612D01*
Y37614D01*
X378165Y36614D01*
X380164D01*
X381164Y37614D01*
Y39613D01*
X379165D01*
X400455Y45943D02*
X399456Y46943D01*
X397456D01*
X396457Y45943D01*
Y41945D01*
X397456Y40945D01*
X399456D01*
X400455Y41945D01*
Y43944D01*
X398456D01*
X406361Y53424D02*
X405361Y54423D01*
X403362D01*
X402362Y53424D01*
Y49425D01*
X403362Y48425D01*
X405361D01*
X406361Y49425D01*
Y51424D01*
X404361D01*
X407936Y33738D02*
X406936Y34738D01*
X404937D01*
X403937Y33738D01*
Y29740D01*
X404937Y28740D01*
X406936D01*
X407936Y29740D01*
Y31739D01*
X405936D01*
X392188Y54998D02*
X391188Y55998D01*
X389189D01*
X388189Y54998D01*
Y51000D01*
X389189Y50000D01*
X391188D01*
X392188Y51000D01*
Y52999D01*
X390188D01*
X391400Y41219D02*
X390401Y42219D01*
X388401D01*
X387402Y41219D01*
Y37220D01*
X388401Y36220D01*
X390401D01*
X391400Y37220D01*
Y39219D01*
X389401D01*
X285495Y116809D02*
X284495Y117809D01*
X282496D01*
X281496Y116809D01*
Y112811D01*
X282496Y111811D01*
X284495D01*
X285495Y112811D01*
Y114810D01*
X283495D01*
X299668Y117203D02*
X298668Y118203D01*
X296669D01*
X295669Y117203D01*
Y113204D01*
X296669Y112205D01*
X298668D01*
X299668Y113204D01*
Y115204D01*
X297669D01*
X292975Y116809D02*
X291975Y117809D01*
X289976D01*
X288976Y116809D01*
Y112811D01*
X289976Y111811D01*
X291975D01*
X292975Y112811D01*
Y114810D01*
X290976D01*
X302424Y112479D02*
X301424Y113478D01*
X299425D01*
X298425Y112479D01*
Y108480D01*
X299425Y107480D01*
X301424D01*
X302424Y108480D01*
Y110479D01*
X300425D01*
X272896Y122321D02*
X271897Y123321D01*
X269897D01*
X268898Y122321D01*
Y118323D01*
X269897Y117323D01*
X271897D01*
X272896Y118323D01*
Y120322D01*
X270897D01*
X278802Y120353D02*
X277802Y121352D01*
X275803D01*
X274803Y120353D01*
Y116354D01*
X275803Y115354D01*
X277802D01*
X278802Y116354D01*
Y118353D01*
X276802D01*
X287857Y112479D02*
X286857Y113478D01*
X284858D01*
X283858Y112479D01*
Y108480D01*
X284858Y107480D01*
X286857D01*
X287857Y108480D01*
Y110479D01*
X285858D01*
X294944Y112479D02*
X293944Y113478D01*
X291945D01*
X290945Y112479D01*
Y108480D01*
X291945Y107480D01*
X293944D01*
X294944Y108480D01*
Y110479D01*
X292944D01*
X332739Y139250D02*
X331739Y140250D01*
X329740D01*
X328740Y139250D01*
Y135252D01*
X329740Y134252D01*
X331739D01*
X332739Y135252D01*
Y137251D01*
X330739D01*
X332739Y130589D02*
X331739Y131589D01*
X329740D01*
X328740Y130589D01*
Y126590D01*
X329740Y125591D01*
X331739D01*
X332739Y126590D01*
Y128590D01*
X330739D01*
X332739Y114447D02*
X331739Y115447D01*
X329740D01*
X328740Y114447D01*
Y110449D01*
X329740Y109449D01*
X331739D01*
X332739Y110449D01*
Y112448D01*
X330739D01*
X410298Y139644D02*
X409298Y140644D01*
X407299D01*
X406299Y139644D01*
Y135645D01*
X407299Y134646D01*
X409298D01*
X410298Y135645D01*
Y137645D01*
X408299D01*
X420928Y131376D02*
X419928Y132376D01*
X417929D01*
X416929Y131376D01*
Y127378D01*
X417929Y126378D01*
X419928D01*
X420928Y127378D01*
Y129377D01*
X418928D01*
X291007Y74290D02*
X290007Y75289D01*
X288007D01*
X287008Y74290D01*
Y70291D01*
X288007Y69291D01*
X290007D01*
X291007Y70291D01*
Y72290D01*
X289007D01*
X291007Y65235D02*
X290007Y66234D01*
X288007D01*
X287008Y65235D01*
Y61236D01*
X288007Y60236D01*
X290007D01*
X291007Y61236D01*
Y63235D01*
X289007D01*
X267385Y35707D02*
X266385Y36707D01*
X264386D01*
X263386Y35707D01*
Y31708D01*
X264386Y30709D01*
X266385D01*
X267385Y31708D01*
Y33708D01*
X265385D01*
X238644Y27439D02*
X237645Y28439D01*
X235645D01*
X234646Y27439D01*
Y23441D01*
X235645Y22441D01*
X237645D01*
X238644Y23441D01*
Y25440D01*
X236645D01*
X257148Y21927D02*
X256149Y22927D01*
X254149D01*
X253150Y21927D01*
Y17929D01*
X254149Y16929D01*
X256149D01*
X257148Y17929D01*
Y19928D01*
X255149D01*
X238644Y35707D02*
X237645Y36707D01*
X235645D01*
X234646Y35707D01*
Y31708D01*
X235645Y30709D01*
X237645D01*
X238644Y31708D01*
Y33708D01*
X236645D01*
X237857Y43581D02*
X236857Y44581D01*
X234858D01*
X233858Y43581D01*
Y39582D01*
X234858Y38583D01*
X236857D01*
X237857Y39582D01*
Y41582D01*
X235858D01*
X246912Y51849D02*
X245912Y52849D01*
X243913D01*
X242913Y51849D01*
Y47850D01*
X243913Y46850D01*
X245912D01*
X246912Y47850D01*
Y49849D01*
X244913D01*
X189038Y10904D02*
X188038Y11904D01*
X186039D01*
X185039Y10904D01*
Y6905D01*
X186039Y5906D01*
X188038D01*
X189038Y6905D01*
Y8905D01*
X187039D01*
X176833Y9723D02*
X175834Y10723D01*
X173834D01*
X172835Y9723D01*
Y5724D01*
X173834Y4724D01*
X175834D01*
X176833Y5724D01*
Y7723D01*
X174834D01*
X192581Y17990D02*
X191582Y18990D01*
X189582D01*
X188583Y17990D01*
Y13992D01*
X189582Y12992D01*
X191582D01*
X192581Y13992D01*
Y15991D01*
X190582D01*
X32739Y36888D02*
X31739Y37888D01*
X29740D01*
X28740Y36888D01*
Y32889D01*
X29740Y31890D01*
X31739D01*
X32739Y32889D01*
Y34889D01*
X30740D01*
X75652Y21534D02*
X74653Y22534D01*
X72653D01*
X71653Y21534D01*
Y17535D01*
X72653Y16535D01*
X74653D01*
X75652Y17535D01*
Y19534D01*
X73653D01*
X34314Y22321D02*
X33314Y23321D01*
X31315D01*
X30315Y22321D01*
Y18323D01*
X31315Y17323D01*
X33314D01*
X34314Y18323D01*
Y20322D01*
X32314D01*
X55311Y21534D02*
X54311Y22534D01*
X52312D01*
X51312Y21534D01*
Y17535D01*
X52312Y16535D01*
X54311D01*
X55311Y17535D01*
Y19534D01*
X53312D01*
X45337Y21534D02*
X44338Y22534D01*
X42338D01*
X41339Y21534D01*
Y17535D01*
X42338Y16535D01*
X44338D01*
X45337Y17535D01*
Y19534D01*
X43338D01*
X56361Y82164D02*
X55361Y83163D01*
X53362D01*
X52362Y82164D01*
Y78165D01*
X53362Y77165D01*
X55361D01*
X56361Y78165D01*
Y80164D01*
X54361D01*
X55967Y87675D02*
X54967Y88675D01*
X52968D01*
X51968Y87675D01*
Y83677D01*
X52968Y82677D01*
X54967D01*
X55967Y83677D01*
Y85676D01*
X53968D01*
X33920Y127833D02*
X32920Y128833D01*
X30921D01*
X29921Y127833D01*
Y123834D01*
X30921Y122835D01*
X32920D01*
X33920Y123834D01*
Y125834D01*
X31921D01*
X42581Y137282D02*
X41582Y138282D01*
X39582D01*
X38583Y137282D01*
Y133283D01*
X39582Y132283D01*
X41582D01*
X42581Y133283D01*
Y135283D01*
X40582D01*
X63841Y143581D02*
X62841Y144581D01*
X60842D01*
X59842Y143581D01*
Y139582D01*
X60842Y138583D01*
X62841D01*
X63841Y139582D01*
Y141582D01*
X61842D01*
X111873Y99487D02*
X110873Y100486D01*
X108874D01*
X107874Y99487D01*
Y95488D01*
X108874Y94488D01*
X110873D01*
X111873Y95488D01*
Y97487D01*
X109873D01*
X320928Y21140D02*
X319928Y22140D01*
X317929D01*
X316929Y21140D01*
Y17141D01*
X317929Y16142D01*
X319928D01*
X320928Y17141D01*
Y19141D01*
X318929D01*
X321322Y15628D02*
X320322Y16628D01*
X318322D01*
X317323Y15628D01*
Y11630D01*
X318322Y10630D01*
X320322D01*
X321322Y11630D01*
Y13629D01*
X319322D01*
X216597Y61691D02*
X215598Y62691D01*
X213598D01*
X212598Y61691D01*
Y57693D01*
X213598Y56693D01*
X215598D01*
X216597Y57693D01*
Y59692D01*
X214598D01*
X216597Y56967D02*
X215598Y57967D01*
X213598D01*
X212598Y56967D01*
Y52968D01*
X213598Y51968D01*
X215598D01*
X216597Y52968D01*
Y54967D01*
X214598D01*
X7936Y85444D02*
X6936Y86444D01*
X4937D01*
X3937Y85444D01*
Y81446D01*
X4937Y80446D01*
X6936D01*
X7936Y81446D01*
Y83445D01*
X5936D01*
X7936Y73305D02*
X6936Y74305D01*
X4937D01*
X3937Y73305D01*
Y69307D01*
X4937Y68307D01*
X6936D01*
X7936Y69307D01*
Y71306D01*
X5936D01*
X7936Y61166D02*
X6936Y62166D01*
X4937D01*
X3937Y61166D01*
Y57168D01*
X4937Y56168D01*
X6936D01*
X7936Y57168D01*
Y59167D01*
X5936D01*
X61085Y84132D02*
X60086Y85132D01*
X58086D01*
X57087Y84132D01*
Y80133D01*
X58086Y79134D01*
X60086D01*
X61085Y80133D01*
Y82133D01*
X59086D01*
X61479Y109329D02*
X60479Y110329D01*
X58480D01*
X57480Y109329D01*
Y105330D01*
X58480Y104331D01*
X60479D01*
X61479Y105330D01*
Y107330D01*
X59480D01*
X139825Y33738D02*
X138826Y34738D01*
X136826D01*
X135827Y33738D01*
Y29740D01*
X136826Y28740D01*
X138826D01*
X139825Y29740D01*
Y31739D01*
X137826D01*
X237857Y51849D02*
X236857Y52849D01*
X234858D01*
X233858Y51849D01*
Y47850D01*
X234858Y46850D01*
X236857D01*
X237857Y47850D01*
Y49849D01*
X235858D01*
X208329Y61691D02*
X207330Y62691D01*
X205330D01*
X204331Y61691D01*
Y57693D01*
X205330Y56693D01*
X207330D01*
X208329Y57693D01*
Y59692D01*
X206330D01*
X191794Y65628D02*
X190794Y66628D01*
X188795D01*
X187795Y65628D01*
Y61630D01*
X188795Y60630D01*
X190794D01*
X191794Y61630D01*
Y63629D01*
X189795D01*
X181951Y64841D02*
X180952Y65841D01*
X178952D01*
X177953Y64841D01*
Y60842D01*
X178952Y59842D01*
X180952D01*
X181951Y60842D01*
Y62841D01*
X179952D01*
X187463Y62085D02*
X186464Y63085D01*
X184464D01*
X183465Y62085D01*
Y58086D01*
X184464Y57087D01*
X186464D01*
X187463Y58086D01*
Y60086D01*
X185464D01*
X198487Y62085D02*
X197487Y63085D01*
X195488D01*
X194488Y62085D01*
Y58086D01*
X195488Y57087D01*
X197487D01*
X198487Y58086D01*
Y60086D01*
X196487D01*
X458723Y17990D02*
X457723Y18990D01*
X455724D01*
X454724Y17990D01*
Y13992D01*
X455724Y12992D01*
X457723D01*
X458723Y13992D01*
Y15991D01*
X456724D01*
X466203Y47518D02*
X465204Y48518D01*
X463204D01*
X462205Y47518D01*
Y43519D01*
X463204Y42520D01*
X465204D01*
X466203Y43519D01*
Y45519D01*
X464204D01*
X465810Y29801D02*
X464810Y30801D01*
X462811D01*
X461811Y29801D01*
Y25803D01*
X462811Y24803D01*
X464810D01*
X465810Y25803D01*
Y27802D01*
X463810D01*
X465810Y38463D02*
X464810Y39463D01*
X462811D01*
X461811Y38463D01*
Y34464D01*
X462811Y33465D01*
X464810D01*
X465810Y34464D01*
Y36464D01*
X463810D01*
X452424Y127833D02*
X451424Y128833D01*
X449425D01*
X448425Y127833D01*
Y123834D01*
X449425Y122835D01*
X451424D01*
X452424Y123834D01*
Y125834D01*
X450424D01*
X445731Y128227D02*
X444731Y129226D01*
X442732D01*
X441732Y128227D01*
Y124228D01*
X442732Y123228D01*
X444731D01*
X445731Y124228D01*
Y126227D01*
X443732D01*
X332345Y122715D02*
X331346Y123715D01*
X329346D01*
X328346Y122715D01*
Y118716D01*
X329346Y117717D01*
X331346D01*
X332345Y118716D01*
Y120716D01*
X330346D01*
X216203Y97518D02*
X215204Y98518D01*
X213204D01*
X212205Y97518D01*
Y93519D01*
X213204Y92520D01*
X215204D01*
X216203Y93519D01*
Y95519D01*
X214204D01*
X216203Y90431D02*
X215204Y91431D01*
X213204D01*
X212205Y90431D01*
Y86433D01*
X213204Y85433D01*
X215204D01*
X216203Y86433D01*
Y88432D01*
X214204D01*
X237857Y90431D02*
X236857Y91431D01*
X234858D01*
X233858Y90431D01*
Y86433D01*
X234858Y85433D01*
X236857D01*
X237857Y86433D01*
Y88432D01*
X235858D01*
D62*
X15035Y339437D02*
X13835Y340637D01*
X11436D01*
X10236Y339437D01*
Y338238D01*
X11436Y337038D01*
X13835D01*
X15035Y335839D01*
Y334639D01*
X13835Y333439D01*
X11436D01*
X10236Y334639D01*
X17434Y338238D02*
Y334639D01*
X18633Y333439D01*
X22232D01*
Y332240D01*
X21033Y331040D01*
X19833D01*
X22232Y333439D02*
Y338238D01*
X24632Y333439D02*
Y338238D01*
X25831D01*
X27031Y337038D01*
Y333439D01*
Y337038D01*
X28230Y338238D01*
X29430Y337038D01*
Y333439D01*
X31829Y340637D02*
Y333439D01*
X35428D01*
X36628Y334639D01*
Y335839D01*
Y337038D01*
X35428Y338238D01*
X31829D01*
X40227Y333439D02*
X42626D01*
X43825Y334639D01*
Y337038D01*
X42626Y338238D01*
X40227D01*
X39027Y337038D01*
Y334639D01*
X40227Y333439D01*
X46225D02*
X48624D01*
X47424D01*
Y340637D01*
X46225D01*
X63036D02*
Y333439D01*
Y337038D01*
X67835D01*
Y340637D01*
Y333439D01*
X70234D02*
X72633D01*
X71434D01*
Y338238D01*
X70234D01*
X77432Y339437D02*
Y338238D01*
X76232D01*
X78631D01*
X77432D01*
Y334639D01*
X78631Y333439D01*
X94226Y339437D02*
X93027Y340637D01*
X90627D01*
X89428Y339437D01*
Y334639D01*
X90627Y333439D01*
X93027D01*
X94226Y334639D01*
X97825Y333439D02*
X100224D01*
X101424Y334639D01*
Y337038D01*
X100224Y338238D01*
X97825D01*
X96625Y337038D01*
Y334639D01*
X97825Y333439D01*
X103823Y338238D02*
Y334639D01*
X105023Y333439D01*
X108622D01*
Y338238D01*
X111021Y333439D02*
Y338238D01*
X114620D01*
X115819Y337038D01*
Y333439D01*
X119418Y339437D02*
Y338238D01*
X118218D01*
X120618D01*
X119418D01*
Y334639D01*
X120618Y333439D01*
X137416Y340637D02*
X132618D01*
Y337038D01*
X135017D01*
X132618D01*
Y333439D01*
X139815D02*
X142215D01*
X141015D01*
Y338238D01*
X139815D01*
X145813Y333439D02*
Y338238D01*
X149412D01*
X150612Y337038D01*
Y333439D01*
X153011D02*
X155410D01*
X154211D01*
Y338238D01*
X153011D01*
X159009Y333439D02*
X162608D01*
X163807Y334639D01*
X162608Y335839D01*
X160209D01*
X159009Y337038D01*
X160209Y338238D01*
X163807D01*
X166207Y340637D02*
Y333439D01*
Y337038D01*
X167406Y338238D01*
X169806D01*
X171005Y337038D01*
Y333439D01*
X177003D02*
X174604D01*
X173404Y334639D01*
Y337038D01*
X174604Y338238D01*
X177003D01*
X178203Y337038D01*
Y335839D01*
X173404D01*
X185400Y340637D02*
Y333439D01*
X181802D01*
X180602Y334639D01*
Y337038D01*
X181802Y338238D01*
X185400D01*
X194997Y340637D02*
Y333439D01*
Y337038D01*
X199796D01*
Y340637D01*
Y333439D01*
X203395D02*
X205794D01*
X206994Y334639D01*
Y337038D01*
X205794Y338238D01*
X203395D01*
X202195Y337038D01*
Y334639D01*
X203395Y333439D01*
X209393D02*
X211792D01*
X210592D01*
Y340637D01*
X209393D01*
X218990Y333439D02*
X216590D01*
X215391Y334639D01*
Y337038D01*
X216590Y338238D01*
X218990D01*
X220189Y337038D01*
Y335839D01*
X215391D01*
X234585Y339437D02*
X233385Y340637D01*
X230986D01*
X229786Y339437D01*
Y338238D01*
X230986Y337038D01*
X233385D01*
X234585Y335839D01*
Y334639D01*
X233385Y333439D01*
X230986D01*
X229786Y334639D01*
X236984Y333439D02*
X239383D01*
X238183D01*
Y338238D01*
X236984D01*
X242982D02*
X247780D01*
X242982Y333439D01*
X247780D01*
X253778D02*
X251379D01*
X250180Y334639D01*
Y337038D01*
X251379Y338238D01*
X253778D01*
X254978Y337038D01*
Y335839D01*
X250180D01*
X266978Y333439D02*
Y340637D01*
X270577D01*
X271776Y339437D01*
Y337038D01*
X270577Y335839D01*
X266978D01*
X274176Y333439D02*
X276575D01*
X275375D01*
Y340637D01*
X274176D01*
X281373Y338238D02*
X283773D01*
X284972Y337038D01*
Y333439D01*
X281373D01*
X280174Y334639D01*
X281373Y335839D01*
X284972D01*
X288571Y339437D02*
Y338238D01*
X287371D01*
X289771D01*
X288571D01*
Y334639D01*
X289771Y333439D01*
X296968D02*
X294569D01*
X293369Y334639D01*
Y337038D01*
X294569Y338238D01*
X296968D01*
X298168Y337038D01*
Y335839D01*
X293369D01*
X305366Y340637D02*
Y333439D01*
X301767D01*
X300567Y334639D01*
Y337038D01*
X301767Y338238D01*
X305366D01*
X317366Y340637D02*
Y333439D01*
Y337038D01*
X322164D01*
Y340637D01*
Y333439D01*
X325763D02*
X328162D01*
X329362Y334639D01*
Y337038D01*
X328162Y338238D01*
X325763D01*
X324563Y337038D01*
Y334639D01*
X325763Y333439D01*
X331761D02*
X334160D01*
X332961D01*
Y340637D01*
X331761D01*
X341358Y333439D02*
X338959D01*
X337759Y334639D01*
Y337038D01*
X338959Y338238D01*
X341358D01*
X342557Y337038D01*
Y335839D01*
X337759D01*
X352154Y340637D02*
X356953D01*
X354554D01*
Y333439D01*
X359352Y338238D02*
Y334639D01*
X360552Y333439D01*
X364150D01*
Y332240D01*
X362951Y331040D01*
X361751D01*
X364150Y333439D02*
Y338238D01*
X366550Y331040D02*
Y338238D01*
X370148D01*
X371348Y337038D01*
Y334639D01*
X370148Y333439D01*
X366550D01*
X377346D02*
X374947D01*
X373747Y334639D01*
Y337038D01*
X374947Y338238D01*
X377346D01*
X378546Y337038D01*
Y335839D01*
X373747D01*
X1436Y344239D02*
X390546D01*
X1436Y328039D02*
X390546D01*
X1436Y344239D02*
Y232039D01*
X390546Y344239D02*
Y232039D01*
X58636Y344239D02*
Y232039D01*
X128218Y344239D02*
Y232039D01*
X262578Y344239D02*
Y232039D01*
X312966Y344239D02*
Y232039D01*
X1436Y244039D02*
X390546D01*
X1436Y232039D02*
X390546D01*
M02*
