%FSLAX25Y25*%
%MOIN*%
G70*
G01*
G75*
G04 Layer_Color=16711935*
%ADD10R,0.07087X0.14173*%
%ADD11R,0.03937X0.04724*%
%ADD12R,0.06299X0.13780*%
%ADD13O,0.07874X0.02400*%
%ADD14O,0.07874X0.02402*%
%ADD15R,0.03465X0.05000*%
%ADD16R,0.05512X0.04724*%
%ADD17R,0.04724X0.03937*%
%ADD18R,0.05118X0.07480*%
%ADD19R,0.04724X0.03150*%
%ADD20R,0.08268X0.07874*%
%ADD21R,0.03150X0.03150*%
%ADD22R,0.06299X0.03937*%
%ADD23R,0.20079X0.18898*%
%ADD24R,0.11811X0.03937*%
%ADD25R,0.01575X0.07874*%
%ADD26R,0.03937X0.01575*%
%ADD27O,0.10000X0.02400*%
%ADD28O,0.10000X0.02402*%
%ADD29R,0.12205X0.06102*%
%ADD30C,0.02000*%
%ADD31C,0.02500*%
%ADD32C,0.03000*%
%ADD33C,0.02362*%
%ADD34C,0.05000*%
%ADD35C,0.03500*%
%ADD36C,0.02200*%
%ADD37C,0.01000*%
%ADD38C,0.04000*%
%ADD39C,0.07000*%
%ADD40C,0.02400*%
%ADD41C,0.06000*%
%ADD42C,0.04500*%
%ADD43C,0.05906*%
%ADD44R,0.05906X0.05906*%
%ADD45C,0.19685*%
%ADD46C,0.07874*%
%ADD47R,0.07874X0.07874*%
%ADD48C,0.00787*%
%ADD49C,0.07480*%
%ADD50R,0.07480X0.07480*%
%ADD51C,0.03543*%
%ADD52R,0.09055X0.05512*%
%ADD53R,0.07874X0.03937*%
%ADD54R,0.11811X0.15748*%
%ADD55R,0.03937X0.02362*%
%ADD56C,0.00787*%
%ADD57C,0.01969*%
%ADD58C,0.01575*%
%ADD59C,0.01181*%
%ADD60C,0.00394*%
%ADD61C,0.00600*%
D37*
X-7874Y0D02*
Y46258D01*
Y97443D02*
Y143701D01*
X-9874Y6000D02*
X-7874Y0D01*
X-5874Y6000D01*
X-9874Y137701D02*
X-7874Y143701D01*
X-5874Y137701D01*
X-8874Y0D02*
X-6874D01*
X-8874Y143701D02*
X-6874D01*
X0Y-10827D02*
X229375Y-11275D01*
X274562Y-11363D02*
X503937Y-11811D01*
X0Y-10827D02*
X6004Y-8839D01*
X0Y-10827D02*
X5996Y-12839D01*
X497941Y-9799D02*
X503937Y-11811D01*
X497933Y-13799D02*
X503937Y-11811D01*
X-2Y-11827D02*
X2Y-9827D01*
X503935Y-12811D02*
X503939Y-10811D01*
X-394Y0D02*
Y143701D01*
X503937D01*
Y0D02*
Y143701D01*
X-394Y0D02*
X503937D01*
D56*
X14961Y113234D02*
Y145734D01*
X-2339Y129134D02*
X31361D01*
X488583Y-939D02*
Y31561D01*
X471283Y14961D02*
X504983D01*
X488976Y112446D02*
Y144946D01*
X471676Y128346D02*
X505376D01*
X14567Y-939D02*
Y31561D01*
X-2733Y14961D02*
X30967D01*
D61*
X-9273Y47258D02*
X-10273Y48258D01*
Y50257D01*
X-9273Y51257D01*
X-8274D01*
X-7274Y50257D01*
Y49257D01*
Y50257D01*
X-6274Y51257D01*
X-5275D01*
X-4275Y50257D01*
Y48258D01*
X-5275Y47258D01*
X-10273Y57255D02*
X-9273Y55256D01*
X-7274Y53256D01*
X-5275D01*
X-4275Y54256D01*
Y56255D01*
X-5275Y57255D01*
X-6274D01*
X-7274Y56255D01*
Y53256D01*
X-4275Y59254D02*
X-5275D01*
Y60254D01*
X-4275D01*
Y59254D01*
X-10273Y68251D02*
Y64253D01*
X-7274D01*
X-8274Y66252D01*
Y67252D01*
X-7274Y68251D01*
X-5275D01*
X-4275Y67252D01*
Y65252D01*
X-5275Y64253D01*
X-4275Y78248D02*
X-6274Y76249D01*
X-8274D01*
X-10273Y78248D01*
X-4275Y81247D02*
X-8274D01*
Y82247D01*
X-7274Y83246D01*
X-4275D01*
X-7274D01*
X-8274Y84246D01*
X-7274Y85246D01*
X-4275D01*
Y87245D02*
X-8274D01*
Y88245D01*
X-7274Y89245D01*
X-4275D01*
X-7274D01*
X-8274Y90244D01*
X-7274Y91244D01*
X-4275D01*
Y93243D02*
X-6274Y95243D01*
X-8274D01*
X-10273Y93243D01*
X230368Y-14876D02*
X232368Y-14880D01*
X231368Y-14878D01*
X231380Y-8880D01*
X230378Y-9877D01*
X239365Y-14893D02*
X235367Y-14886D01*
X239373Y-10895D01*
X239375Y-9895D01*
X238377Y-8893D01*
X236378Y-8889D01*
X235376Y-9887D01*
X241374Y-9899D02*
X242376Y-8901D01*
X244375Y-8905D01*
X245373Y-9907D01*
X245371Y-10906D01*
X244370Y-11904D01*
X245367Y-12906D01*
X245365Y-13905D01*
X244364Y-14903D01*
X242364Y-14899D01*
X241367Y-13897D01*
X241369Y-12898D01*
X242370Y-11900D01*
X241372Y-10898D01*
X241374Y-9899D01*
X242370Y-11900D02*
X244370Y-11904D01*
X255360Y-14924D02*
X253365Y-12921D01*
X253369Y-10922D01*
X255372Y-8926D01*
X258359Y-14930D02*
X258367Y-10932D01*
X259367Y-10934D01*
X260364Y-11935D01*
X260359Y-14934D01*
X260364Y-11935D01*
X261366Y-10938D01*
X262364Y-11939D01*
X262358Y-14938D01*
X264357Y-14942D02*
X264365Y-10943D01*
X265365Y-10945D01*
X266362Y-11947D01*
X266357Y-14946D01*
X266362Y-11947D01*
X267364Y-10949D01*
X268362Y-11951D01*
X268356Y-14950D01*
X270355Y-14954D02*
X272358Y-12958D01*
X272362Y-10959D01*
X270367Y-8956D01*
M02*
