%FSLAX25Y25*%
%MOIN*%
G70*
G01*
G75*
G04 Layer_Physical_Order=2*
G04 Layer_Color=16711680*
%ADD10R,0.07087X0.14173*%
%ADD11R,0.03937X0.04724*%
%ADD12R,0.06299X0.13780*%
%ADD13O,0.07874X0.02400*%
%ADD14O,0.07874X0.02402*%
%ADD15R,0.03465X0.05000*%
%ADD16R,0.05512X0.04724*%
%ADD17R,0.04724X0.03937*%
%ADD18R,0.05118X0.07480*%
%ADD19R,0.04724X0.03150*%
%ADD20R,0.08268X0.07874*%
%ADD21R,0.03150X0.03150*%
%ADD22R,0.06299X0.03937*%
%ADD23R,0.20079X0.18898*%
%ADD24R,0.11811X0.03937*%
%ADD25R,0.01575X0.07874*%
%ADD26R,0.03937X0.01575*%
%ADD27O,0.10000X0.02400*%
%ADD28O,0.10000X0.02402*%
%ADD29R,0.12205X0.06102*%
%ADD30C,0.02000*%
%ADD31C,0.02500*%
%ADD32C,0.03000*%
%ADD33C,0.02362*%
%ADD34C,0.05000*%
%ADD35C,0.03500*%
%ADD36C,0.02200*%
%ADD37C,0.01000*%
%ADD38C,0.04000*%
%ADD39C,0.07000*%
%ADD40C,0.02400*%
%ADD41C,0.06000*%
%ADD42C,0.04500*%
%ADD43C,0.05906*%
%ADD44R,0.05906X0.05906*%
%ADD45C,0.19685*%
%ADD46C,0.07874*%
%ADD47R,0.07874X0.07874*%
%ADD48C,0.00787*%
%ADD49C,0.07480*%
%ADD50R,0.07480X0.07480*%
%ADD51C,0.03543*%
%ADD52R,0.09055X0.05512*%
%ADD53R,0.07874X0.03937*%
%ADD54R,0.11811X0.15748*%
%ADD55R,0.03937X0.02362*%
G36*
X213401Y40536D02*
X213401Y40536D01*
X213401Y40536D01*
X213401Y40536D01*
X214793Y39144D01*
X214953Y38904D01*
X214960Y38898D01*
X214960Y38896D01*
Y38741D01*
X214961Y38739D01*
Y38482D01*
X214960Y38481D01*
Y38480D01*
D01*
X214960Y38480D01*
X214960Y38479D01*
Y38477D01*
X214913Y38365D01*
X214844Y38015D01*
X214841Y38008D01*
X213258D01*
Y34646D01*
Y31278D01*
X214846Y31269D01*
X214905Y30960D01*
X214957Y30833D01*
X214959Y30821D01*
Y30821D01*
X214959Y30692D01*
Y30692D01*
X214959Y30685D01*
X214961Y30676D01*
Y30665D01*
X214960Y30574D01*
X214961Y30572D01*
Y27525D01*
X214927Y27193D01*
X214938Y27070D01*
X214914Y26949D01*
Y26933D01*
X214911Y26916D01*
Y26916D01*
X214927Y26835D01*
X214914Y26772D01*
Y26175D01*
X214871Y25956D01*
X214747Y25770D01*
X214485Y25509D01*
X213779Y24803D01*
Y23806D01*
Y22863D01*
D01*
X213756Y22743D01*
Y22742D01*
X213756Y22742D01*
X213756Y22742D01*
Y19111D01*
X213712Y18892D01*
X213588Y18706D01*
X213160Y18278D01*
X212974Y18154D01*
X212755Y18110D01*
X211816D01*
X211816Y18110D01*
X211816Y18110D01*
X209449D01*
X206693Y20866D01*
X205271D01*
X205218Y20877D01*
X191936Y20899D01*
X191936Y20899D01*
X191935Y20900D01*
X191924Y20907D01*
X191846Y20940D01*
X191843Y20940D01*
X191841Y20942D01*
X191735Y20986D01*
X191733Y20986D01*
X191731Y20987D01*
X191544Y21065D01*
X191531Y21068D01*
X191363Y21235D01*
X191363Y21235D01*
X189990Y22609D01*
X189990Y22609D01*
X189990Y22609D01*
X189990Y22609D01*
X189990Y22609D01*
X189990Y22609D01*
X189990Y22609D01*
X189790Y22809D01*
X189790Y22809D01*
D01*
X189790Y22809D01*
X189669Y22929D01*
X189311Y23287D01*
X189311Y23287D01*
X189144Y23454D01*
X189144Y23454D01*
X189144Y23455D01*
X189144Y23455D01*
X189108Y23508D01*
X189108Y23508D01*
X189039Y23612D01*
X189039Y23612D01*
X189039Y23612D01*
X189012Y23652D01*
X189012Y23652D01*
X189012Y23652D01*
X188976Y23705D01*
D01*
X188976Y23705D01*
X188976Y23705D01*
Y33858D01*
X190945Y35827D01*
X190975Y40551D01*
X192898D01*
Y39833D01*
X196260D01*
Y38583D01*
X197510D01*
Y35614D01*
X202884D01*
Y38583D01*
X205384D01*
Y35614D01*
X207496D01*
Y40551D01*
X213386D01*
X213401Y40536D01*
D02*
G37*
G36*
X111417Y44882D02*
Y38189D01*
X111024Y37795D01*
X104331D01*
X103543Y38583D01*
X110630Y45669D01*
X111417Y44882D01*
D02*
G37*
G36*
X125266Y30890D02*
X126378D01*
Y21654D01*
X124803Y20079D01*
Y17323D01*
X123622Y16142D01*
X121079D01*
Y19110D01*
X122441Y20472D01*
Y22244D01*
Y30890D01*
X122766D01*
Y33858D01*
X125266D01*
Y30890D01*
D02*
G37*
G36*
X112205Y31102D02*
X97638D01*
X94882Y28346D01*
Y26000D01*
X90484D01*
Y17126D01*
X87984D01*
Y26000D01*
X82330D01*
X82330Y26000D01*
X82305Y26026D01*
X82305Y26026D01*
X82116Y26152D01*
X81974Y26294D01*
X81974Y26294D01*
X81754Y26514D01*
X80233Y28035D01*
X80233Y28035D01*
X79528Y28740D01*
X48819D01*
X48494Y29065D01*
X43701D01*
Y31565D01*
X48100D01*
X50787Y34252D01*
X112205D01*
Y31102D01*
D02*
G37*
G36*
X108949Y113556D02*
X108823Y112598D01*
X108965Y111519D01*
X109097Y111201D01*
Y101220D01*
X106108Y98231D01*
X105789Y98099D01*
X104926Y97436D01*
X104263Y96573D01*
X103847Y95567D01*
X103705Y94488D01*
X103847Y93409D01*
X104263Y92403D01*
X104926Y91540D01*
X105789Y90877D01*
X106749Y90480D01*
X106847Y89989D01*
X87556Y70698D01*
X69829D01*
X69499Y71074D01*
X69524Y71260D01*
X69382Y72339D01*
X68965Y73345D01*
X68303Y74208D01*
X68241Y74255D01*
Y93947D01*
X68696Y94296D01*
X69359Y95159D01*
X69775Y96165D01*
X69918Y97244D01*
X69775Y98323D01*
X69359Y99329D01*
X68696Y100192D01*
X67833Y100855D01*
X66827Y101271D01*
X65748Y101414D01*
X64669Y101271D01*
X63663Y100855D01*
X62800Y100192D01*
X62137Y99329D01*
X61721Y98323D01*
X61579Y97244D01*
X61721Y96165D01*
X62137Y95159D01*
X62467Y94729D01*
Y74255D01*
X62406Y74208D01*
X61743Y73345D01*
X61327Y72339D01*
X61185Y71260D01*
X61209Y71074D01*
X60880Y70698D01*
X55357D01*
X48996Y77060D01*
X48996Y77060D01*
X49028Y77092D01*
Y77303D01*
X49062Y77559D01*
X49028Y77815D01*
Y85177D01*
Y85177D01*
X53973Y90122D01*
X54512Y90824D01*
X54774Y91457D01*
X54851Y91642D01*
X54966Y92520D01*
Y110406D01*
X58491Y113932D01*
X108619D01*
X108949Y113556D01*
D02*
G37*
G36*
X161417Y134185D02*
Y90114D01*
X192520Y59055D01*
X236614D01*
X261417Y34252D01*
X311811D01*
X319685Y26378D01*
Y9913D01*
X316535Y6736D01*
X211417D01*
X206299Y1575D01*
X135039D01*
X134380Y2234D01*
Y3331D01*
Y6693D01*
X135630D01*
Y7943D01*
X138598D01*
Y10055D01*
Y12358D01*
X139379Y13138D01*
X139451Y13245D01*
X139453Y13247D01*
X139453Y13248D01*
X139455Y13250D01*
X139516Y13342D01*
X139681Y13506D01*
X139741Y13597D01*
X139746Y13602D01*
X139748Y13606D01*
X139748Y13606D01*
X139749Y13607D01*
X139750Y13610D01*
X139751Y13612D01*
X139780Y13682D01*
X139837Y13817D01*
X139966Y14005D01*
X139968Y14017D01*
X139976Y14028D01*
X139979Y14040D01*
X139979Y14040D01*
X139988Y14086D01*
X140017Y14233D01*
X140020Y14238D01*
X140025Y14264D01*
X140034Y14285D01*
X140109Y14458D01*
X140109Y14460D01*
X140109Y14462D01*
X140111Y14468D01*
X140112Y14469D01*
X140112Y14473D01*
X140152Y14663D01*
X140155Y14893D01*
X140161Y14924D01*
X140161Y14928D01*
X140161Y14930D01*
X140203Y15132D01*
X140204Y15146D01*
X140202Y15153D01*
X140204Y15159D01*
Y15159D01*
X140202Y15166D01*
X140204Y15173D01*
Y19276D01*
X140535Y19276D01*
Y19276D01*
X141860D01*
Y21850D01*
X144360D01*
Y19276D01*
X145685D01*
Y22638D01*
X146063D01*
Y22638D01*
X172638D01*
X172638Y22638D01*
X186793D01*
Y22638D01*
X186820D01*
X186822Y22628D01*
X186822Y22628D01*
X186916Y22508D01*
X186974Y22367D01*
X187010Y22313D01*
X187010Y22313D01*
X187010Y22313D01*
X187036Y22274D01*
X187036Y22274D01*
D01*
X187106Y22170D01*
X187106Y22170D01*
X187141Y22117D01*
X187142Y22116D01*
X187143Y22114D01*
X187310Y21948D01*
X187440Y21752D01*
X187441Y21752D01*
X187441Y21751D01*
X187441Y21751D01*
X187441Y21751D01*
X187441Y21751D01*
X187608Y21584D01*
X187608Y21584D01*
X187966Y21226D01*
X188087Y21106D01*
X188087Y21106D01*
D01*
X188087Y21106D01*
X188087D01*
X188287Y20906D01*
X188287Y20906D01*
D01*
X188287Y20906D01*
D01*
X188287Y20906D01*
D01*
X188287Y20906D01*
D01*
X188287Y20906D01*
D01*
X188287Y20906D01*
X188287D01*
X189660Y19532D01*
X189660Y19532D01*
X189660Y19532D01*
X189828Y19365D01*
X190025Y19233D01*
X190193Y19065D01*
X190412Y18974D01*
X190609Y18842D01*
X190623Y18840D01*
X190623Y18840D01*
X190810Y18762D01*
X190810Y18762D01*
X190915Y18718D01*
X190918Y18718D01*
X190921Y18716D01*
X190977Y18693D01*
X190987Y18686D01*
X190987Y18686D01*
X191000Y18683D01*
X191011Y18676D01*
X191243Y18629D01*
X191462Y18538D01*
X191466Y18538D01*
X191470Y18536D01*
X191471Y18536D01*
X191691Y18537D01*
X191906Y18491D01*
X191919Y18494D01*
X191932Y18491D01*
X205214Y18468D01*
X205216Y18469D01*
X205271Y18458D01*
X205695D01*
X207746Y16407D01*
X208214Y16094D01*
X208527Y15885D01*
X209449Y15702D01*
X211816D01*
X211816Y15702D01*
X211816Y15702D01*
X212755D01*
X212988Y15748D01*
X213225D01*
X213444Y15792D01*
X213444Y15792D01*
X213444D01*
X213663Y15882D01*
X213677Y15885D01*
X213688Y15893D01*
X213875Y15970D01*
X214068Y16050D01*
X214082Y16053D01*
X214093Y16060D01*
X214312Y16151D01*
X214312Y16151D01*
X214312Y16151D01*
X214498Y16275D01*
X214666Y16443D01*
X214863Y16575D01*
X215291Y17003D01*
X215423Y17200D01*
X215591Y17368D01*
X215715Y17554D01*
X215715Y17554D01*
X215805Y17773D01*
X215813Y17784D01*
X215816Y17798D01*
X215973Y18178D01*
X215981Y18189D01*
X215984Y18203D01*
X216074Y18422D01*
Y18422D01*
X216074Y18422D01*
Y18422D01*
X216118Y18641D01*
Y18878D01*
X216164Y19111D01*
Y21282D01*
X218898Y24016D01*
Y38976D01*
X215778Y42096D01*
X215778D01*
X215778D01*
X215778Y42096D01*
X215775Y42233D01*
X215775D01*
X215764Y42701D01*
Y42233D01*
D01*
X215520Y42132D01*
X215432Y42095D01*
X215302Y42041D01*
X215104Y42239D01*
X215104Y42239D01*
X215104Y42239D01*
X215089Y42254D01*
X215024Y42298D01*
X214979Y42355D01*
X214848Y42430D01*
X214741Y42537D01*
X214599Y42596D01*
X214478Y42690D01*
X214478Y42690D01*
X214408Y42709D01*
X214307Y42776D01*
X214205Y42797D01*
X214163Y42821D01*
X214013Y42840D01*
X213874Y42898D01*
X213720Y42898D01*
X213572Y42938D01*
X213524Y42932D01*
X213386Y42960D01*
X209361D01*
X209170Y43422D01*
X209252Y43504D01*
Y44685D01*
X207496D01*
Y49031D01*
X205384D01*
Y46063D01*
X204134D01*
Y44813D01*
X200772D01*
Y44685D01*
X199622D01*
Y49031D01*
X197510D01*
Y46063D01*
X195010D01*
Y49031D01*
X192913D01*
Y50394D01*
X185039D01*
Y50394D01*
X181812D01*
X181319Y51036D01*
X173658Y58697D01*
X172956Y59236D01*
X172377Y59476D01*
X172138Y59575D01*
X171260Y59690D01*
X97003D01*
X96457Y60236D01*
Y62527D01*
X138926Y104996D01*
X139764Y104886D01*
X140843Y105028D01*
X141849Y105444D01*
X142712Y106107D01*
X143375Y106970D01*
X143791Y107976D01*
X143933Y109055D01*
X143942Y109064D01*
Y118898D01*
X143942Y118898D01*
X143942Y118898D01*
Y119676D01*
X144162Y119963D01*
X144579Y120968D01*
X144721Y122047D01*
X144579Y123126D01*
X144162Y124132D01*
X143500Y124996D01*
X142636Y125658D01*
X141630Y126075D01*
X140551Y126217D01*
X139472Y126075D01*
X138466Y125658D01*
X137603Y124996D01*
X136940Y124132D01*
X136524Y123126D01*
X136497Y122921D01*
X136410Y122835D01*
D01*
X135889D01*
Y122835D01*
X135889Y122835D01*
X128347D01*
X126226Y120714D01*
X57087D01*
X57087Y120714D01*
X56648Y120656D01*
X56209Y120598D01*
X55693Y120385D01*
X55391Y120260D01*
X54689Y119721D01*
X50647Y115679D01*
X47653D01*
X47654Y113287D01*
X47205Y113066D01*
X46381Y113698D01*
X45088Y114233D01*
X43701Y114416D01*
X42313Y114233D01*
X41020Y113698D01*
X39910Y112846D01*
X39058Y111735D01*
X38523Y110443D01*
X38340Y109055D01*
X38523Y107668D01*
X39058Y106375D01*
X39072Y106357D01*
X39058Y106345D01*
X39058Y106345D01*
Y103313D01*
X39940Y102431D01*
X40882Y104000D01*
Y104020D01*
X41297Y104298D01*
X42313Y103877D01*
X43701Y103694D01*
X45088Y103877D01*
X46381Y104412D01*
X47491Y105264D01*
X47710Y105549D01*
X48184Y105389D01*
Y96974D01*
X47710Y96813D01*
X47491Y97098D01*
X46381Y97950D01*
X45088Y98485D01*
X43701Y98668D01*
X42313Y98485D01*
X41020Y97950D01*
X39910Y97098D01*
X39058Y95987D01*
X38523Y94695D01*
X38340Y93307D01*
X38523Y91920D01*
X39058Y90627D01*
X39910Y89517D01*
Y89224D01*
X39058Y88113D01*
X38523Y86821D01*
X38340Y85433D01*
X38523Y84046D01*
X39058Y82753D01*
X39910Y81642D01*
Y81350D01*
X39058Y80239D01*
X38523Y78947D01*
X38340Y77559D01*
X38523Y76172D01*
X39058Y74879D01*
X39910Y73768D01*
Y73476D01*
X39058Y72365D01*
X38523Y71073D01*
X38340Y69685D01*
X38523Y68298D01*
X39058Y67005D01*
X39910Y65894D01*
X41020Y65042D01*
X42313Y64507D01*
X43701Y64324D01*
X44200Y64390D01*
X45624Y62966D01*
Y59633D01*
Y59633D01*
X45185Y59575D01*
X44669Y59361D01*
X44367Y59236D01*
X44338Y59214D01*
X43701Y59298D01*
X42313Y59115D01*
X41020Y58580D01*
X39910Y57728D01*
X39058Y56617D01*
X38523Y55325D01*
X38340Y53937D01*
X38523Y52549D01*
X39058Y51257D01*
X39910Y50146D01*
Y49854D01*
X39058Y48743D01*
X38523Y47451D01*
X38340Y46063D01*
X38523Y44675D01*
X39058Y43383D01*
X39910Y42272D01*
Y41980D01*
X39058Y40869D01*
X38523Y39577D01*
X38340Y38189D01*
X38523Y36801D01*
X39058Y35509D01*
X39553Y34864D01*
Y33640D01*
X39058Y32995D01*
X38523Y31702D01*
X38340Y30315D01*
X38523Y28927D01*
X39058Y27635D01*
X39910Y26524D01*
X41020Y25672D01*
X42313Y25137D01*
X43701Y24954D01*
X45088Y25137D01*
X46381Y25672D01*
X47240Y26332D01*
X78530D01*
X80051Y24811D01*
X80051Y24811D01*
X80271Y24591D01*
X80271Y24591D01*
X80413Y24449D01*
X80602Y24323D01*
X80602Y24323D01*
X80602Y24323D01*
X80602Y24323D01*
X80602Y24322D01*
X80627Y24297D01*
X80627Y24297D01*
X80627D01*
X80628Y24297D01*
X80636Y24291D01*
X80778Y24149D01*
X80966Y24023D01*
Y6890D01*
X97502D01*
Y27362D01*
X97502Y27362D01*
X97502D01*
X97444Y27502D01*
X98635Y28694D01*
X112205D01*
X113126Y28877D01*
X113908Y29399D01*
X113994Y29528D01*
X120033D01*
Y23606D01*
X117392D01*
Y22116D01*
X116732Y21457D01*
X109843D01*
Y12795D01*
Y12008D01*
Y3347D01*
Y1575D01*
X6299D01*
X787Y7133D01*
Y135376D01*
X7480Y142126D01*
X153543D01*
X161417Y134185D01*
D02*
G37*
G36*
X460236Y136221D02*
Y110630D01*
X465234Y105447D01*
X465412Y104861D01*
X465997Y103767D01*
X466784Y102808D01*
X467743Y102021D01*
X468838Y101436D01*
X469212Y101322D01*
X470866Y99606D01*
X491339D01*
X498425Y92520D01*
Y53150D01*
X491732Y46457D01*
X470472D01*
X464961Y40945D01*
Y36333D01*
X464930Y36024D01*
X464961Y35714D01*
Y20079D01*
X452756Y7874D01*
X411417D01*
X403846Y15446D01*
X403342Y17107D01*
X402519Y18646D01*
X401412Y19995D01*
X400063Y21102D01*
X398524Y21924D01*
X396855Y22431D01*
X395118Y22602D01*
X393382Y22431D01*
X391712Y21924D01*
X390173Y21102D01*
X388824Y19995D01*
X387717Y18646D01*
X386894Y17107D01*
X386482Y15748D01*
X363779D01*
X353150Y26378D01*
Y48425D01*
X344882Y56693D01*
X278346D01*
X252756Y82284D01*
X205906D01*
X191339Y96850D01*
X187795Y100394D01*
X183071Y105118D01*
Y137008D01*
X185433Y139370D01*
X389863D01*
X390032Y138899D01*
X388824Y137908D01*
X387717Y136559D01*
X386894Y135020D01*
X386388Y133351D01*
X386217Y131614D01*
X386388Y129878D01*
X386894Y128208D01*
X387717Y126669D01*
X388824Y125320D01*
X390173Y124213D01*
X391712Y123391D01*
X393382Y122884D01*
X395118Y122713D01*
X396855Y122884D01*
X398524Y123391D01*
X400063Y124213D01*
X401412Y125320D01*
X402519Y126669D01*
X403342Y128208D01*
X403848Y129878D01*
X404019Y131614D01*
X403848Y133351D01*
X403342Y135020D01*
X402519Y136559D01*
X401412Y137908D01*
X400205Y138899D01*
X400373Y139370D01*
X457087D01*
X460236Y136221D01*
D02*
G37*
G36*
X145200Y46850D02*
X145247Y46850D01*
X145292Y46834D01*
X145471Y46843D01*
X145494Y46838D01*
D01*
X145647Y46808D01*
X145652D01*
X145652Y46808D01*
X145652Y46807D01*
X145653Y46806D01*
X145654Y46806D01*
X145655Y46805D01*
X145655Y46805D01*
X145656Y46804D01*
X145658Y46802D01*
X145669Y46795D01*
X145670Y46795D01*
X145677Y46791D01*
X145677Y46790D01*
X145828Y46692D01*
X145828Y46692D01*
X146260Y46259D01*
X146260Y46259D01*
X146260Y46259D01*
X147244Y45276D01*
Y40157D01*
X148425Y38976D01*
X149606Y37795D01*
X149787D01*
Y35221D01*
X151900D01*
Y38189D01*
X154400D01*
Y35221D01*
X156512D01*
Y37795D01*
X162598D01*
X163386Y37008D01*
Y31512D01*
X160221D01*
Y31496D01*
X158480D01*
Y31512D01*
X154203D01*
Y27756D01*
X151703D01*
Y31512D01*
X148016D01*
X147244Y32283D01*
X138976D01*
X137795Y31102D01*
Y19276D01*
Y15173D01*
X137795Y15159D01*
Y15159D01*
X137795Y15159D01*
X137753Y14962D01*
Y14962D01*
X137753Y14959D01*
X137753Y14955D01*
X137752Y14953D01*
X137749Y14950D01*
X137749Y14950D01*
X137747Y14947D01*
X137676Y14841D01*
X135827Y12992D01*
X131102D01*
X129400Y11289D01*
Y6693D01*
X126900D01*
Y10055D01*
X125181D01*
Y6476D01*
X123228D01*
Y12205D01*
X130315Y19291D01*
Y44691D01*
X130315Y44704D01*
X130315Y44704D01*
X130315Y44704D01*
X130354Y44890D01*
X130357Y44905D01*
X130357Y44909D01*
X130358Y44910D01*
X130361Y44913D01*
X130361Y44914D01*
X130361Y44914D01*
X130363Y44916D01*
X130368Y44924D01*
X130368Y44924D01*
X130390Y44957D01*
X132125Y46692D01*
X132125Y46692D01*
X132297Y46804D01*
X132301Y46808D01*
X132306D01*
X132512Y46849D01*
X132723Y46844D01*
X132739Y46850D01*
X132752D01*
X132753Y46850D01*
X145200D01*
X145200Y46850D01*
D02*
G37*
G36*
X129781Y51715D02*
Y47754D01*
X128687Y46660D01*
X128658Y46617D01*
X128658Y46617D01*
Y46617D01*
X128658Y46616D01*
X128655Y46613D01*
X128615Y46553D01*
X128549Y46502D01*
X128488Y46395D01*
X128388Y46295D01*
X128367Y46265D01*
X128364Y46262D01*
X128363Y46258D01*
X128361Y46255D01*
Y46255D01*
X128360Y46253D01*
X128359Y46251D01*
X128357Y46250D01*
X128357Y46249D01*
X128273Y46046D01*
X128144Y45857D01*
X128141Y45844D01*
X128132Y45832D01*
X128114Y45740D01*
X128083Y45686D01*
Y45685D01*
X128067Y45558D01*
X128033Y45478D01*
X128001Y45402D01*
X128000Y45400D01*
X127999Y45396D01*
X127998Y45395D01*
X127998Y45391D01*
X127998Y45387D01*
X127998Y45386D01*
X127997Y45386D01*
X127958Y45200D01*
X127956Y45035D01*
X127913Y44875D01*
X127922Y44802D01*
X127907Y44730D01*
X127907Y44718D01*
X127908Y44711D01*
X127907Y44704D01*
X127908Y44698D01*
X127907Y44691D01*
Y40089D01*
X124016D01*
Y41339D01*
X122766D01*
Y44307D01*
X120653D01*
Y40551D01*
X119504D01*
Y44307D01*
X114999D01*
X114670Y44683D01*
X114799Y45669D01*
X114657Y46748D01*
X114241Y47754D01*
X113578Y48618D01*
X112715Y49280D01*
X111709Y49697D01*
X110630Y49839D01*
X109551Y49697D01*
X108545Y49280D01*
X107682Y48618D01*
X107019Y47754D01*
X106887Y47436D01*
X102323Y42872D01*
X53976D01*
X48513Y48335D01*
X48513Y48335D01*
X48513Y48335D01*
X48513Y48335D01*
Y51662D01*
X49758Y52908D01*
X128588D01*
X129781Y51715D01*
D02*
G37*
%LPC*%
G36*
X210758Y38008D02*
X208252D01*
Y31284D01*
X210758D01*
Y34646D01*
Y38008D01*
D02*
G37*
G36*
X202884Y49031D02*
X200772D01*
Y47313D01*
X202884D01*
Y49031D01*
D02*
G37*
G36*
X127378Y44307D02*
X125266D01*
Y42589D01*
X127378D01*
Y44307D01*
D02*
G37*
G36*
X195010Y37333D02*
X192898D01*
Y35614D01*
X195010D01*
Y37333D01*
D02*
G37*
G36*
X171276Y19307D02*
X166998D01*
Y16801D01*
X171276D01*
Y19307D01*
D02*
G37*
G36*
X158480Y14301D02*
X154203D01*
Y11795D01*
X158480D01*
Y14301D01*
D02*
G37*
G36*
X164498D02*
X160221D01*
Y11795D01*
X164498D01*
Y14301D01*
D02*
G37*
G36*
X138598Y5443D02*
X136880D01*
Y3331D01*
X138598D01*
Y5443D01*
D02*
G37*
G36*
X151703Y14301D02*
X147425D01*
Y11795D01*
X151703D01*
Y14301D01*
D02*
G37*
G36*
X171276D02*
X166998D01*
Y11795D01*
X171276D01*
Y14301D01*
D02*
G37*
G36*
X158480Y19307D02*
X154203D01*
Y16801D01*
X158480D01*
Y19307D01*
D02*
G37*
G36*
X164498D02*
X160221D01*
Y16801D01*
X164498D01*
Y19307D01*
D02*
G37*
G36*
X433747Y27451D02*
X424521D01*
X424993Y26310D01*
X425753Y25320D01*
X425810Y25277D01*
X425649Y24803D01*
X423032D01*
Y12598D01*
X435236D01*
Y24803D01*
X432619D01*
X432458Y25277D01*
X432515Y25320D01*
X433274Y26310D01*
X433747Y27451D01*
D02*
G37*
G36*
X151703Y19307D02*
X147425D01*
Y16801D01*
X151703D01*
Y19307D01*
D02*
G37*
G36*
X452293Y97963D02*
X448728D01*
X448733Y97924D01*
X449231Y96723D01*
X450022Y95692D01*
X451053Y94900D01*
X452254Y94403D01*
X452293Y94398D01*
Y97963D01*
D02*
G37*
G36*
X458358D02*
X454793D01*
Y94398D01*
X454832Y94403D01*
X456033Y94900D01*
X457064Y95692D01*
X457856Y96723D01*
X458353Y97924D01*
X458358Y97963D01*
D02*
G37*
G36*
X171978Y74106D02*
X171940Y74101D01*
X170738Y73604D01*
X169707Y72812D01*
X168916Y71781D01*
X168418Y70580D01*
X168413Y70541D01*
X171978D01*
Y74106D01*
D02*
G37*
G36*
X174478D02*
Y70541D01*
X178043D01*
X178038Y70580D01*
X177541Y71781D01*
X176750Y72812D01*
X175718Y73604D01*
X174517Y74101D01*
X174478Y74106D01*
D02*
G37*
G36*
X452293Y104028D02*
X452254Y104023D01*
X451053Y103525D01*
X450022Y102734D01*
X449231Y101702D01*
X448733Y100501D01*
X448728Y100463D01*
X452293D01*
Y104028D01*
D02*
G37*
G36*
X427884Y131227D02*
X426743Y130755D01*
X425753Y129995D01*
X424993Y129005D01*
X424521Y127864D01*
X427884D01*
Y131227D01*
D02*
G37*
G36*
X430384D02*
Y127864D01*
X433747D01*
X433274Y129005D01*
X432515Y129995D01*
X431524Y130755D01*
X430384Y131227D01*
D02*
G37*
G36*
X454793Y104028D02*
Y100463D01*
X458358D01*
X458353Y100501D01*
X457856Y101702D01*
X457064Y102734D01*
X456033Y103525D01*
X454832Y104023D01*
X454793Y104028D01*
D02*
G37*
G36*
X258268Y127953D02*
X233071D01*
X227953Y122835D01*
Y118110D01*
X203473D01*
X202872Y118571D01*
X201866Y118988D01*
X200787Y119130D01*
X199708Y118988D01*
X198702Y118571D01*
X198101Y118110D01*
X197244D01*
X194095Y114961D01*
Y107087D01*
X197244Y103937D01*
X200787D01*
X203937Y100787D01*
X212205D01*
X216535Y96457D01*
X220472Y92520D01*
X423032D01*
Y80512D01*
X435236D01*
Y92716D01*
X435039D01*
Y105060D01*
X435148Y105418D01*
X435266Y106614D01*
X435148Y107810D01*
X435039Y108168D01*
Y115060D01*
X435148Y115418D01*
X435266Y116614D01*
X435148Y117810D01*
X434799Y118961D01*
X434232Y120021D01*
X433470Y120950D01*
X432541Y121713D01*
X431764Y122128D01*
X431723Y122626D01*
X432515Y123233D01*
X433274Y124224D01*
X433747Y125364D01*
X424521D01*
X424993Y124224D01*
X425753Y123233D01*
X426545Y122626D01*
X426504Y122128D01*
X425727Y121713D01*
X424798Y120950D01*
X424035Y120021D01*
X423469Y118961D01*
X423211Y118110D01*
X385827D01*
X373228Y105512D01*
X268504D01*
X264961Y109055D01*
Y121260D01*
X258268Y127953D01*
D02*
G37*
G36*
X178043Y68041D02*
X174478D01*
Y64476D01*
X174517Y64481D01*
X175718Y64979D01*
X176750Y65770D01*
X177541Y66802D01*
X178038Y68002D01*
X178043Y68041D01*
D02*
G37*
G36*
X395118Y90515D02*
X393382Y90344D01*
X391712Y89838D01*
X390173Y89015D01*
X388824Y87908D01*
X387717Y86559D01*
X386894Y85021D01*
X386388Y83351D01*
X386217Y81614D01*
X386388Y79878D01*
X386894Y78208D01*
X387717Y76669D01*
X388824Y75320D01*
X390173Y74213D01*
X391712Y73391D01*
X393304Y72908D01*
Y72884D01*
X393304D01*
Y72431D01*
Y72431D01*
D01*
D01*
X393304D01*
Y72408D01*
X391712Y71924D01*
X390173Y71102D01*
X388824Y69995D01*
X387717Y68646D01*
X386894Y67107D01*
X386388Y65437D01*
X386217Y63701D01*
X386388Y61964D01*
X386894Y60295D01*
X387717Y58756D01*
X388824Y57407D01*
X390173Y56300D01*
X391712Y55477D01*
X393382Y54971D01*
X395118Y54800D01*
X396855Y54971D01*
X398524Y55477D01*
X400063Y56300D01*
X401412Y57407D01*
X402519Y58756D01*
X403342Y60295D01*
X403848Y61964D01*
X404019Y63701D01*
X403848Y65437D01*
X403342Y67107D01*
X402519Y68646D01*
X401412Y69995D01*
X400063Y71102D01*
X398524Y71924D01*
X396932Y72408D01*
Y72431D01*
X396932D01*
Y72884D01*
Y72884D01*
D01*
D01*
X396932D01*
Y72908D01*
X398524Y73391D01*
X400063Y74213D01*
X401412Y75320D01*
X402519Y76669D01*
X403342Y78208D01*
X403848Y79878D01*
X404019Y81614D01*
X403848Y83351D01*
X403342Y85021D01*
X402519Y86559D01*
X401412Y87908D01*
X400063Y89015D01*
X398524Y89838D01*
X396855Y90344D01*
X395118Y90515D01*
D02*
G37*
G36*
X453543Y91763D02*
X452308Y91641D01*
X451121Y91281D01*
X450027Y90696D01*
X449067Y89909D01*
X448280Y88950D01*
X447695Y87855D01*
X447335Y86668D01*
X447214Y85433D01*
X447267Y84896D01*
X446931Y84525D01*
X443632D01*
X442754Y84409D01*
X442176Y84170D01*
X441936Y84071D01*
X441234Y83532D01*
X436547Y78845D01*
X436008Y78143D01*
X435746Y77510D01*
X435669Y77325D01*
X435554Y76447D01*
Y57451D01*
X434129D01*
X433800Y57827D01*
X433915Y58701D01*
X433752Y59938D01*
X433274Y61091D01*
X432515Y62081D01*
X431524Y62841D01*
X430384Y63314D01*
Y58701D01*
X429134D01*
Y57451D01*
X424521D01*
X424993Y56310D01*
X425753Y55320D01*
X426545Y54713D01*
X426504Y54214D01*
X425727Y53799D01*
X424798Y53037D01*
X424035Y52108D01*
X423469Y51047D01*
X423120Y49897D01*
X423002Y48701D01*
X423120Y47504D01*
X423469Y46354D01*
X424035Y45294D01*
X424798Y44365D01*
X425303Y43951D01*
Y43451D01*
X424798Y43037D01*
X424035Y42107D01*
X423469Y41047D01*
X423120Y39897D01*
X423002Y38701D01*
X423120Y37505D01*
X423469Y36354D01*
X424035Y35294D01*
X424798Y34365D01*
X425727Y33602D01*
X426504Y33187D01*
X426545Y32689D01*
X425753Y32081D01*
X424993Y31091D01*
X424521Y29951D01*
X433747D01*
X433274Y31091D01*
X432515Y32081D01*
X431723Y32689D01*
X431764Y33187D01*
X432541Y33602D01*
X433470Y34365D01*
X434232Y35294D01*
X434799Y36354D01*
X435148Y37505D01*
X435230Y38341D01*
X441045D01*
X441591Y37795D01*
X459842D01*
Y50394D01*
X446305D01*
Y62689D01*
X448939Y65324D01*
X453543D01*
X454778Y65446D01*
X455966Y65806D01*
X457060Y66391D01*
X458019Y67178D01*
X458806Y68137D01*
X459391Y69231D01*
X459751Y70419D01*
X459873Y71653D01*
X459751Y72888D01*
X459391Y74076D01*
X458806Y75170D01*
X458019Y76129D01*
X457060Y76916D01*
X456721Y77097D01*
X456650Y77271D01*
X456480Y77680D01*
X455941Y78382D01*
X455368Y78956D01*
X455489Y79441D01*
X455966Y79585D01*
X457060Y80170D01*
X458019Y80957D01*
X458806Y81916D01*
X459391Y83011D01*
X459751Y84198D01*
X459873Y85433D01*
X459751Y86668D01*
X459391Y87855D01*
X458806Y88950D01*
X458019Y89909D01*
X457060Y90696D01*
X455966Y91281D01*
X454778Y91641D01*
X453543Y91763D01*
D02*
G37*
G36*
X452293Y56624D02*
X448728D01*
X448733Y56585D01*
X449231Y55384D01*
X450022Y54353D01*
X451053Y53562D01*
X452254Y53064D01*
X452293Y53059D01*
Y56624D01*
D02*
G37*
G36*
X458358D02*
X454793D01*
Y53059D01*
X454832Y53064D01*
X456033Y53562D01*
X457064Y54353D01*
X457856Y55384D01*
X458353Y56585D01*
X458358Y56624D01*
D02*
G37*
G36*
X452293Y62689D02*
X452254Y62684D01*
X451053Y62186D01*
X450022Y61395D01*
X449231Y60364D01*
X448733Y59163D01*
X448728Y59124D01*
X452293D01*
Y62689D01*
D02*
G37*
G36*
X133858Y75621D02*
X132623Y75499D01*
X131436Y75139D01*
X130342Y74554D01*
X129383Y73767D01*
X128595Y72808D01*
X128010Y71714D01*
X127650Y70526D01*
X127529Y69291D01*
X127650Y68056D01*
X128010Y66869D01*
X128595Y65775D01*
X129383Y64816D01*
X130342Y64028D01*
X131436Y63443D01*
X132623Y63083D01*
X133858Y62962D01*
X135093Y63083D01*
X136281Y63443D01*
X137375Y64028D01*
X138334Y64816D01*
X139121Y65775D01*
X139706Y66869D01*
X140066Y68056D01*
X140188Y69291D01*
X140066Y70526D01*
X139706Y71714D01*
X139121Y72808D01*
X138334Y73767D01*
X137375Y74554D01*
X136281Y75139D01*
X135093Y75499D01*
X133858Y75621D01*
D02*
G37*
G36*
X171978Y68041D02*
X168413D01*
X168418Y68002D01*
X168916Y66802D01*
X169707Y65770D01*
X170738Y64979D01*
X171940Y64481D01*
X171978Y64476D01*
Y68041D01*
D02*
G37*
G36*
X427884Y63314D02*
X426743Y62841D01*
X425753Y62081D01*
X424993Y61091D01*
X424521Y59951D01*
X427884D01*
Y63314D01*
D02*
G37*
G36*
X454793Y62689D02*
Y59124D01*
X458358D01*
X458353Y59163D01*
X457856Y60364D01*
X457064Y61395D01*
X456033Y62186D01*
X454832Y62684D01*
X454793Y62689D01*
D02*
G37*
%LPD*%
G36*
X255118Y123228D02*
Y109843D01*
X252756Y107480D01*
X234252D01*
X231496Y110236D01*
Y122835D01*
X234206Y125544D01*
X252802D01*
X255118Y123228D01*
D02*
G37*
D11*
X128150Y6693D02*
D03*
X135630D02*
D03*
D16*
X212008Y34646D02*
D03*
Y46063D02*
D03*
D17*
X204134Y38583D02*
D03*
Y46063D02*
D03*
X116142Y33858D02*
D03*
Y41339D02*
D03*
X124016Y33858D02*
D03*
Y41339D02*
D03*
X153150Y45669D02*
D03*
Y38189D02*
D03*
X196260Y38583D02*
D03*
Y46063D02*
D03*
D21*
X160630Y46063D02*
D03*
Y40551D02*
D03*
X167323Y40551D02*
D03*
Y46063D02*
D03*
X188976Y40945D02*
D03*
Y46457D02*
D03*
X143110Y27362D02*
D03*
Y21850D02*
D03*
X176378Y32677D02*
D03*
Y27165D02*
D03*
D30*
X140551Y118898D02*
Y122047D01*
X88961Y67307D02*
X140551Y118898D01*
X91732Y62598D02*
X138583Y109449D01*
X50787Y62598D02*
X91732D01*
X209742Y109843D02*
X222372Y97213D01*
X201181Y109843D02*
X209742D01*
X224016Y101181D02*
X376671D01*
X211386Y113811D02*
X224016Y101181D01*
X201937Y113811D02*
X211386D01*
X200787Y114961D02*
X201937Y113811D01*
X200393Y109055D02*
X201181Y109843D01*
X211417Y24803D02*
X211811D01*
X212008Y24606D01*
X443632Y81134D02*
X452362D01*
X438945Y76447D02*
X443632Y81134D01*
X53953Y67307D02*
X88961D01*
X143110Y21850D02*
X146654D01*
X171260Y56299D02*
X178921Y48638D01*
X46063Y56299D02*
X171260D01*
X43701Y53937D02*
X46063Y56299D01*
X212008Y24606D02*
X212008D01*
X194882Y38583D02*
X196260D01*
X192512Y40953D02*
X194882Y38583D01*
X188386Y40953D02*
X192512D01*
X180577Y43110D02*
X183071D01*
X178921Y44766D02*
X180577Y43110D01*
X43701Y30315D02*
X82677D01*
X106299Y21260D02*
X111614Y26575D01*
X116142D01*
X152953Y15551D02*
X165748D01*
X116142Y41339D02*
X124016D01*
X171128Y43110D02*
X173622D01*
X168569Y40551D02*
X171128Y43110D01*
X167717Y40551D02*
X168569D01*
X173622Y35433D02*
Y39370D01*
Y35433D02*
X176378Y32677D01*
X451968Y83071D02*
X453740Y84842D01*
X116142Y33858D02*
X124016D01*
X151969Y28740D02*
X152953Y27756D01*
X143701D02*
X152953D01*
X165748D01*
X188000Y46850D02*
X188386Y46464D01*
X183071Y46850D02*
X188000D01*
X183795Y43010D02*
X185665D01*
X187722Y40953D01*
X188386D01*
X196260Y38583D02*
X204134D01*
X212205D01*
X168504Y46850D02*
X173622D01*
X429134Y38701D02*
X432165Y41732D01*
X441045D01*
X442913Y43600D01*
X429134Y48701D02*
X432134Y45701D01*
X437433D01*
X438976Y47244D01*
X442913Y43600D02*
Y45569D01*
X442945Y45600D01*
Y48888D01*
X442913Y48919D02*
X442945Y48888D01*
X442913Y48919D02*
Y74803D01*
X438945Y47276D02*
X438976Y47244D01*
X438945Y47276D02*
Y76447D01*
X452362Y81134D02*
X453543Y82315D01*
X442913Y74803D02*
X445276Y77165D01*
X452362D01*
X453543Y75984D01*
Y71653D02*
Y75984D01*
X178921Y44766D02*
Y48638D01*
X167717Y34646D02*
Y40551D01*
Y34646D02*
X168110Y34252D01*
X44291Y69095D02*
X50787Y62598D01*
X43701Y77559D02*
X53953Y67307D01*
X51575Y111811D02*
X57087Y117323D01*
X130315D01*
X43701Y85433D02*
X44488D01*
X51575Y92520D01*
Y111811D01*
X426299Y109449D02*
X429134Y106614D01*
X425937Y113417D02*
X429134Y116614D01*
X388907Y113417D02*
X425937D01*
X390551Y109449D02*
X426299D01*
X378315Y97213D02*
X390551Y109449D01*
X376671Y101181D02*
X388907Y113417D01*
X222372Y97213D02*
X378315D01*
X200787Y114960D02*
X200787Y114961D01*
X453740Y84842D02*
Y87598D01*
X116142Y17126D02*
X121457D01*
X153150Y45669D02*
X153543Y46063D01*
X161024D01*
X167717D01*
D31*
X233071Y118110D02*
X233858Y117323D01*
X240158D01*
X429134Y126614D02*
Y136614D01*
X36614Y116929D02*
X43701D01*
X135630Y3051D02*
Y6693D01*
X429134Y58701D02*
X433915D01*
D32*
X110236Y33071D02*
X111024Y33858D01*
X116142D01*
X429134Y96614D02*
X440315D01*
X112992Y99606D02*
Y112598D01*
X107874Y94488D02*
X112992Y99606D01*
X103937Y38976D02*
X110630Y45669D01*
X128150Y6693D02*
Y12402D01*
X127165Y7677D02*
X128150Y6693D01*
X116142Y7677D02*
X127165D01*
X176378Y27165D02*
X179463D01*
X204134Y46063D02*
X212008D01*
X196260D02*
X204134D01*
X212008D02*
X212008Y46063D01*
X60630Y76378D02*
Y100394D01*
X64173Y103937D01*
X87402D01*
X451772Y46260D02*
X453740D01*
X183071Y30774D02*
Y34646D01*
Y38189D01*
X179463Y27165D02*
X183071Y30774D01*
X57874Y72835D02*
Y73622D01*
X60630Y76378D01*
X38583Y101575D02*
X43307D01*
X43701Y101181D01*
Y46063D02*
X45276D01*
X52362Y38976D01*
X103937D01*
X160630Y36220D02*
Y40551D01*
D34*
X89234Y17126D02*
Y28482D01*
D35*
X43701Y30315D02*
Y38189D01*
D37*
X65354Y71260D02*
Y96850D01*
D43*
X43701Y30315D02*
D03*
Y46063D02*
D03*
Y53937D02*
D03*
Y61811D02*
D03*
Y69685D02*
D03*
Y77559D02*
D03*
Y85433D02*
D03*
Y93307D02*
D03*
Y101181D02*
D03*
Y109055D02*
D03*
Y38189D02*
D03*
D44*
Y116929D02*
D03*
D45*
X14961Y129134D02*
D03*
X488583Y14961D02*
D03*
X488976Y128346D02*
D03*
X14567Y14961D02*
D03*
D46*
X173228Y69291D02*
D03*
X133858D02*
D03*
X453543Y99213D02*
D03*
Y57874D02*
D03*
Y71653D02*
D03*
Y85433D02*
D03*
D47*
Y44094D02*
D03*
D48*
X395118Y131614D02*
D03*
Y81614D02*
D03*
Y63701D02*
D03*
Y13701D02*
D03*
D49*
X429134Y126614D02*
D03*
Y116614D02*
D03*
Y106614D02*
D03*
Y96614D02*
D03*
Y58701D02*
D03*
Y48701D02*
D03*
Y38701D02*
D03*
Y28701D02*
D03*
D50*
Y86614D02*
D03*
Y18701D02*
D03*
D51*
X200787Y114960D02*
D03*
X102756Y100787D02*
D03*
X211417Y24803D02*
D03*
X211024Y20079D02*
D03*
X109055Y40551D02*
D03*
X492520Y50787D02*
D03*
X309449Y31496D02*
D03*
X298031Y117323D02*
D03*
X325984Y66535D02*
D03*
Y72835D02*
D03*
Y79921D02*
D03*
X363386Y28740D02*
D03*
X362598Y36614D02*
D03*
X361811Y45669D02*
D03*
X377165Y79921D02*
D03*
Y71260D02*
D03*
X59449Y122835D02*
D03*
Y130709D02*
D03*
X107480Y61811D02*
D03*
X107874Y67323D02*
D03*
X82677Y30315D02*
D03*
X122441Y76378D02*
D03*
Y69291D02*
D03*
Y62205D02*
D03*
X113386Y74803D02*
D03*
X117717Y79134D02*
D03*
X122835Y83464D02*
D03*
X143307Y42913D02*
D03*
X135827D02*
D03*
X143307Y36220D02*
D03*
X127165Y51181D02*
D03*
X120079Y51575D02*
D03*
X110236D02*
D03*
X66929Y45669D02*
D03*
X64567Y50000D02*
D03*
X431496Y9449D02*
D03*
X460236Y18110D02*
D03*
X58661Y50000D02*
D03*
X55512Y45276D02*
D03*
X52362Y50394D02*
D03*
X61024Y45276D02*
D03*
X28346Y140157D02*
D03*
X45407Y138583D02*
D03*
X13386Y112598D02*
D03*
X23228Y114567D02*
D03*
X38189Y138583D02*
D03*
X52625D02*
D03*
X94882Y101181D02*
D03*
X144095Y4331D02*
D03*
X141339Y98032D02*
D03*
X181890Y66535D02*
D03*
X263386Y16535D02*
D03*
X273228Y16929D02*
D03*
X233465Y54724D02*
D03*
X273228Y30709D02*
D03*
X61417Y16535D02*
D03*
X103150Y5512D02*
D03*
X82415D02*
D03*
X91339Y5118D02*
D03*
X103150Y12795D02*
D03*
X3937Y31890D02*
D03*
X71653Y5512D02*
D03*
X61417Y23228D02*
D03*
X30315Y9449D02*
D03*
X61417Y5512D02*
D03*
X51312Y10630D02*
D03*
X27953Y43701D02*
D03*
Y55905D02*
D03*
X28346Y68110D02*
D03*
X27953Y92520D02*
D03*
X27559Y80315D02*
D03*
X12730Y43045D02*
D03*
X12205Y31890D02*
D03*
X27953Y104724D02*
D03*
X12730Y80053D02*
D03*
Y92388D02*
D03*
X4724Y115354D02*
D03*
X12730Y55381D02*
D03*
Y67716D02*
D03*
X61417Y10630D02*
D03*
X51312Y5512D02*
D03*
X41339Y10630D02*
D03*
X40945Y5512D02*
D03*
X3937Y104724D02*
D03*
X386221Y121260D02*
D03*
X407874Y127165D02*
D03*
X397244Y25984D02*
D03*
X411417Y61091D02*
D03*
X406693Y54331D02*
D03*
X325197Y59449D02*
D03*
X474934Y83858D02*
D03*
Y59449D02*
D03*
X475984Y96063D02*
D03*
X474934Y71653D02*
D03*
X483727Y59449D02*
D03*
X492520D02*
D03*
Y71653D02*
D03*
Y83858D02*
D03*
X368898Y79921D02*
D03*
X360630D02*
D03*
X351181D02*
D03*
X340945D02*
D03*
X333071Y80315D02*
D03*
X374410Y109055D02*
D03*
X362992D02*
D03*
X338583D02*
D03*
X350787D02*
D03*
X183071Y34646D02*
D03*
X296850Y29567D02*
D03*
X303543D02*
D03*
X103150Y21260D02*
D03*
X158661Y5118D02*
D03*
X112992Y112598D02*
D03*
X87795Y30315D02*
D03*
X135827Y36220D02*
D03*
X139764Y109055D02*
D03*
X65748Y97244D02*
D03*
X140551Y122047D02*
D03*
X130315Y117323D02*
D03*
X225590Y119291D02*
D03*
X110630Y45669D02*
D03*
X167717Y34646D02*
D03*
X65354Y71260D02*
D03*
X87402Y103937D02*
D03*
X200393Y109055D02*
D03*
X251575Y122835D02*
D03*
X251969Y117323D02*
D03*
Y111811D02*
D03*
X240158D02*
D03*
Y117323D02*
D03*
X246457D02*
D03*
X240551Y122835D02*
D03*
X246457Y111417D02*
D03*
X338583Y125853D02*
D03*
X350787Y125591D02*
D03*
X362992D02*
D03*
Y117323D02*
D03*
X350787D02*
D03*
X338583Y117454D02*
D03*
Y134252D02*
D03*
X350787Y133858D02*
D03*
X362992D02*
D03*
X374410D02*
D03*
Y125591D02*
D03*
Y117323D02*
D03*
X333071Y73228D02*
D03*
X340551Y72835D02*
D03*
X351181D02*
D03*
X333071Y66535D02*
D03*
X340551D02*
D03*
X351181Y64961D02*
D03*
X332283Y59449D02*
D03*
X340551Y60236D02*
D03*
X351181Y57874D02*
D03*
X360630Y72441D02*
D03*
Y64961D02*
D03*
Y56693D02*
D03*
X368898Y72835D02*
D03*
Y65354D02*
D03*
X369291Y56693D02*
D03*
X368898Y46063D02*
D03*
Y37402D02*
D03*
X370079Y28346D02*
D03*
X377165Y62598D02*
D03*
Y53937D02*
D03*
Y45276D02*
D03*
Y27953D02*
D03*
X492520Y96063D02*
D03*
X483727Y83858D02*
D03*
Y71653D02*
D03*
X483858Y50394D02*
D03*
X485039Y96063D02*
D03*
X466142Y71653D02*
D03*
X448032Y9449D02*
D03*
X474803Y50394D02*
D03*
X466929Y96063D02*
D03*
X466142Y83858D02*
D03*
Y59449D02*
D03*
Y50394D02*
D03*
X273622Y85433D02*
D03*
X273228Y77165D02*
D03*
X272835Y68898D02*
D03*
X264173Y85433D02*
D03*
X263779Y76772D02*
D03*
X253150Y85433D02*
D03*
X241732D02*
D03*
X205512Y85827D02*
D03*
X204724Y92126D02*
D03*
X413779Y53937D02*
D03*
Y43307D02*
D03*
X414567Y32283D02*
D03*
X414961Y22047D02*
D03*
X413386Y134646D02*
D03*
Y120472D02*
D03*
X403937Y120866D02*
D03*
X455118Y129528D02*
D03*
X448425Y129134D02*
D03*
X441732D02*
D03*
X455512Y122441D02*
D03*
X448425Y134252D02*
D03*
X442126D02*
D03*
X455905Y114567D02*
D03*
X461811Y103150D02*
D03*
X316929Y22047D02*
D03*
X12730Y104724D02*
D03*
X3937Y92585D02*
D03*
Y44029D02*
D03*
X51181Y23228D02*
D03*
X57480Y98032D02*
D03*
X57874Y72835D02*
D03*
X20341Y104724D02*
D03*
Y92520D02*
D03*
Y80315D02*
D03*
Y68110D02*
D03*
Y55905D02*
D03*
Y43701D02*
D03*
X20472Y31890D02*
D03*
X31102Y134252D02*
D03*
X45669Y132283D02*
D03*
X52756Y132677D02*
D03*
X27165Y3937D02*
D03*
X26378Y26378D02*
D03*
X71653Y10630D02*
D03*
Y22835D02*
D03*
X273228Y23622D02*
D03*
X263386Y22835D02*
D03*
X253150D02*
D03*
X243701D02*
D03*
Y30709D02*
D03*
X253150D02*
D03*
X243307Y38976D02*
D03*
X253150Y38583D02*
D03*
X377165Y36614D02*
D03*
X396457Y40945D02*
D03*
X402362Y48425D02*
D03*
X403937Y28740D02*
D03*
X388189Y50000D02*
D03*
X387402Y36220D02*
D03*
X281496Y111811D02*
D03*
X295669Y112205D02*
D03*
X288976Y111811D02*
D03*
X298425Y107480D02*
D03*
X268898Y117323D02*
D03*
X274803Y115354D02*
D03*
X283858Y107480D02*
D03*
X290945D02*
D03*
X328740Y134252D02*
D03*
Y125591D02*
D03*
Y109449D02*
D03*
X406299Y134646D02*
D03*
X416929Y126378D02*
D03*
X287008Y69291D02*
D03*
Y60236D02*
D03*
X263386Y30709D02*
D03*
X234646Y22441D02*
D03*
X253150Y16929D02*
D03*
X234646Y30709D02*
D03*
X233858Y38583D02*
D03*
X242913Y46850D02*
D03*
X185039Y5906D02*
D03*
X172835Y4724D02*
D03*
X188583Y12992D02*
D03*
X28740Y31890D02*
D03*
X71653Y16535D02*
D03*
X30315Y17323D02*
D03*
X51312Y16535D02*
D03*
X41339D02*
D03*
X52362Y77165D02*
D03*
X51968Y82677D02*
D03*
X29921Y122835D02*
D03*
X38583Y132283D02*
D03*
X59842Y138583D02*
D03*
X107874Y94488D02*
D03*
X316929Y16142D02*
D03*
X317323Y10630D02*
D03*
X212598Y56693D02*
D03*
Y51968D02*
D03*
X3937Y80446D02*
D03*
Y68307D02*
D03*
Y56168D02*
D03*
X57087Y79134D02*
D03*
X57480Y104331D02*
D03*
X135827Y28740D02*
D03*
X233858Y46850D02*
D03*
X204331Y56693D02*
D03*
X187795Y60630D02*
D03*
X177953Y59842D02*
D03*
X183465Y57087D02*
D03*
X194488D02*
D03*
X454724Y12992D02*
D03*
X462205Y42520D02*
D03*
X461811Y24803D02*
D03*
Y33465D02*
D03*
X448425Y122835D02*
D03*
X441732Y123228D02*
D03*
X328346Y117717D02*
D03*
X212205Y92520D02*
D03*
Y85433D02*
D03*
X233858D02*
D03*
D52*
X165748Y27756D02*
D03*
Y15551D02*
D03*
X152953Y27756D02*
D03*
Y15551D02*
D03*
D53*
X116142Y26575D02*
D03*
Y17126D02*
D03*
Y7677D02*
D03*
D54*
X89234Y17126D02*
D03*
D55*
X173622Y39370D02*
D03*
Y43110D02*
D03*
Y46850D02*
D03*
X183071D02*
D03*
Y43110D02*
D03*
Y39370D02*
D03*
M02*
